<?xml version="1.0" encoding="utf-8" standalone="no"?>
<!DOCTYPE svg PUBLIC "-//W3C//DTD SVG 1.1//EN"
  "http://www.w3.org/Graphics/SVG/1.1/DTD/svg11.dtd">
<svg xmlns:xlink="http://www.w3.org/1999/xlink" width="462.4709pt" height="468.154pt" viewBox="0 0 462.4709 468.154" xmlns="http://www.w3.org/2000/svg" version="1.1">
 <metadata>
  <rdf:RDF xmlns:dc="http://purl.org/dc/elements/1.1/" xmlns:cc="http://creativecommons.org/ns#" xmlns:rdf="http://www.w3.org/1999/02/22-rdf-syntax-ns#">
   <cc:Work>
    <dc:type rdf:resource="http://purl.org/dc/dcmitype/StillImage"/>
    <dc:date>2026-08-25T05:51:41.759536</dc:date>
    <dc:format>image/svg+xml</dc:format>
    <dc:creator>
     <cc:Agent>
      <dc:title>Matplotlib v3.6.3, https://matplotlib.org/</dc:title>
     </cc:Agent>
    </dc:creator>
   </cc:Work>
  </rdf:RDF>
 </metadata>
 <defs>
  <style type="text/css">*{stroke-linejoin: round; stroke-linecap: butt}</style>
 </defs>
 <g id="figure_1">
  <g id="patch_1">
   <path d="M 0 468.154 
L 462.4709 468.154 
L 462.4709 0 
L 0 0 
z
" style="fill: #ffffff"/>
  </g>
  <g id="axes_1">
   <g id="patch_2">
    <path d="M 109.8725 132.248757 
L 455.2709 132.248757 
L 455.2709 50.292 
L 109.8725 50.292 
z
" style="fill: #ffffff"/>
   </g>
   <g id="matplotlib.axis_1">
    <g id="xtick_1">
     <g id="line2d_1">
      <path d="M 109.8725 132.248757 
L 109.8725 50.292 
" clip-path="url(#p5c1ebc560c)" style="fill: none; stroke: #dddddd; stroke-opacity: 0.3; stroke-width: 0.6; stroke-linecap: square"/>
     </g>
     <g id="line2d_2">
      <defs>
       <path id="m15316ccc91" d="M 0 0 
L 0 3.5 
" style="stroke: #000000; stroke-width: 0.8"/>
      </defs>
      <g>
       <use xlink:href="#m15316ccc91" x="109.8725" y="132.248757" style="stroke: #000000; stroke-width: 0.8"/>
      </g>
     </g>
     <g id="text_1">
      <!-- 0 -->
      <g transform="translate(107.489375 144.905007) scale(0.08 -0.08)">
       <defs>
        <path id="Pretendard-Regular-30" d="M 1906 -63 
C 2906 -63 3488 781 3488 2263 
C 3488 3731 2900 4588 1906 4588 
C 913 4588 325 3731 325 2263 
C 325 781 900 -63 1906 -63 
z
M 1906 438 
C 1250 438 869 1094 869 2263 
C 869 3431 1256 4100 1906 4100 
C 2556 4100 2938 3431 2938 2263 
C 2938 1094 2556 438 1906 438 
z
" transform="scale(0.015625)"/>
       </defs>
       <use xlink:href="#Pretendard-Regular-30"/>
      </g>
     </g>
    </g>
    <g id="xtick_2">
     <g id="line2d_3">
      <path d="M 191.334387 132.248757 
L 191.334387 50.292 
" clip-path="url(#p5c1ebc560c)" style="fill: none; stroke: #dddddd; stroke-opacity: 0.3; stroke-width: 0.6; stroke-linecap: square"/>
     </g>
     <g id="line2d_4">
      <g>
       <use xlink:href="#m15316ccc91" x="191.334387" y="132.248757" style="stroke: #000000; stroke-width: 0.8"/>
      </g>
     </g>
     <g id="text_2">
      <!-- 25 -->
      <g transform="translate(186.600012 144.905007) scale(0.08 -0.08)">
       <defs>
        <path id="Pretendard-Regular-32" d="M 425 0 
L 3363 0 
L 3363 500 
L 1206 500 
L 1206 538 
L 2244 1606 
C 3044 2431 3281 2825 3281 3331 
C 3281 4038 2694 4588 1875 4588 
C 1056 4588 438 4050 444 3250 
L 975 3250 
C 975 3756 1319 4100 1856 4100 
C 2363 4100 2756 3794 2756 3331 
C 2756 2913 2500 2606 1963 2038 
L 419 413 
L 425 0 
z
" transform="scale(0.015625)"/>
        <path id="Pretendard-Regular-35" d="M 1900 -63 
C 2800 -63 3463 569 3463 1444 
C 3463 2325 2825 2963 1963 2963 
C 1644 2963 1338 2856 1138 2700 
L 1094 2700 
L 1263 4025 
L 3244 4025 
L 3244 4525 
L 794 4525 
L 475 2050 
L 1019 2050 
C 1188 2344 1481 2463 1863 2456 
C 2469 2450 2913 2019 2913 1431 
C 2913 863 2488 431 1900 431 
C 1413 431 1019 731 975 1138 
L 431 1138 
C 463 444 1081 -63 1900 -63 
z
" transform="scale(0.015625)"/>
       </defs>
       <use xlink:href="#Pretendard-Regular-32"/>
       <use xlink:href="#Pretendard-Regular-35" x="58.691406"/>
      </g>
     </g>
    </g>
    <g id="xtick_3">
     <g id="line2d_5">
      <path d="M 272.796274 132.248757 
L 272.796274 50.292 
" clip-path="url(#p5c1ebc560c)" style="fill: none; stroke: #dddddd; stroke-opacity: 0.3; stroke-width: 0.6; stroke-linecap: square"/>
     </g>
     <g id="line2d_6">
      <g>
       <use xlink:href="#m15316ccc91" x="272.796274" y="132.248757" style="stroke: #000000; stroke-width: 0.8"/>
      </g>
     </g>
     <g id="text_3">
      <!-- 50 -->
      <g transform="translate(268.026274 144.905007) scale(0.08 -0.08)">
       <use xlink:href="#Pretendard-Regular-35"/>
       <use xlink:href="#Pretendard-Regular-30" x="59.667969"/>
      </g>
     </g>
    </g>
    <g id="xtick_4">
     <g id="line2d_7">
      <path d="M 354.25816 132.248757 
L 354.25816 50.292 
" clip-path="url(#p5c1ebc560c)" style="fill: none; stroke: #dddddd; stroke-opacity: 0.3; stroke-width: 0.6; stroke-linecap: square"/>
     </g>
     <g id="line2d_8">
      <g>
       <use xlink:href="#m15316ccc91" x="354.25816" y="132.248757" style="stroke: #000000; stroke-width: 0.8"/>
      </g>
     </g>
     <g id="text_4">
      <!-- 75 -->
      <g transform="translate(349.66441 144.905007) scale(0.08 -0.08)">
       <defs>
        <path id="Pretendard-Regular-37" d="M 569 0 
L 1156 0 
L 3225 4000 
L 3225 4525 
L 250 4525 
L 250 4025 
L 2644 4025 
L 2644 3994 
L 569 0 
z
" transform="scale(0.015625)"/>
       </defs>
       <use xlink:href="#Pretendard-Regular-37"/>
       <use xlink:href="#Pretendard-Regular-35" x="55.175781"/>
      </g>
     </g>
    </g>
    <g id="xtick_5">
     <g id="line2d_9">
      <path d="M 435.720047 132.248757 
L 435.720047 50.292 
" clip-path="url(#p5c1ebc560c)" style="fill: none; stroke: #dddddd; stroke-opacity: 0.3; stroke-width: 0.6; stroke-linecap: square"/>
     </g>
     <g id="line2d_10">
      <g>
       <use xlink:href="#m15316ccc91" x="435.720047" y="132.248757" style="stroke: #000000; stroke-width: 0.8"/>
      </g>
     </g>
     <g id="text_5">
      <!-- 100 -->
      <g transform="translate(429.200047 144.905007) scale(0.08 -0.08)">
       <defs>
        <path id="Pretendard-Regular-31" d="M 2025 4525 
L 1456 4525 
L 331 3775 
L 331 3206 
L 1431 3938 
L 1456 3938 
L 1456 0 
L 2025 0 
L 2025 4525 
z
" transform="scale(0.015625)"/>
       </defs>
       <use xlink:href="#Pretendard-Regular-31"/>
       <use xlink:href="#Pretendard-Regular-30" x="43.847656"/>
       <use xlink:href="#Pretendard-Regular-30" x="103.417969"/>
      </g>
     </g>
    </g>
    <g id="text_6">
     <!-- Rate [%] -->
     <g transform="translate(265.331778 157.134851) scale(0.09 -0.09)">
      <defs>
       <path id="Pretendard-Regular-52" d="M 500 0 
L 1063 0 
L 1063 1756 
L 2044 1756 
L 2156 1763 
L 3100 0 
L 3756 0 
L 2738 1863 
C 3313 2063 3581 2534 3581 3131 
C 3581 3938 3100 4525 2038 4525 
L 500 4525 
L 500 0 
z
M 1063 2269 
L 1063 4025 
L 2013 4025 
C 2738 4025 3025 3675 3025 3131 
C 3025 2594 2738 2269 2019 2269 
L 1063 2269 
z
" transform="scale(0.015625)"/>
       <path id="Pretendard-Regular-61" d="M 269 963 
C 269 300 781 -81 1425 -81 
C 2013 -81 2325 231 2438 463 
L 2463 463 
L 2463 0 
L 2994 0 
L 2994 2238 
C 2994 3306 2163 3438 1719 3438 
C 969 3438 438 3056 369 2513 
L 931 2513 
C 1006 2769 1263 2969 1694 2969 
C 2206 2969 2463 2719 2463 2288 
L 2463 2013 
C 2309 2006 1759 1978 1544 1963 
C 956 1919 269 1744 269 963 
z
M 806 938 
C 806 1306 1119 1481 1606 1513 
L 2463 1575 
L 2463 1231 
C 2463 806 2125 400 1519 400 
C 1106 400 806 581 806 938 
z
" transform="scale(0.015625)"/>
       <path id="Pretendard-Regular-74" d="M 1913 3394 
L 1200 3394 
L 1200 4206 
L 656 4206 
L 656 3394 
L 144 3394 
L 144 2944 
L 656 2944 
L 656 838 
C 656 238 1138 -44 1588 -44 
C 1744 -44 1881 -31 1963 -19 
L 1963 481 
C 1881 475 1744 469 1644 469 
C 1413 469 1200 538 1200 975 
L 1200 2944 
L 1913 2944 
L 1913 3394 
z
" transform="scale(0.015625)"/>
       <path id="Pretendard-Regular-65" d="M 1856 -69 
C 2556 -69 3056 281 3219 794 
L 2644 794 
C 2519 581 2263 406 1856 406 
C 1250 406 831 800 806 1519 
L 3269 1519 
L 3269 1744 
C 3269 3000 2519 3438 1806 3438 
C 881 3438 269 2713 269 1669 
C 269 625 875 -69 1856 -69 
z
M 813 1975 
C 844 2500 1219 2963 1806 2963 
C 2363 2963 2725 2544 2725 1975 
L 813 1975 
z
" transform="scale(0.015625)"/>
       <path id="Pretendard-Regular-20" transform="scale(0.015625)"/>
       <path id="Pretendard-Regular-5b" d="M 688 -1275 
L 2013 -1275 
L 2013 -825 
L 1194 -825 
L 1194 4275 
L 2013 4275 
L 2013 4719 
L 688 4719 
L 688 -1275 
z
" transform="scale(0.015625)"/>
       <path id="Pretendard-Regular-25" d="M 1381 2425 
C 1963 2425 2288 2863 2288 3513 
C 2288 4150 1975 4594 1381 4594 
C 806 4594 475 4150 475 3513 
C 475 2863 794 2425 1381 2425 
z
M 1381 2813 
C 1081 2813 931 3088 931 3513 
C 931 3931 1081 4206 1381 4206 
C 1700 4213 1831 3931 1831 3513 
C 1831 3088 1688 2813 1381 2813 
z
M 4144 -63 
C 4719 -69 5044 375 5044 1019 
C 5044 1663 4731 2106 4144 2106 
C 3569 2106 3231 1663 3238 1019 
C 3231 375 3556 -69 4144 -63 
z
M 4144 325 
C 3838 325 3688 600 3688 1019 
C 3688 1444 3844 1713 4144 1719 
C 4456 1725 4588 1444 4588 1019 
C 4588 600 4444 325 4144 325 
z
M 919 0 
L 1425 0 
L 4538 4525 
L 4031 4525 
L 919 0 
z
" transform="scale(0.015625)"/>
       <path id="Pretendard-Regular-5d" d="M 1494 -1275 
L 1494 4719 
L 169 4719 
L 169 4275 
L 988 4275 
L 988 -825 
L 169 -825 
L 169 -1275 
L 1494 -1275 
z
" transform="scale(0.015625)"/>
      </defs>
      <use xlink:href="#Pretendard-Regular-52"/>
      <use xlink:href="#Pretendard-Regular-61" x="60.839844"/>
      <use xlink:href="#Pretendard-Regular-74" x="114.355469"/>
      <use xlink:href="#Pretendard-Regular-65" x="148.339844"/>
      <use xlink:href="#Pretendard-Regular-20" x="203.613281"/>
      <use xlink:href="#Pretendard-Regular-5b" x="228.710938"/>
      <use xlink:href="#Pretendard-Regular-25" x="262.792969"/>
      <use xlink:href="#Pretendard-Regular-5d" x="349.023438"/>
     </g>
    </g>
   </g>
   <g id="matplotlib.axis_2">
    <g id="ytick_1">
     <g id="line2d_11">
      <defs>
       <path id="mab760c5c04" d="M 0 0 
L -3.5 0 
" style="stroke: #000000; stroke-width: 0.8"/>
      </defs>
      <g>
       <use xlink:href="#mab760c5c04" x="109.8725" y="71.454915" style="stroke: #000000; stroke-width: 0.8"/>
      </g>
     </g>
     <g id="text_7">
      <!-- G1 eventual count ratio -->
      <g transform="translate(20.52375 74.28304) scale(0.08 -0.08)">
       <defs>
        <path id="Pretendard-Regular-47" d="M 3588 3113 
L 4169 3113 
C 4000 3988 3263 4588 2306 4588 
C 1144 4588 325 3694 325 2263 
C 325 831 1138 -63 2344 -63 
C 3419 -63 4194 656 4194 1781 
L 4194 2269 
L 2463 2269 
L 2463 1775 
L 3644 1775 
C 3631 975 3109 463 2344 463 
C 1506 463 869 1094 869 2263 
C 869 3431 1506 4063 2306 4063 
C 2950 4063 3394 3694 3588 3113 
z
" transform="scale(0.015625)"/>
        <path id="Pretendard-Regular-76" d="M 3225 3394 
L 2638 3394 
L 1713 700 
L 1675 700 
L 750 3394 
L 163 3394 
L 1413 0 
L 1969 0 
L 3225 3394 
z
" transform="scale(0.015625)"/>
        <path id="Pretendard-Regular-6e" d="M 969 2038 
C 969 2625 1331 2956 1825 2956 
C 2306 2956 2594 2644 2594 2119 
L 2594 0 
L 3131 0 
L 3131 2156 
C 3131 3019 2675 3438 1988 3438 
C 1469 3438 1156 3206 994 2863 
L 950 2863 
L 950 3394 
L 431 3394 
L 431 0 
L 969 0 
L 969 2038 
z
" transform="scale(0.015625)"/>
        <path id="Pretendard-Regular-75" d="M 2575 1394 
C 2575 763 2088 475 1706 475 
C 1275 475 969 788 969 1275 
L 969 3394 
L 431 3394 
L 431 1238 
C 431 375 888 -44 1531 -44 
C 2044 -44 2375 231 2538 575 
L 2575 575 
L 2575 0 
L 3106 0 
L 3106 3394 
L 2575 3394 
L 2575 1394 
z
" transform="scale(0.015625)"/>
        <path id="Pretendard-Regular-6c" d="M 969 4525 
L 431 4525 
L 431 0 
L 969 0 
L 969 4525 
z
" transform="scale(0.015625)"/>
        <path id="Pretendard-Regular-63" d="M 1819 -69 
C 2575 -69 3069 394 3156 1000 
L 2619 1000 
C 2525 625 2219 413 1819 413 
C 1200 413 806 913 806 1700 
C 806 2463 1213 2963 1819 2963 
C 2269 2963 2544 2681 2619 2369 
L 3156 2369 
C 3069 3013 2531 3438 1806 3438 
C 881 3438 269 2713 269 1681 
C 269 663 856 -69 1819 -69 
z
" transform="scale(0.015625)"/>
        <path id="Pretendard-Regular-6f" d="M 1819 -69 
C 2738 -69 3356 625 3356 1681 
C 3356 2738 2738 3438 1819 3438 
C 894 3438 269 2738 269 1681 
C 269 625 894 -69 1819 -69 
z
M 1819 406 
C 1125 406 806 1006 806 1681 
C 806 2356 1125 2963 1819 2963 
C 2500 2963 2819 2356 2819 1681 
C 2819 1006 2500 406 1819 406 
z
" transform="scale(0.015625)"/>
        <path id="Pretendard-Regular-72" d="M 431 0 
L 969 0 
L 969 2138 
C 969 2594 1331 2931 1819 2931 
C 1956 2931 2106 2906 2144 2894 
L 2144 3438 
C 2081 3444 1944 3450 1863 3450 
C 1463 3450 1113 3219 988 2875 
L 950 2875 
L 950 3394 
L 431 3394 
L 431 0 
z
" transform="scale(0.015625)"/>
        <path id="Pretendard-Regular-69" d="M 431 0 
L 969 0 
L 969 3394 
L 431 3394 
L 431 0 
z
M 700 3956 
C 906 3956 1081 4113 1081 4313 
C 1081 4513 906 4669 700 4669 
C 494 4669 325 4513 325 4313 
C 325 4113 494 3956 700 3956 
z
" transform="scale(0.015625)"/>
       </defs>
       <use xlink:href="#Pretendard-Regular-47"/>
       <use xlink:href="#Pretendard-Regular-31" x="70.898438"/>
       <use xlink:href="#Pretendard-Regular-20" x="114.746094"/>
       <use xlink:href="#Pretendard-Regular-65" x="139.84375"/>
       <use xlink:href="#Pretendard-Regular-76" x="195.117188"/>
       <use xlink:href="#Pretendard-Regular-65" x="248.046875"/>
       <use xlink:href="#Pretendard-Regular-6e" x="303.320312"/>
       <use xlink:href="#Pretendard-Regular-74" x="358.984375"/>
       <use xlink:href="#Pretendard-Regular-75" x="392.96875"/>
       <use xlink:href="#Pretendard-Regular-61" x="448.242188"/>
       <use xlink:href="#Pretendard-Regular-6c" x="501.757812"/>
       <use xlink:href="#Pretendard-Regular-20" x="523.535156"/>
       <use xlink:href="#Pretendard-Regular-63" x="548.632812"/>
       <use xlink:href="#Pretendard-Regular-6f" x="601.5625"/>
       <use xlink:href="#Pretendard-Regular-75" x="658.300781"/>
       <use xlink:href="#Pretendard-Regular-6e" x="713.574219"/>
       <use xlink:href="#Pretendard-Regular-74" x="769.238281"/>
       <use xlink:href="#Pretendard-Regular-20" x="803.222656"/>
       <use xlink:href="#Pretendard-Regular-72" x="828.320312"/>
       <use xlink:href="#Pretendard-Regular-61" x="863.28125"/>
       <use xlink:href="#Pretendard-Regular-74" x="916.796875"/>
       <use xlink:href="#Pretendard-Regular-69" x="950.78125"/>
       <use xlink:href="#Pretendard-Regular-6f" x="972.558594"/>
      </g>
     </g>
    </g>
    <g id="ytick_2">
     <g id="line2d_12">
      <g>
       <use xlink:href="#mab760c5c04" x="109.8725" y="111.085842" style="stroke: #000000; stroke-width: 0.8"/>
      </g>
     </g>
     <g id="text_8">
      <!-- G4 bounded exact-one -->
      <g transform="translate(19.54125 113.913967) scale(0.08 -0.08)">
       <defs>
        <path id="Pretendard-Regular-34" d="M 313 925 
L 2506 925 
L 2506 0 
L 3044 0 
L 3044 925 
L 3675 925 
L 3675 1419 
L 3044 1419 
L 3044 4525 
L 2350 4525 
L 313 1388 
L 313 925 
z
M 919 1419 
L 919 1456 
L 2450 3813 
L 2506 3813 
L 2506 1419 
L 919 1419 
z
" transform="scale(0.015625)"/>
        <path id="Pretendard-Regular-62" d="M 500 0 
L 1019 0 
L 1019 519 
L 1081 519 
C 1200 331 1419 -69 2069 -69 
C 2913 -69 3513 613 3513 1688 
C 3513 2763 2913 3438 2063 3438 
C 1400 3438 1200 3038 1081 2856 
L 1038 2856 
L 1038 4525 
L 500 4525 
L 500 0 
z
M 1025 1700 
C 1025 2450 1363 2956 1988 2956 
C 2644 2956 2969 2406 2969 1700 
C 2969 975 2631 413 1988 413 
C 1369 413 1025 938 1025 1700 
z
" transform="scale(0.015625)"/>
        <path id="Pretendard-Regular-64" d="M 1713 -69 
C 2363 -69 2581 331 2700 519 
L 2756 519 
L 2756 0 
L 3281 0 
L 3281 4525 
L 2738 4525 
L 2738 2856 
L 2700 2856 
C 2588 3038 2375 3438 1719 3438 
C 869 3438 269 2763 269 1688 
C 269 613 869 -69 1713 -69 
z
M 1788 413 
C 1144 413 813 975 813 1700 
C 813 2406 1138 2956 1788 2956 
C 2419 2956 2756 2450 2756 1700 
C 2756 938 2406 413 1788 413 
z
" transform="scale(0.015625)"/>
        <path id="Pretendard-Regular-78" d="M 838 3394 
L 219 3394 
L 1288 1700 
L 219 0 
L 838 0 
L 1638 1313 
L 2450 0 
L 3063 0 
L 1969 1700 
L 3063 3394 
L 2444 3394 
L 1638 2013 
L 838 3394 
z
" transform="scale(0.015625)"/>
        <path id="Pretendard-Regular-2d" d="M 2375 2181 
L 394 2181 
L 394 1688 
L 2375 1688 
L 2375 2181 
z
" transform="scale(0.015625)"/>
       </defs>
       <use xlink:href="#Pretendard-Regular-47"/>
       <use xlink:href="#Pretendard-Regular-34" x="70.898438"/>
       <use xlink:href="#Pretendard-Regular-20" x="133.300781"/>
       <use xlink:href="#Pretendard-Regular-62" x="158.398438"/>
       <use xlink:href="#Pretendard-Regular-6f" x="217.480469"/>
       <use xlink:href="#Pretendard-Regular-75" x="274.21875"/>
       <use xlink:href="#Pretendard-Regular-6e" x="329.492188"/>
       <use xlink:href="#Pretendard-Regular-64" x="385.15625"/>
       <use xlink:href="#Pretendard-Regular-65" x="444.238281"/>
       <use xlink:href="#Pretendard-Regular-64" x="499.511719"/>
       <use xlink:href="#Pretendard-Regular-20" x="558.59375"/>
       <use xlink:href="#Pretendard-Regular-65" x="583.691406"/>
       <use xlink:href="#Pretendard-Regular-78" x="638.964844"/>
       <use xlink:href="#Pretendard-Regular-61" x="690.234375"/>
       <use xlink:href="#Pretendard-Regular-63" x="743.75"/>
       <use xlink:href="#Pretendard-Regular-74" x="796.679688"/>
       <use xlink:href="#Pretendard-Regular-2d" x="830.664062"/>
       <use xlink:href="#Pretendard-Regular-6f" x="873.925781"/>
       <use xlink:href="#Pretendard-Regular-6e" x="930.664062"/>
       <use xlink:href="#Pretendard-Regular-65" x="986.328125"/>
      </g>
     </g>
    </g>
   </g>
   <g id="patch_3">
    <path d="M 109.8725 88.892523 
L 434.974401 88.892523 
L 434.974401 82.551574 
L 109.8725 82.551574 
z
" clip-path="url(#p5c1ebc560c)" style="fill: #ffffff; stroke: #d55e00; stroke-width: 1.3; stroke-linejoin: miter"/>
   </g>
   <g id="patch_4">
    <path d="M 109.8725 81.758956 
L 436.092444 81.758956 
L 436.092444 75.418008 
L 109.8725 75.418008 
z
" clip-path="url(#p5c1ebc560c)" style="fill: #ffffff; stroke: #009e73; stroke-width: 1.3; stroke-linejoin: miter"/>
   </g>
   <g id="patch_5">
    <path d="M 109.8725 67.491822 
L 399.828424 67.491822 
L 399.828424 61.150874 
L 109.8725 61.150874 
z
" clip-path="url(#p5c1ebc560c)" style="fill: #d55e00; opacity: 0.82"/>
   </g>
   <g id="patch_6">
    <path d="M 109.8725 60.358255 
L 406.9219 60.358255 
L 406.9219 54.017307 
L 109.8725 54.017307 
z
" clip-path="url(#p5c1ebc560c)" style="fill: #009e73; opacity: 0.82"/>
   </g>
   <g id="patch_7">
    <path d="M 109.8725 128.52345 
L 433.0678 128.52345 
L 433.0678 122.182501 
L 109.8725 122.182501 
z
" clip-path="url(#p5c1ebc560c)" style="fill: #ffffff; stroke: #d55e00; stroke-width: 1.3; stroke-linejoin: miter"/>
   </g>
   <g id="patch_8">
    <path d="M 109.8725 121.389883 
L 430.42786 121.389883 
L 430.42786 115.048934 
L 109.8725 115.048934 
z
" clip-path="url(#p5c1ebc560c)" style="fill: #ffffff; stroke: #009e73; stroke-width: 1.3; stroke-linejoin: miter"/>
   </g>
   <g id="patch_9">
    <path d="M 109.8725 107.122749 
L 392.280522 107.122749 
L 392.280522 100.781801 
L 109.8725 100.781801 
z
" clip-path="url(#p5c1ebc560c)" style="fill: #d55e00; opacity: 0.82"/>
   </g>
   <g id="patch_10">
    <path d="M 109.8725 99.989182 
L 405.265082 99.989182 
L 405.265082 93.648234 
L 109.8725 93.648234 
z
" clip-path="url(#p5c1ebc560c)" style="fill: #009e73; opacity: 0.82"/>
   </g>
   <g id="patch_11">
    <path d="M 109.8725 132.248757 
L 109.8725 50.292 
" style="fill: none; stroke: #000000; stroke-width: 0.8; stroke-linejoin: miter; stroke-linecap: square"/>
   </g>
   <g id="patch_12">
    <path d="M 109.8725 132.248757 
L 455.2709 132.248757 
" style="fill: none; stroke: #000000; stroke-width: 0.8; stroke-linejoin: miter; stroke-linecap: square"/>
   </g>
   <g id="text_9">
    <!-- 99.8 -->
    <g style="fill: #d55e00" transform="translate(438.884571 87.194705) scale(0.058 -0.058)">
     <defs>
      <path id="Pretendard-Regular-39" d="M 1931 4588 
C 969 4594 350 3913 350 3069 
C 350 2194 1019 1575 1831 1575 
C 2313 1575 2725 1800 2988 2175 
L 3050 2175 
C 3044 1075 2594 438 1856 438 
C 1350 438 1044 738 944 1144 
L 388 1144 
C 500 425 1063 -63 1856 -63 
C 2919 -63 3575 838 3575 2444 
C 3575 4113 2713 4581 1931 4588 
z
M 1931 4094 
C 2531 4094 2963 3606 2963 3088 
C 2963 2556 2500 2069 1913 2069 
C 1319 2069 900 2513 900 3075 
C 894 3631 1338 4094 1931 4094 
z
" transform="scale(0.015625)"/>
      <path id="Pretendard-Regular-2e" d="M 813 -38 
C 1031 -38 1213 144 1213 369 
C 1213 588 1031 769 813 769 
C 594 769 406 588 413 369 
C 406 144 594 -38 813 -38 
z
" transform="scale(0.015625)"/>
      <path id="Pretendard-Regular-38" d="M 1938 -63 
C 2881 -63 3544 463 3550 1200 
C 3544 1788 3138 2269 2625 2350 
L 2625 2375 
C 3069 2481 3369 2894 3375 3388 
C 3369 4081 2763 4588 1938 4588 
C 1113 4588 506 4081 506 3388 
C 506 2894 800 2481 1250 2375 
L 1250 2350 
C 731 2269 325 1788 331 1200 
C 325 463 988 -63 1938 -63 
z
M 1938 431 
C 1288 431 881 756 894 1231 
C 881 1731 1331 2100 1938 2100 
C 2544 2100 2988 1731 2988 1231 
C 2988 756 2588 431 1938 431 
z
M 1938 2575 
C 1419 2575 1050 2888 1050 3344 
C 1050 3794 1400 4100 1938 4100 
C 2469 4100 2825 3794 2825 3344 
C 2825 2888 2450 2575 1938 2575 
z
" transform="scale(0.015625)"/>
     </defs>
     <use xlink:href="#Pretendard-Regular-39"/>
     <use xlink:href="#Pretendard-Regular-39" x="61.328125"/>
     <use xlink:href="#Pretendard-Regular-2e" x="122.65625"/>
     <use xlink:href="#Pretendard-Regular-38" x="148.046875"/>
    </g>
   </g>
   <g id="text_10">
    <!-- 100.1 -->
    <g style="fill: #009e73" transform="translate(440.002615 80.061138) scale(0.058 -0.058)">
     <use xlink:href="#Pretendard-Regular-31"/>
     <use xlink:href="#Pretendard-Regular-30" x="43.847656"/>
     <use xlink:href="#Pretendard-Regular-30" x="103.417969"/>
     <use xlink:href="#Pretendard-Regular-2e" x="162.988281"/>
     <use xlink:href="#Pretendard-Regular-31" x="188.378906"/>
    </g>
   </g>
   <g id="text_11">
    <!-- 89.0 -->
    <g style="fill: #d55e00" transform="translate(403.738594 65.794004) scale(0.058 -0.058)">
     <use xlink:href="#Pretendard-Regular-38"/>
     <use xlink:href="#Pretendard-Regular-39" x="60.644531"/>
     <use xlink:href="#Pretendard-Regular-2e" x="121.972656"/>
     <use xlink:href="#Pretendard-Regular-30" x="147.363281"/>
    </g>
   </g>
   <g id="text_12">
    <!-- 91.2 -->
    <g style="fill: #009e73" transform="translate(410.832071 58.660438) scale(0.058 -0.058)">
     <use xlink:href="#Pretendard-Regular-39"/>
     <use xlink:href="#Pretendard-Regular-31" x="61.328125"/>
     <use xlink:href="#Pretendard-Regular-2e" x="105.175781"/>
     <use xlink:href="#Pretendard-Regular-32" x="130.566406"/>
    </g>
   </g>
   <g id="text_13">
    <!-- 99.2 -->
    <g style="fill: #d55e00" transform="translate(436.97797 126.825632) scale(0.058 -0.058)">
     <use xlink:href="#Pretendard-Regular-39"/>
     <use xlink:href="#Pretendard-Regular-39" x="61.328125"/>
     <use xlink:href="#Pretendard-Regular-2e" x="122.65625"/>
     <use xlink:href="#Pretendard-Regular-32" x="148.046875"/>
    </g>
   </g>
   <g id="text_14">
    <!-- 98.4 -->
    <g style="fill: #009e73" transform="translate(434.33803 119.692065) scale(0.058 -0.058)">
     <use xlink:href="#Pretendard-Regular-39"/>
     <use xlink:href="#Pretendard-Regular-38" x="61.328125"/>
     <use xlink:href="#Pretendard-Regular-2e" x="121.972656"/>
     <use xlink:href="#Pretendard-Regular-34" x="147.363281"/>
    </g>
   </g>
   <g id="text_15">
    <!-- 86.7 -->
    <g style="fill: #d55e00" transform="translate(396.190692 105.424931) scale(0.058 -0.058)">
     <defs>
      <path id="Pretendard-Regular-36" d="M 2000 -63 
C 2950 -69 3575 613 3575 1463 
C 3575 2338 2906 2963 2100 2963 
C 1613 2963 1200 2738 938 2363 
L 881 2363 
C 881 3450 1325 4088 2069 4088 
C 2575 4088 2875 3788 2981 3388 
L 3538 3388 
C 3419 4100 2863 4588 2069 4588 
C 1006 4588 350 3688 350 2088 
C 350 413 1213 -50 2000 -63 
z
M 2000 431 
C 1394 431 956 919 956 1450 
C 963 1988 1419 2469 2013 2469 
C 2606 2469 3025 2013 3031 1456 
C 3025 894 2588 431 2000 431 
z
" transform="scale(0.015625)"/>
     </defs>
     <use xlink:href="#Pretendard-Regular-38"/>
     <use xlink:href="#Pretendard-Regular-36" x="60.644531"/>
     <use xlink:href="#Pretendard-Regular-2e" x="121.972656"/>
     <use xlink:href="#Pretendard-Regular-37" x="147.363281"/>
    </g>
   </g>
   <g id="text_16">
    <!-- 90.7 -->
    <g style="fill: #009e73" transform="translate(409.175253 98.291364) scale(0.058 -0.058)">
     <use xlink:href="#Pretendard-Regular-39"/>
     <use xlink:href="#Pretendard-Regular-30" x="61.328125"/>
     <use xlink:href="#Pretendard-Regular-2e" x="120.898438"/>
     <use xlink:href="#Pretendard-Regular-37" x="146.289062"/>
    </g>
   </g>
   <g id="text_17">
    <!-- A -->
    <g transform="translate(89.148596 43.482016) scale(0.095 -0.095)">
     <defs>
      <path id="Pretendard-Bold-41" d="M 1138 0 
L 1481 1044 
L 3119 1044 
L 3456 0 
L 4463 0 
L 2900 4525 
L 1694 4525 
L 125 0 
L 1138 0 
z
M 1719 1775 
L 2281 3506 
L 2313 3506 
L 2881 1775 
L 1719 1775 
z
" transform="scale(0.015625)"/>
     </defs>
     <use xlink:href="#Pretendard-Bold-41"/>
    </g>
   </g>
   <g id="text_18">
    <!-- Detection against independent FSR -->
    <g transform="translate(216.272325 43.292) scale(0.08 -0.08)">
     <defs>
      <path id="Pretendard-Bold-44" d="M 1975 0 
C 3356 0 4188 850 4188 2269 
C 4188 3675 3356 4525 1994 4525 
L 381 4525 
L 381 0 
L 1975 0 
z
M 1319 806 
L 1319 3719 
L 1944 3719 
C 2800 3719 3250 3275 3250 2269 
C 3250 1256 2800 806 1938 806 
L 1319 806 
z
" transform="scale(0.015625)"/>
      <path id="Pretendard-Bold-65" d="M 1900 -69 
C 2738 -69 3300 344 3431 969 
L 2550 969 
C 2456 763 2231 625 1919 625 
C 1444 625 1138 944 1138 1456 
L 3456 1456 
L 3456 1719 
C 3456 2875 2756 3438 1863 3438 
C 869 3438 225 2731 225 1681 
C 225 606 863 -69 1900 -69 
z
M 1138 2038 
C 1153 2428 1456 2744 1881 2744 
C 2294 2744 2581 2450 2581 2038 
L 1138 2038 
z
" transform="scale(0.015625)"/>
      <path id="Pretendard-Bold-74" d="M 2150 3394 
L 1513 3394 
L 1513 4206 
L 588 4206 
L 588 3394 
L 119 3394 
L 119 2700 
L 588 2700 
L 588 913 
C 581 256 1038 -44 1706 -44 
C 1938 -44 2100 -31 2200 -13 
L 2200 719 
C 2088 706 1925 700 1831 700 
C 1644 706 1513 775 1513 1044 
L 1513 2700 
L 2150 2700 
L 2150 3394 
z
" transform="scale(0.015625)"/>
      <path id="Pretendard-Bold-63" d="M 1888 -69 
C 2788 -69 3350 463 3394 1231 
L 2525 1231 
C 2469 869 2225 669 1900 669 
C 1450 669 1163 1044 1163 1700 
C 1163 2344 1456 2719 1900 2719 
C 2250 2719 2469 2488 2525 2150 
L 3394 2150 
C 3356 2925 2763 3438 1888 3438 
C 856 3438 225 2725 225 1688 
C 225 650 850 -69 1888 -69 
z
" transform="scale(0.015625)"/>
      <path id="Pretendard-Bold-69" d="M 363 0 
L 1288 0 
L 1288 3394 
L 363 3394 
L 363 0 
z
M 825 3838 
C 1100 3838 1325 4050 1325 4306 
C 1325 4569 1100 4781 825 4781 
C 544 4781 319 4569 319 4306 
C 319 4050 544 3838 825 3838 
z
" transform="scale(0.015625)"/>
      <path id="Pretendard-Bold-6f" d="M 1888 -69 
C 2913 -69 3556 638 3556 1688 
C 3556 2738 2913 3438 1888 3438 
C 863 3438 225 2738 225 1688 
C 225 638 863 -69 1888 -69 
z
M 1894 650 
C 1413 650 1163 1094 1163 1688 
C 1163 2288 1413 2731 1894 2731 
C 2369 2731 2613 2288 2613 1688 
C 2613 1094 2369 650 1894 650 
z
" transform="scale(0.015625)"/>
      <path id="Pretendard-Bold-6e" d="M 1288 1963 
C 1288 2413 1550 2669 1938 2669 
C 2319 2669 2550 2419 2550 2000 
L 2550 0 
L 3469 0 
L 3469 2163 
C 3475 2956 3006 3438 2300 3438 
C 1800 3438 1438 3194 1281 2800 
L 1244 2800 
L 1244 3394 
L 363 3394 
L 363 0 
L 1288 0 
L 1288 1963 
z
" transform="scale(0.015625)"/>
      <path id="Pretendard-Bold-20" transform="scale(0.015625)"/>
      <path id="Pretendard-Bold-61" d="M 200 950 
C 200 275 681 -63 1331 -63 
C 1838 -63 2156 156 2325 469 
L 2350 469 
L 2350 0 
L 3225 0 
L 3225 2288 
C 3225 3106 2525 3438 1788 3438 
C 888 3438 375 2975 319 2388 
L 1200 2388 
C 1250 2619 1450 2763 1763 2763 
C 2106 2763 2300 2594 2306 2313 
L 2306 2038 
C 2163 2031 1706 2009 1463 1994 
C 813 1956 200 1706 200 950 
z
M 1088 975 
C 1088 1238 1294 1388 1613 1419 
C 1772 1434 2166 1456 2306 1463 
L 2306 1213 
C 2313 856 2013 575 1594 575 
C 1300 575 1088 713 1088 975 
z
" transform="scale(0.015625)"/>
      <path id="Pretendard-Bold-67" d="M 1888 -1344 
C 2850 -1344 3538 -900 3538 -38 
L 3538 3394 
L 2619 3394 
L 2619 2825 
L 2581 2825 
C 2456 3100 2181 3438 1613 3438 
C 863 3438 231 2869 231 1719 
C 231 588 844 50 1613 50 
C 2156 50 2456 325 2581 600 
L 2625 600 
L 2625 -19 
C 2625 -494 2338 -675 1906 -675 
C 1538 -675 1281 -550 1231 -281 
L 319 -281 
C 375 -925 950 -1344 1888 -1344 
z
M 1900 744 
C 1431 744 1181 1119 1181 1706 
C 1181 2294 1431 2700 1900 2700 
C 2363 2700 2625 2313 2625 1706 
C 2625 1106 2363 744 1900 744 
z
" transform="scale(0.015625)"/>
      <path id="Pretendard-Bold-73" d="M 2300 2388 
L 3169 2388 
C 3119 3031 2588 3438 1731 3438 
C 856 3438 294 3031 300 2381 
C 294 1881 631 1544 1275 1419 
L 1838 1306 
C 2156 1238 2300 1131 2300 956 
C 2300 738 2075 600 1738 600 
C 1400 600 1181 738 1138 1006 
L 206 1006 
C 281 344 819 -69 1738 -69 
C 2638 -69 3238 381 3244 1050 
C 3238 1538 2919 1831 2263 1969 
L 1656 2094 
C 1338 2163 1213 2281 1219 2431 
C 1213 2638 1444 2781 1744 2781 
C 2050 2781 2263 2625 2300 2388 
z
" transform="scale(0.015625)"/>
      <path id="Pretendard-Bold-64" d="M 1613 -56 
C 2163 -56 2444 263 2575 544 
L 2619 544 
L 2619 0 
L 3531 0 
L 3531 4525 
L 2606 4525 
L 2606 2825 
L 2575 2825 
C 2450 3100 2181 3438 1613 3438 
C 863 3438 231 2856 231 1694 
C 231 563 838 -56 1613 -56 
z
M 1900 681 
C 1431 681 1181 1100 1181 1700 
C 1181 2294 1431 2700 1900 2700 
C 2363 2700 2625 2313 2625 1700 
C 2625 1088 2363 681 1900 681 
z
" transform="scale(0.015625)"/>
      <path id="Pretendard-Bold-70" d="M 363 -1275 
L 1288 -1275 
L 1288 544 
L 1313 544 
C 1444 263 1725 -56 2281 -56 
C 3056 -56 3656 563 3656 1694 
C 3656 2856 3031 3438 2281 3438 
C 1713 3438 1438 3100 1313 2825 
L 1275 2825 
L 1275 3394 
L 363 3394 
L 363 -1275 
z
M 1269 1700 
C 1269 2313 1525 2700 1988 2700 
C 2463 2700 2713 2294 2713 1700 
C 2713 1100 2463 681 1988 681 
C 1531 681 1269 1088 1269 1700 
z
" transform="scale(0.015625)"/>
      <path id="Pretendard-Bold-46" d="M 381 0 
L 1319 0 
L 1319 1875 
L 3169 1875 
L 3169 2650 
L 1319 2650 
L 1319 3750 
L 3363 3750 
L 3363 4525 
L 381 4525 
L 381 0 
z
" transform="scale(0.015625)"/>
      <path id="Pretendard-Bold-53" d="M 2838 3231 
L 3738 3231 
C 3725 4031 3063 4588 2063 4588 
C 1075 4588 350 4044 350 3219 
C 350 2556 819 2175 1581 1988 
L 2075 1869 
C 2569 1744 2850 1600 2850 1294 
C 2850 956 2531 725 2038 725 
C 1538 725 1175 956 1144 1413 
L 231 1413 
C 256 444 956 -63 2050 -63 
C 3150 -63 3800 463 3800 1294 
C 3800 2050 3219 2444 2444 2619 
L 2038 2719 
C 1650 2806 1306 2956 1313 3281 
C 1319 3581 1581 3800 2056 3800 
C 2513 3800 2800 3588 2838 3231 
z
" transform="scale(0.015625)"/>
      <path id="Pretendard-Bold-52" d="M 381 0 
L 1319 0 
L 1319 1606 
L 2038 1606 
L 2900 0 
L 3938 0 
L 2975 1763 
C 3491 1981 3775 2431 3775 3050 
C 3775 3944 3188 4525 2156 4525 
L 381 4525 
L 381 0 
z
M 1319 2369 
L 1319 3756 
L 1981 3756 
C 2538 3756 2806 3506 2806 3050 
C 2806 2600 2538 2369 1981 2369 
L 1319 2369 
z
" transform="scale(0.015625)"/>
     </defs>
     <use xlink:href="#Pretendard-Bold-44"/>
     <use xlink:href="#Pretendard-Bold-65" x="70.117188"/>
     <use xlink:href="#Pretendard-Bold-74" x="127.539062"/>
     <use xlink:href="#Pretendard-Bold-65" x="164.550781"/>
     <use xlink:href="#Pretendard-Bold-63" x="221.972656"/>
     <use xlink:href="#Pretendard-Bold-74" x="278.320312"/>
     <use xlink:href="#Pretendard-Bold-69" x="315.332031"/>
     <use xlink:href="#Pretendard-Bold-6f" x="341.015625"/>
     <use xlink:href="#Pretendard-Bold-6e" x="400"/>
     <use xlink:href="#Pretendard-Bold-20" x="459.765625"/>
     <use xlink:href="#Pretendard-Bold-61" x="482.8125"/>
     <use xlink:href="#Pretendard-Bold-67" x="538.574219"/>
     <use xlink:href="#Pretendard-Bold-61" x="599.414062"/>
     <use xlink:href="#Pretendard-Bold-69" x="655.175781"/>
     <use xlink:href="#Pretendard-Bold-6e" x="680.859375"/>
     <use xlink:href="#Pretendard-Bold-73" x="740.625"/>
     <use xlink:href="#Pretendard-Bold-74" x="794.53125"/>
     <use xlink:href="#Pretendard-Bold-20" x="831.542969"/>
     <use xlink:href="#Pretendard-Bold-69" x="854.589844"/>
     <use xlink:href="#Pretendard-Bold-6e" x="880.273438"/>
     <use xlink:href="#Pretendard-Bold-64" x="940.039062"/>
     <use xlink:href="#Pretendard-Bold-65" x="1001.171875"/>
     <use xlink:href="#Pretendard-Bold-70" x="1058.59375"/>
     <use xlink:href="#Pretendard-Bold-65" x="1119.433594"/>
     <use xlink:href="#Pretendard-Bold-6e" x="1176.855469"/>
     <use xlink:href="#Pretendard-Bold-64" x="1236.621094"/>
     <use xlink:href="#Pretendard-Bold-65" x="1297.753906"/>
     <use xlink:href="#Pretendard-Bold-6e" x="1355.175781"/>
     <use xlink:href="#Pretendard-Bold-74" x="1414.941406"/>
     <use xlink:href="#Pretendard-Bold-20" x="1451.953125"/>
     <use xlink:href="#Pretendard-Bold-46" x="1475"/>
     <use xlink:href="#Pretendard-Bold-53" x="1531.25"/>
     <use xlink:href="#Pretendard-Bold-52" x="1594.238281"/>
    </g>
   </g>
  </g>
  <g id="axes_2">
   <g id="patch_13">
    <path d="M 109.8725 273.214378 
L 455.2709 273.214378 
L 455.2709 191.257622 
L 109.8725 191.257622 
z
" style="fill: #ffffff"/>
   </g>
   <g id="matplotlib.axis_3">
    <g id="xtick_6">
     <g id="line2d_13">
      <path d="M 109.8725 273.214378 
L 109.8725 191.257622 
" clip-path="url(#p4a993edcab)" style="fill: none; stroke: #dddddd; stroke-opacity: 0.3; stroke-width: 0.6; stroke-linecap: square"/>
     </g>
     <g id="line2d_14">
      <g>
       <use xlink:href="#m15316ccc91" x="109.8725" y="273.214378" style="stroke: #000000; stroke-width: 0.8"/>
      </g>
     </g>
     <g id="text_19">
      <!-- 0 -->
      <g transform="translate(107.489375 285.870628) scale(0.08 -0.08)">
       <use xlink:href="#Pretendard-Regular-30"/>
      </g>
     </g>
    </g>
    <g id="xtick_7">
     <g id="line2d_15">
      <path d="M 191.334387 273.214378 
L 191.334387 191.257622 
" clip-path="url(#p4a993edcab)" style="fill: none; stroke: #dddddd; stroke-opacity: 0.3; stroke-width: 0.6; stroke-linecap: square"/>
     </g>
     <g id="line2d_16">
      <g>
       <use xlink:href="#m15316ccc91" x="191.334387" y="273.214378" style="stroke: #000000; stroke-width: 0.8"/>
      </g>
     </g>
     <g id="text_20">
      <!-- 25 -->
      <g transform="translate(186.600012 285.870628) scale(0.08 -0.08)">
       <use xlink:href="#Pretendard-Regular-32"/>
       <use xlink:href="#Pretendard-Regular-35" x="58.691406"/>
      </g>
     </g>
    </g>
    <g id="xtick_8">
     <g id="line2d_17">
      <path d="M 272.796274 273.214378 
L 272.796274 191.257622 
" clip-path="url(#p4a993edcab)" style="fill: none; stroke: #dddddd; stroke-opacity: 0.3; stroke-width: 0.6; stroke-linecap: square"/>
     </g>
     <g id="line2d_18">
      <g>
       <use xlink:href="#m15316ccc91" x="272.796274" y="273.214378" style="stroke: #000000; stroke-width: 0.8"/>
      </g>
     </g>
     <g id="text_21">
      <!-- 50 -->
      <g transform="translate(268.026274 285.870628) scale(0.08 -0.08)">
       <use xlink:href="#Pretendard-Regular-35"/>
       <use xlink:href="#Pretendard-Regular-30" x="59.667969"/>
      </g>
     </g>
    </g>
    <g id="xtick_9">
     <g id="line2d_19">
      <path d="M 354.25816 273.214378 
L 354.25816 191.257622 
" clip-path="url(#p4a993edcab)" style="fill: none; stroke: #dddddd; stroke-opacity: 0.3; stroke-width: 0.6; stroke-linecap: square"/>
     </g>
     <g id="line2d_20">
      <g>
       <use xlink:href="#m15316ccc91" x="354.25816" y="273.214378" style="stroke: #000000; stroke-width: 0.8"/>
      </g>
     </g>
     <g id="text_22">
      <!-- 75 -->
      <g transform="translate(349.66441 285.870628) scale(0.08 -0.08)">
       <use xlink:href="#Pretendard-Regular-37"/>
       <use xlink:href="#Pretendard-Regular-35" x="55.175781"/>
      </g>
     </g>
    </g>
    <g id="xtick_10">
     <g id="line2d_21">
      <path d="M 435.720047 273.214378 
L 435.720047 191.257622 
" clip-path="url(#p4a993edcab)" style="fill: none; stroke: #dddddd; stroke-opacity: 0.3; stroke-width: 0.6; stroke-linecap: square"/>
     </g>
     <g id="line2d_22">
      <g>
       <use xlink:href="#m15316ccc91" x="435.720047" y="273.214378" style="stroke: #000000; stroke-width: 0.8"/>
      </g>
     </g>
     <g id="text_23">
      <!-- 100 -->
      <g transform="translate(429.200047 285.870628) scale(0.08 -0.08)">
       <use xlink:href="#Pretendard-Regular-31"/>
       <use xlink:href="#Pretendard-Regular-30" x="43.847656"/>
       <use xlink:href="#Pretendard-Regular-30" x="103.417969"/>
      </g>
     </g>
    </g>
    <g id="text_24">
     <!-- Rate [%] -->
     <g transform="translate(265.331778 298.100472) scale(0.09 -0.09)">
      <use xlink:href="#Pretendard-Regular-52"/>
      <use xlink:href="#Pretendard-Regular-61" x="60.839844"/>
      <use xlink:href="#Pretendard-Regular-74" x="114.355469"/>
      <use xlink:href="#Pretendard-Regular-65" x="148.339844"/>
      <use xlink:href="#Pretendard-Regular-20" x="203.613281"/>
      <use xlink:href="#Pretendard-Regular-5b" x="228.710938"/>
      <use xlink:href="#Pretendard-Regular-25" x="262.792969"/>
      <use xlink:href="#Pretendard-Regular-5d" x="349.023438"/>
     </g>
    </g>
   </g>
   <g id="matplotlib.axis_4">
    <g id="ytick_3">
     <g id="line2d_23">
      <g>
       <use xlink:href="#mab760c5c04" x="109.8725" y="212.420537" style="stroke: #000000; stroke-width: 0.8"/>
      </g>
     </g>
     <g id="text_25">
      <!-- Prediction-first application -->
      <g transform="translate(8.26625 215.381787) scale(0.08 -0.08)">
       <defs>
        <path id="Pretendard-Regular-50" d="M 500 0 
L 1063 0 
L 1063 1644 
L 2044 1644 
C 3100 1644 3581 2288 3581 3088 
C 3581 3894 3100 4525 2038 4525 
L 500 4525 
L 500 0 
z
M 1063 2144 
L 1063 4025 
L 2013 4025 
C 2738 4025 3025 3631 3025 3088 
C 3025 2550 2738 2144 2019 2144 
L 1063 2144 
z
" transform="scale(0.015625)"/>
        <path id="Pretendard-Regular-66" d="M 1950 3394 
L 1200 3394 
L 1200 3738 
C 1200 4088 1369 4244 1744 4244 
C 1813 4244 1913 4238 2025 4219 
L 2025 4700 
C 1913 4719 1756 4738 1625 4738 
C 1025 4738 656 4406 656 3856 
L 656 3394 
L 113 3394 
L 113 2944 
L 656 2944 
L 656 0 
L 1200 0 
L 1200 2944 
L 1950 2944 
L 1950 3394 
z
" transform="scale(0.015625)"/>
        <path id="Pretendard-Regular-73" d="M 2319 2513 
L 2844 2513 
C 2775 3063 2331 3438 1631 3438 
C 881 3438 375 3019 375 2438 
C 375 1988 688 1663 1281 1525 
L 1794 1406 
C 2181 1319 2350 1156 2350 919 
C 2350 600 2044 400 1563 400 
C 1138 400 894 556 831 888 
L 269 888 
C 356 269 813 -69 1575 -69 
C 2425 -69 2906 363 2906 950 
C 2906 1425 2606 1725 2000 1869 
L 1494 1994 
C 1094 2088 913 2244 913 2469 
C 913 2756 1213 2981 1631 2981 
C 2031 2981 2244 2794 2319 2513 
z
" transform="scale(0.015625)"/>
        <path id="Pretendard-Regular-70" d="M 431 -1275 
L 969 -1275 
L 969 519 
L 1013 519 
C 1125 331 1350 -69 2000 -69 
C 2844 -69 3438 613 3438 1688 
C 3438 2763 2844 3438 1994 3438 
C 1338 3438 1125 3038 1013 2856 
L 950 2856 
L 950 3394 
L 431 3394 
L 431 -1275 
z
M 956 1700 
C 956 2450 1288 2956 1925 2956 
C 2575 2956 2900 2406 2900 1700 
C 2900 975 2569 413 1925 413 
C 1300 413 956 938 956 1700 
z
" transform="scale(0.015625)"/>
       </defs>
       <use xlink:href="#Pretendard-Regular-50"/>
       <use xlink:href="#Pretendard-Regular-72" x="60.449219"/>
       <use xlink:href="#Pretendard-Regular-65" x="95.410156"/>
       <use xlink:href="#Pretendard-Regular-64" x="150.683594"/>
       <use xlink:href="#Pretendard-Regular-69" x="209.765625"/>
       <use xlink:href="#Pretendard-Regular-63" x="231.542969"/>
       <use xlink:href="#Pretendard-Regular-74" x="284.472656"/>
       <use xlink:href="#Pretendard-Regular-69" x="318.457031"/>
       <use xlink:href="#Pretendard-Regular-6f" x="340.234375"/>
       <use xlink:href="#Pretendard-Regular-6e" x="396.972656"/>
       <use xlink:href="#Pretendard-Regular-2d" x="452.636719"/>
       <use xlink:href="#Pretendard-Regular-66" x="495.898438"/>
       <use xlink:href="#Pretendard-Regular-69" x="529.589844"/>
       <use xlink:href="#Pretendard-Regular-72" x="551.367188"/>
       <use xlink:href="#Pretendard-Regular-73" x="586.328125"/>
       <use xlink:href="#Pretendard-Regular-74" x="635.9375"/>
       <use xlink:href="#Pretendard-Regular-20" x="669.921875"/>
       <use xlink:href="#Pretendard-Regular-61" x="695.019531"/>
       <use xlink:href="#Pretendard-Regular-70" x="748.535156"/>
       <use xlink:href="#Pretendard-Regular-70" x="806.445312"/>
       <use xlink:href="#Pretendard-Regular-6c" x="864.355469"/>
       <use xlink:href="#Pretendard-Regular-69" x="886.132812"/>
       <use xlink:href="#Pretendard-Regular-63" x="907.910156"/>
       <use xlink:href="#Pretendard-Regular-61" x="960.839844"/>
       <use xlink:href="#Pretendard-Regular-74" x="1014.355469"/>
       <use xlink:href="#Pretendard-Regular-69" x="1048.339844"/>
       <use xlink:href="#Pretendard-Regular-6f" x="1070.117188"/>
       <use xlink:href="#Pretendard-Regular-6e" x="1126.855469"/>
      </g>
     </g>
    </g>
    <g id="ytick_4">
     <g id="line2d_24">
      <g>
       <use xlink:href="#mab760c5c04" x="109.8725" y="252.051463" style="stroke: #000000; stroke-width: 0.8"/>
      </g>
     </g>
     <g id="text_26">
      <!-- Delayed-real reconciliation -->
      <g transform="translate(7.2 254.969588) scale(0.08 -0.08)">
       <defs>
        <path id="Pretendard-Regular-44" d="M 1906 0 
C 3281 0 4063 856 4063 2269 
C 4063 3675 3281 4525 1963 4525 
L 500 4525 
L 500 0 
L 1906 0 
z
M 1063 500 
L 1063 4025 
L 1925 4025 
C 2981 4025 3513 3363 3513 2269 
C 3513 1169 2981 500 1869 500 
L 1063 500 
z
" transform="scale(0.015625)"/>
        <path id="Pretendard-Regular-79" d="M 775 -1275 
C 1256 -1275 1588 -1019 1788 -488 
L 3225 3394 
L 2638 3394 
L 1713 700 
L 1675 700 
L 750 3394 
L 163 3394 
L 1419 -25 
L 1319 -281 
C 1138 -775 956 -794 738 -794 
C 656 -794 531 -788 475 -781 
L 475 -1263 
C 544 -1269 656 -1275 775 -1275 
z
" transform="scale(0.015625)"/>
       </defs>
       <use xlink:href="#Pretendard-Regular-44"/>
       <use xlink:href="#Pretendard-Regular-65" x="68.554688"/>
       <use xlink:href="#Pretendard-Regular-6c" x="123.828125"/>
       <use xlink:href="#Pretendard-Regular-61" x="145.605469"/>
       <use xlink:href="#Pretendard-Regular-79" x="199.121094"/>
       <use xlink:href="#Pretendard-Regular-65" x="252.050781"/>
       <use xlink:href="#Pretendard-Regular-64" x="307.324219"/>
       <use xlink:href="#Pretendard-Regular-2d" x="366.40625"/>
       <use xlink:href="#Pretendard-Regular-72" x="409.667969"/>
       <use xlink:href="#Pretendard-Regular-65" x="444.628906"/>
       <use xlink:href="#Pretendard-Regular-61" x="499.902344"/>
       <use xlink:href="#Pretendard-Regular-6c" x="553.417969"/>
       <use xlink:href="#Pretendard-Regular-20" x="575.195312"/>
       <use xlink:href="#Pretendard-Regular-72" x="600.292969"/>
       <use xlink:href="#Pretendard-Regular-65" x="635.253906"/>
       <use xlink:href="#Pretendard-Regular-63" x="690.527344"/>
       <use xlink:href="#Pretendard-Regular-6f" x="743.457031"/>
       <use xlink:href="#Pretendard-Regular-6e" x="800.195312"/>
       <use xlink:href="#Pretendard-Regular-63" x="855.859375"/>
       <use xlink:href="#Pretendard-Regular-69" x="908.789062"/>
       <use xlink:href="#Pretendard-Regular-6c" x="930.566406"/>
       <use xlink:href="#Pretendard-Regular-69" x="952.34375"/>
       <use xlink:href="#Pretendard-Regular-61" x="974.121094"/>
       <use xlink:href="#Pretendard-Regular-74" x="1027.636719"/>
       <use xlink:href="#Pretendard-Regular-69" x="1061.621094"/>
       <use xlink:href="#Pretendard-Regular-6f" x="1083.398438"/>
       <use xlink:href="#Pretendard-Regular-6e" x="1140.136719"/>
      </g>
     </g>
    </g>
   </g>
   <g id="patch_14">
    <path d="M 109.8725 229.858144 
L 141.598779 229.858144 
L 141.598779 223.517196 
L 109.8725 223.517196 
z
" clip-path="url(#p4a993edcab)" style="fill: #ffffff; stroke: #d55e00; stroke-width: 1.3; stroke-linejoin: miter"/>
   </g>
   <g id="patch_15">
    <path d="M 109.8725 222.724578 
L 149.62813 222.724578 
L 149.62813 216.383629 
L 109.8725 216.383629 
z
" clip-path="url(#p4a993edcab)" style="fill: #ffffff; stroke: #009e73; stroke-width: 1.3; stroke-linejoin: miter"/>
   </g>
   <g id="patch_16">
    <path d="M 109.8725 208.457444 
L 183.037596 208.457444 
L 183.037596 202.116496 
L 109.8725 202.116496 
z
" clip-path="url(#p4a993edcab)" style="fill: #d55e00; opacity: 0.82"/>
   </g>
   <g id="patch_17">
    <path d="M 109.8725 201.323877 
L 162.225339 201.323877 
L 162.225339 194.982929 
L 109.8725 194.982929 
z
" clip-path="url(#p4a993edcab)" style="fill: #009e73; opacity: 0.82"/>
   </g>
   <g id="patch_18">
    <path d="M 109.8725 269.489071 
L 431.886547 269.489071 
L 431.886547 263.148123 
L 109.8725 263.148123 
z
" clip-path="url(#p4a993edcab)" style="fill: #ffffff; stroke: #d55e00; stroke-width: 1.3; stroke-linejoin: miter"/>
   </g>
   <g id="patch_19">
    <path d="M 109.8725 262.355504 
L 432.674743 262.355504 
L 432.674743 256.014556 
L 109.8725 256.014556 
z
" clip-path="url(#p4a993edcab)" style="fill: #ffffff; stroke: #009e73; stroke-width: 1.3; stroke-linejoin: miter"/>
   </g>
   <g id="patch_20">
    <path d="M 109.8725 248.088371 
L 387.42827 248.088371 
L 387.42827 241.747422 
L 109.8725 241.747422 
z
" clip-path="url(#p4a993edcab)" style="fill: #d55e00; opacity: 0.82"/>
   </g>
   <g id="patch_21">
    <path d="M 109.8725 240.954804 
L 422.875434 240.954804 
L 422.875434 234.613856 
L 109.8725 234.613856 
z
" clip-path="url(#p4a993edcab)" style="fill: #009e73; opacity: 0.82"/>
   </g>
   <g id="patch_22">
    <path d="M 109.8725 273.214378 
L 109.8725 191.257622 
" style="fill: none; stroke: #000000; stroke-width: 0.8; stroke-linejoin: miter; stroke-linecap: square"/>
   </g>
   <g id="patch_23">
    <path d="M 109.8725 273.214378 
L 455.2709 273.214378 
" style="fill: none; stroke: #000000; stroke-width: 0.8; stroke-linejoin: miter; stroke-linecap: square"/>
   </g>
   <g id="text_27">
    <!-- 9.7 -->
    <g style="fill: #d55e00" transform="translate(145.50895 228.160326) scale(0.058 -0.058)">
     <use xlink:href="#Pretendard-Regular-39"/>
     <use xlink:href="#Pretendard-Regular-2e" x="61.328125"/>
     <use xlink:href="#Pretendard-Regular-37" x="86.71875"/>
    </g>
   </g>
   <g id="text_28">
    <!-- 12.2 -->
    <g style="fill: #009e73" transform="translate(153.538301 221.02676) scale(0.058 -0.058)">
     <use xlink:href="#Pretendard-Regular-31"/>
     <use xlink:href="#Pretendard-Regular-32" x="43.847656"/>
     <use xlink:href="#Pretendard-Regular-2e" x="102.539062"/>
     <use xlink:href="#Pretendard-Regular-32" x="127.929688"/>
    </g>
   </g>
   <g id="text_29">
    <!-- 22.5 -->
    <g style="fill: #d55e00" transform="translate(186.947767 206.759626) scale(0.058 -0.058)">
     <use xlink:href="#Pretendard-Regular-32"/>
     <use xlink:href="#Pretendard-Regular-32" x="58.691406"/>
     <use xlink:href="#Pretendard-Regular-2e" x="117.382812"/>
     <use xlink:href="#Pretendard-Regular-35" x="142.773438"/>
    </g>
   </g>
   <g id="text_30">
    <!-- 16.1 -->
    <g style="fill: #009e73" transform="translate(166.13551 199.626059) scale(0.058 -0.058)">
     <use xlink:href="#Pretendard-Regular-31"/>
     <use xlink:href="#Pretendard-Regular-36" x="43.847656"/>
     <use xlink:href="#Pretendard-Regular-2e" x="105.175781"/>
     <use xlink:href="#Pretendard-Regular-31" x="130.566406"/>
    </g>
   </g>
   <g id="text_31">
    <!-- 98.8 -->
    <g style="fill: #d55e00" transform="translate(435.796717 267.791253) scale(0.058 -0.058)">
     <use xlink:href="#Pretendard-Regular-39"/>
     <use xlink:href="#Pretendard-Regular-38" x="61.328125"/>
     <use xlink:href="#Pretendard-Regular-2e" x="121.972656"/>
     <use xlink:href="#Pretendard-Regular-38" x="147.363281"/>
    </g>
   </g>
   <g id="text_32">
    <!-- 99.1 -->
    <g style="fill: #009e73" transform="translate(436.584914 260.657687) scale(0.058 -0.058)">
     <use xlink:href="#Pretendard-Regular-39"/>
     <use xlink:href="#Pretendard-Regular-39" x="61.328125"/>
     <use xlink:href="#Pretendard-Regular-2e" x="122.65625"/>
     <use xlink:href="#Pretendard-Regular-31" x="148.046875"/>
    </g>
   </g>
   <g id="text_33">
    <!-- 85.2 -->
    <g style="fill: #d55e00" transform="translate(391.338441 246.390553) scale(0.058 -0.058)">
     <use xlink:href="#Pretendard-Regular-38"/>
     <use xlink:href="#Pretendard-Regular-35" x="60.644531"/>
     <use xlink:href="#Pretendard-Regular-2e" x="120.3125"/>
     <use xlink:href="#Pretendard-Regular-32" x="145.703125"/>
    </g>
   </g>
   <g id="text_34">
    <!-- 96.1 -->
    <g style="fill: #009e73" transform="translate(426.785605 239.256986) scale(0.058 -0.058)">
     <use xlink:href="#Pretendard-Regular-39"/>
     <use xlink:href="#Pretendard-Regular-36" x="61.328125"/>
     <use xlink:href="#Pretendard-Regular-2e" x="122.65625"/>
     <use xlink:href="#Pretendard-Regular-31" x="148.046875"/>
    </g>
   </g>
   <g id="text_35">
    <!-- B -->
    <g transform="translate(89.148596 184.447638) scale(0.095 -0.095)">
     <defs>
      <path id="Pretendard-Bold-42" d="M 381 0 
L 2300 0 
C 3325 0 3863 531 3863 1250 
C 3863 1919 3381 2325 2869 2350 
L 2869 2394 
C 3338 2500 3681 2831 3681 3363 
C 3681 4044 3181 4525 2181 4525 
L 381 4525 
L 381 0 
z
M 2113 775 
L 1319 775 
L 1319 1988 
L 2138 1988 
C 2600 1988 2888 1719 2888 1338 
C 2888 1000 2656 775 2113 775 
z
M 2044 2631 
L 1319 2631 
L 1319 3763 
L 2063 3763 
C 2494 3763 2731 3538 2731 3213 
C 2731 2850 2438 2631 2044 2631 
z
" transform="scale(0.015625)"/>
     </defs>
     <use xlink:href="#Pretendard-Bold-42"/>
    </g>
   </g>
   <g id="text_36">
    <!-- Online ordering and delayed recovery -->
    <g transform="translate(211.783575 184.257622) scale(0.08 -0.08)">
     <defs>
      <path id="Pretendard-Bold-4f" d="M 4525 2263 
C 4525 3738 3606 4588 2413 4588 
C 1206 4588 294 3738 294 2263 
C 294 794 1206 -63 2413 -63 
C 3606 -63 4525 788 4525 2263 
z
M 3569 2263 
C 3569 1294 3113 769 2413 769 
C 1713 769 1250 1294 1250 2263 
C 1250 3231 1713 3756 2413 3756 
C 3113 3756 3569 3231 3569 2263 
z
" transform="scale(0.015625)"/>
      <path id="Pretendard-Bold-6c" d="M 1288 4525 
L 363 4525 
L 363 0 
L 1288 0 
L 1288 4525 
z
" transform="scale(0.015625)"/>
      <path id="Pretendard-Bold-72" d="M 363 0 
L 1288 0 
L 1288 1931 
C 1288 2344 1594 2638 2013 2638 
C 2144 2638 2319 2613 2406 2588 
L 2406 3413 
C 2325 3431 2206 3444 2113 3444 
C 1731 3444 1419 3225 1294 2806 
L 1256 2806 
L 1256 3394 
L 363 3394 
L 363 0 
z
" transform="scale(0.015625)"/>
      <path id="Pretendard-Bold-79" d="M 906 -1275 
C 1625 -1275 1994 -919 2188 -375 
L 3513 3394 
L 2531 3394 
L 1813 894 
L 1775 894 
L 1063 3394 
L 94 3394 
L 1313 -94 
L 1256 -238 
C 1144 -531 994 -550 813 -550 
C 694 -550 556 -544 438 -538 
L 438 -1256 
C 556 -1269 725 -1275 906 -1275 
z
" transform="scale(0.015625)"/>
      <path id="Pretendard-Bold-76" d="M 3513 3394 
L 2531 3394 
L 1819 956 
L 1781 956 
L 1069 3394 
L 94 3394 
L 1281 0 
L 2319 0 
L 3513 3394 
z
" transform="scale(0.015625)"/>
     </defs>
     <use xlink:href="#Pretendard-Bold-4f"/>
     <use xlink:href="#Pretendard-Bold-6e" x="75.292969"/>
     <use xlink:href="#Pretendard-Bold-6c" x="135.058594"/>
     <use xlink:href="#Pretendard-Bold-69" x="160.742188"/>
     <use xlink:href="#Pretendard-Bold-6e" x="186.425781"/>
     <use xlink:href="#Pretendard-Bold-65" x="246.191406"/>
     <use xlink:href="#Pretendard-Bold-20" x="303.613281"/>
     <use xlink:href="#Pretendard-Bold-6f" x="326.660156"/>
     <use xlink:href="#Pretendard-Bold-72" x="385.644531"/>
     <use xlink:href="#Pretendard-Bold-64" x="424.609375"/>
     <use xlink:href="#Pretendard-Bold-65" x="485.742188"/>
     <use xlink:href="#Pretendard-Bold-72" x="543.164062"/>
     <use xlink:href="#Pretendard-Bold-69" x="582.128906"/>
     <use xlink:href="#Pretendard-Bold-6e" x="607.8125"/>
     <use xlink:href="#Pretendard-Bold-67" x="667.578125"/>
     <use xlink:href="#Pretendard-Bold-20" x="728.417969"/>
     <use xlink:href="#Pretendard-Bold-61" x="751.464844"/>
     <use xlink:href="#Pretendard-Bold-6e" x="807.226562"/>
     <use xlink:href="#Pretendard-Bold-64" x="866.992188"/>
     <use xlink:href="#Pretendard-Bold-20" x="928.125"/>
     <use xlink:href="#Pretendard-Bold-64" x="951.171875"/>
     <use xlink:href="#Pretendard-Bold-65" x="1012.304688"/>
     <use xlink:href="#Pretendard-Bold-6c" x="1069.726562"/>
     <use xlink:href="#Pretendard-Bold-61" x="1095.410156"/>
     <use xlink:href="#Pretendard-Bold-79" x="1151.171875"/>
     <use xlink:href="#Pretendard-Bold-65" x="1207.421875"/>
     <use xlink:href="#Pretendard-Bold-64" x="1264.84375"/>
     <use xlink:href="#Pretendard-Bold-20" x="1325.976562"/>
     <use xlink:href="#Pretendard-Bold-72" x="1349.023438"/>
     <use xlink:href="#Pretendard-Bold-65" x="1387.988281"/>
     <use xlink:href="#Pretendard-Bold-63" x="1445.410156"/>
     <use xlink:href="#Pretendard-Bold-6f" x="1501.757812"/>
     <use xlink:href="#Pretendard-Bold-76" x="1560.742188"/>
     <use xlink:href="#Pretendard-Bold-65" x="1616.992188"/>
     <use xlink:href="#Pretendard-Bold-72" x="1674.414062"/>
     <use xlink:href="#Pretendard-Bold-79" x="1713.378906"/>
    </g>
   </g>
  </g>
  <g id="axes_3">
   <g id="patch_24">
    <path d="M 109.8725 414.18 
L 455.2709 414.18 
L 455.2709 332.223243 
L 109.8725 332.223243 
z
" style="fill: #ffffff"/>
   </g>
   <g id="matplotlib.axis_5">
    <g id="xtick_11">
     <g id="line2d_25">
      <path d="M 109.8725 414.18 
L 109.8725 332.223243 
" clip-path="url(#pa80ccfb299)" style="fill: none; stroke: #dddddd; stroke-opacity: 0.3; stroke-width: 0.6; stroke-linecap: square"/>
     </g>
     <g id="line2d_26">
      <g>
       <use xlink:href="#m15316ccc91" x="109.8725" y="414.18" style="stroke: #000000; stroke-width: 0.8"/>
      </g>
     </g>
     <g id="text_37">
      <!-- 0 -->
      <g transform="translate(107.489375 426.83625) scale(0.08 -0.08)">
       <use xlink:href="#Pretendard-Regular-30"/>
      </g>
     </g>
    </g>
    <g id="xtick_12">
     <g id="line2d_27">
      <path d="M 191.334387 414.18 
L 191.334387 332.223243 
" clip-path="url(#pa80ccfb299)" style="fill: none; stroke: #dddddd; stroke-opacity: 0.3; stroke-width: 0.6; stroke-linecap: square"/>
     </g>
     <g id="line2d_28">
      <g>
       <use xlink:href="#m15316ccc91" x="191.334387" y="414.18" style="stroke: #000000; stroke-width: 0.8"/>
      </g>
     </g>
     <g id="text_38">
      <!-- 25 -->
      <g transform="translate(186.600012 426.83625) scale(0.08 -0.08)">
       <use xlink:href="#Pretendard-Regular-32"/>
       <use xlink:href="#Pretendard-Regular-35" x="58.691406"/>
      </g>
     </g>
    </g>
    <g id="xtick_13">
     <g id="line2d_29">
      <path d="M 272.796274 414.18 
L 272.796274 332.223243 
" clip-path="url(#pa80ccfb299)" style="fill: none; stroke: #dddddd; stroke-opacity: 0.3; stroke-width: 0.6; stroke-linecap: square"/>
     </g>
     <g id="line2d_30">
      <g>
       <use xlink:href="#m15316ccc91" x="272.796274" y="414.18" style="stroke: #000000; stroke-width: 0.8"/>
      </g>
     </g>
     <g id="text_39">
      <!-- 50 -->
      <g transform="translate(268.026274 426.83625) scale(0.08 -0.08)">
       <use xlink:href="#Pretendard-Regular-35"/>
       <use xlink:href="#Pretendard-Regular-30" x="59.667969"/>
      </g>
     </g>
    </g>
    <g id="xtick_14">
     <g id="line2d_31">
      <path d="M 354.25816 414.18 
L 354.25816 332.223243 
" clip-path="url(#pa80ccfb299)" style="fill: none; stroke: #dddddd; stroke-opacity: 0.3; stroke-width: 0.6; stroke-linecap: square"/>
     </g>
     <g id="line2d_32">
      <g>
       <use xlink:href="#m15316ccc91" x="354.25816" y="414.18" style="stroke: #000000; stroke-width: 0.8"/>
      </g>
     </g>
     <g id="text_40">
      <!-- 75 -->
      <g transform="translate(349.66441 426.83625) scale(0.08 -0.08)">
       <use xlink:href="#Pretendard-Regular-37"/>
       <use xlink:href="#Pretendard-Regular-35" x="55.175781"/>
      </g>
     </g>
    </g>
    <g id="xtick_15">
     <g id="line2d_33">
      <path d="M 435.720047 414.18 
L 435.720047 332.223243 
" clip-path="url(#pa80ccfb299)" style="fill: none; stroke: #dddddd; stroke-opacity: 0.3; stroke-width: 0.6; stroke-linecap: square"/>
     </g>
     <g id="line2d_34">
      <g>
       <use xlink:href="#m15316ccc91" x="435.720047" y="414.18" style="stroke: #000000; stroke-width: 0.8"/>
      </g>
     </g>
     <g id="text_41">
      <!-- 100 -->
      <g transform="translate(429.200047 426.83625) scale(0.08 -0.08)">
       <use xlink:href="#Pretendard-Regular-31"/>
       <use xlink:href="#Pretendard-Regular-30" x="43.847656"/>
       <use xlink:href="#Pretendard-Regular-30" x="103.417969"/>
      </g>
     </g>
    </g>
    <g id="text_42">
     <!-- Rate [%] -->
     <g transform="translate(265.331778 439.066094) scale(0.09 -0.09)">
      <use xlink:href="#Pretendard-Regular-52"/>
      <use xlink:href="#Pretendard-Regular-61" x="60.839844"/>
      <use xlink:href="#Pretendard-Regular-74" x="114.355469"/>
      <use xlink:href="#Pretendard-Regular-65" x="148.339844"/>
      <use xlink:href="#Pretendard-Regular-20" x="203.613281"/>
      <use xlink:href="#Pretendard-Regular-5b" x="228.710938"/>
      <use xlink:href="#Pretendard-Regular-25" x="262.792969"/>
      <use xlink:href="#Pretendard-Regular-5d" x="349.023438"/>
     </g>
    </g>
   </g>
   <g id="matplotlib.axis_6">
    <g id="ytick_5">
     <g id="line2d_35">
      <g>
       <use xlink:href="#mab760c5c04" x="109.8725" y="353.386158" style="stroke: #000000; stroke-width: 0.8"/>
      </g>
     </g>
     <g id="text_43">
      <!-- Accepted / eventual real -->
      <g transform="translate(15.67875 356.347408) scale(0.08 -0.08)">
       <defs>
        <path id="Pretendard-Regular-41" d="M 700 0 
L 1156 1275 
L 2975 1275 
L 3425 0 
L 4019 0 
L 2363 4525 
L 1769 4525 
L 113 0 
L 700 0 
z
M 1325 1769 
L 2044 3794 
L 2081 3794 
L 2800 1769 
L 1325 1769 
z
" transform="scale(0.015625)"/>
        <path id="Pretendard-Regular-2f" d="M 2044 4738 
L 1550 4738 
L 94 -681 
L 581 -681 
L 2044 4738 
z
" transform="scale(0.015625)"/>
       </defs>
       <use xlink:href="#Pretendard-Regular-41"/>
       <use xlink:href="#Pretendard-Regular-63" x="64.550781"/>
       <use xlink:href="#Pretendard-Regular-63" x="117.480469"/>
       <use xlink:href="#Pretendard-Regular-65" x="170.410156"/>
       <use xlink:href="#Pretendard-Regular-70" x="225.683594"/>
       <use xlink:href="#Pretendard-Regular-74" x="283.59375"/>
       <use xlink:href="#Pretendard-Regular-65" x="317.578125"/>
       <use xlink:href="#Pretendard-Regular-64" x="372.851562"/>
       <use xlink:href="#Pretendard-Regular-20" x="431.933594"/>
       <use xlink:href="#Pretendard-Regular-2f" x="457.03125"/>
       <use xlink:href="#Pretendard-Regular-20" x="490.429688"/>
       <use xlink:href="#Pretendard-Regular-65" x="515.527344"/>
       <use xlink:href="#Pretendard-Regular-76" x="570.800781"/>
       <use xlink:href="#Pretendard-Regular-65" x="623.730469"/>
       <use xlink:href="#Pretendard-Regular-6e" x="679.003906"/>
       <use xlink:href="#Pretendard-Regular-74" x="734.667969"/>
       <use xlink:href="#Pretendard-Regular-75" x="768.652344"/>
       <use xlink:href="#Pretendard-Regular-61" x="823.925781"/>
       <use xlink:href="#Pretendard-Regular-6c" x="877.441406"/>
       <use xlink:href="#Pretendard-Regular-20" x="899.21875"/>
       <use xlink:href="#Pretendard-Regular-72" x="924.316406"/>
       <use xlink:href="#Pretendard-Regular-65" x="959.277344"/>
       <use xlink:href="#Pretendard-Regular-61" x="1014.550781"/>
       <use xlink:href="#Pretendard-Regular-6c" x="1068.066406"/>
      </g>
     </g>
    </g>
    <g id="ytick_6">
     <g id="line2d_36">
      <g>
       <use xlink:href="#mab760c5c04" x="109.8725" y="393.017085" style="stroke: #000000; stroke-width: 0.8"/>
      </g>
     </g>
     <g id="text_44">
      <!-- Accepted / source 1 -->
      <g transform="translate(31.72875 395.978335) scale(0.08 -0.08)">
       <use xlink:href="#Pretendard-Regular-41"/>
       <use xlink:href="#Pretendard-Regular-63" x="64.550781"/>
       <use xlink:href="#Pretendard-Regular-63" x="117.480469"/>
       <use xlink:href="#Pretendard-Regular-65" x="170.410156"/>
       <use xlink:href="#Pretendard-Regular-70" x="225.683594"/>
       <use xlink:href="#Pretendard-Regular-74" x="283.59375"/>
       <use xlink:href="#Pretendard-Regular-65" x="317.578125"/>
       <use xlink:href="#Pretendard-Regular-64" x="372.851562"/>
       <use xlink:href="#Pretendard-Regular-20" x="431.933594"/>
       <use xlink:href="#Pretendard-Regular-2f" x="457.03125"/>
       <use xlink:href="#Pretendard-Regular-20" x="490.429688"/>
       <use xlink:href="#Pretendard-Regular-73" x="515.527344"/>
       <use xlink:href="#Pretendard-Regular-6f" x="565.136719"/>
       <use xlink:href="#Pretendard-Regular-75" x="621.875"/>
       <use xlink:href="#Pretendard-Regular-72" x="677.148438"/>
       <use xlink:href="#Pretendard-Regular-63" x="712.109375"/>
       <use xlink:href="#Pretendard-Regular-65" x="765.039062"/>
       <use xlink:href="#Pretendard-Regular-20" x="820.3125"/>
       <use xlink:href="#Pretendard-Regular-31" x="845.410156"/>
      </g>
     </g>
    </g>
   </g>
   <g id="patch_25">
    <path d="M 109.8725 370.823766 
L 385.647144 370.823766 
L 385.647144 364.482818 
L 109.8725 364.482818 
z
" clip-path="url(#pa80ccfb299)" style="fill: #ffffff; stroke: #d55e00; stroke-width: 1.3; stroke-linejoin: miter"/>
   </g>
   <g id="patch_26">
    <path d="M 109.8725 363.690199 
L 381.784095 363.690199 
L 381.784095 357.349251 
L 109.8725 357.349251 
z
" clip-path="url(#pa80ccfb299)" style="fill: #ffffff; stroke: #009e73; stroke-width: 1.3; stroke-linejoin: miter"/>
   </g>
   <g id="patch_27">
    <path d="M 109.8725 349.423066 
L 355.164551 349.423066 
L 355.164551 343.082117 
L 109.8725 343.082117 
z
" clip-path="url(#pa80ccfb299)" style="fill: #d55e00; opacity: 0.82"/>
   </g>
   <g id="patch_28">
    <path d="M 109.8725 342.289499 
L 346.852534 342.289499 
L 346.852534 335.94855 
L 109.8725 335.94855 
z
" clip-path="url(#pa80ccfb299)" style="fill: #009e73; opacity: 0.82"/>
   </g>
   <g id="patch_29">
    <path d="M 109.8725 410.454693 
L 415.044441 410.454693 
L 415.044441 404.113745 
L 109.8725 404.113745 
z
" clip-path="url(#pa80ccfb299)" style="fill: #ffffff; stroke: #d55e00; stroke-width: 1.3; stroke-linejoin: miter"/>
   </g>
   <g id="patch_30">
    <path d="M 109.8725 403.321126 
L 419.21608 403.321126 
L 419.21608 396.980178 
L 109.8725 396.980178 
z
" clip-path="url(#pa80ccfb299)" style="fill: #ffffff; stroke: #009e73; stroke-width: 1.3; stroke-linejoin: miter"/>
   </g>
   <g id="patch_31">
    <path d="M 109.8725 389.053992 
L 415.663544 389.053992 
L 415.663544 382.713044 
L 109.8725 382.713044 
z
" clip-path="url(#pa80ccfb299)" style="fill: #d55e00; opacity: 0.82"/>
   </g>
   <g id="patch_32">
    <path d="M 109.8725 381.920426 
L 390.427497 381.920426 
L 390.427497 375.579477 
L 109.8725 375.579477 
z
" clip-path="url(#pa80ccfb299)" style="fill: #009e73; opacity: 0.82"/>
   </g>
   <g id="patch_33">
    <path d="M 109.8725 414.18 
L 109.8725 332.223243 
" style="fill: none; stroke: #000000; stroke-width: 0.8; stroke-linejoin: miter; stroke-linecap: square"/>
   </g>
   <g id="patch_34">
    <path d="M 109.8725 414.18 
L 455.2709 414.18 
" style="fill: none; stroke: #000000; stroke-width: 0.8; stroke-linejoin: miter; stroke-linecap: square"/>
   </g>
   <g id="text_45">
    <!-- 84.6 -->
    <g style="fill: #d55e00" transform="translate(389.557315 369.125948) scale(0.058 -0.058)">
     <use xlink:href="#Pretendard-Regular-38"/>
     <use xlink:href="#Pretendard-Regular-34" x="60.644531"/>
     <use xlink:href="#Pretendard-Regular-2e" x="123.046875"/>
     <use xlink:href="#Pretendard-Regular-36" x="148.4375"/>
    </g>
   </g>
   <g id="text_46">
    <!-- 83.4 -->
    <g style="fill: #009e73" transform="translate(385.694265 361.992381) scale(0.058 -0.058)">
     <defs>
      <path id="Pretendard-Regular-33" d="M 1988 -63 
C 2888 -63 3569 488 3563 1231 
C 3569 1806 3206 2225 2619 2319 
L 2619 2350 
C 3094 2481 3394 2863 3388 3375 
C 3394 4025 2869 4588 2006 4588 
C 1200 4588 538 4106 506 3388 
L 1050 3388 
C 1075 3831 1519 4100 2000 4100 
C 2513 4100 2844 3794 2844 3344 
C 2844 2875 2463 2569 1913 2569 
L 1544 2569 
L 1544 2075 
L 1913 2075 
C 2619 2075 3013 1725 3013 1231 
C 3013 763 2575 438 1981 438 
C 1444 438 1013 706 981 1138 
L 413 1138 
C 444 419 1088 -63 1988 -63 
z
" transform="scale(0.015625)"/>
     </defs>
     <use xlink:href="#Pretendard-Regular-38"/>
     <use xlink:href="#Pretendard-Regular-33" x="60.644531"/>
     <use xlink:href="#Pretendard-Regular-2e" x="122.363281"/>
     <use xlink:href="#Pretendard-Regular-34" x="147.753906"/>
    </g>
   </g>
   <g id="text_47">
    <!-- 75.3 -->
    <g style="fill: #d55e00" transform="translate(359.074722 347.725248) scale(0.058 -0.058)">
     <use xlink:href="#Pretendard-Regular-37"/>
     <use xlink:href="#Pretendard-Regular-35" x="55.175781"/>
     <use xlink:href="#Pretendard-Regular-2e" x="114.84375"/>
     <use xlink:href="#Pretendard-Regular-33" x="140.234375"/>
    </g>
   </g>
   <g id="text_48">
    <!-- 72.7 -->
    <g style="fill: #009e73" transform="translate(350.762705 340.591681) scale(0.058 -0.058)">
     <use xlink:href="#Pretendard-Regular-37"/>
     <use xlink:href="#Pretendard-Regular-32" x="55.175781"/>
     <use xlink:href="#Pretendard-Regular-2e" x="113.867188"/>
     <use xlink:href="#Pretendard-Regular-37" x="139.257812"/>
    </g>
   </g>
   <g id="text_49">
    <!-- 93.7 -->
    <g style="fill: #d55e00" transform="translate(418.954612 408.756875) scale(0.058 -0.058)">
     <use xlink:href="#Pretendard-Regular-39"/>
     <use xlink:href="#Pretendard-Regular-33" x="61.328125"/>
     <use xlink:href="#Pretendard-Regular-2e" x="123.046875"/>
     <use xlink:href="#Pretendard-Regular-37" x="148.4375"/>
    </g>
   </g>
   <g id="text_50">
    <!-- 94.9 -->
    <g style="fill: #009e73" transform="translate(423.126251 401.623308) scale(0.058 -0.058)">
     <use xlink:href="#Pretendard-Regular-39"/>
     <use xlink:href="#Pretendard-Regular-34" x="61.328125"/>
     <use xlink:href="#Pretendard-Regular-2e" x="123.730469"/>
     <use xlink:href="#Pretendard-Regular-39" x="149.121094"/>
    </g>
   </g>
   <g id="text_51">
    <!-- 93.8 -->
    <g style="fill: #d55e00" transform="translate(419.573715 387.356174) scale(0.058 -0.058)">
     <use xlink:href="#Pretendard-Regular-39"/>
     <use xlink:href="#Pretendard-Regular-33" x="61.328125"/>
     <use xlink:href="#Pretendard-Regular-2e" x="123.046875"/>
     <use xlink:href="#Pretendard-Regular-38" x="148.4375"/>
    </g>
   </g>
   <g id="text_52">
    <!-- 86.1 -->
    <g style="fill: #009e73" transform="translate(394.337667 380.222608) scale(0.058 -0.058)">
     <use xlink:href="#Pretendard-Regular-38"/>
     <use xlink:href="#Pretendard-Regular-36" x="60.644531"/>
     <use xlink:href="#Pretendard-Regular-2e" x="121.972656"/>
     <use xlink:href="#Pretendard-Regular-31" x="147.363281"/>
    </g>
   </g>
   <g id="text_53">
    <!-- C -->
    <g transform="translate(89.148596 325.41326) scale(0.095 -0.095)">
     <defs>
      <path id="Pretendard-Bold-43" d="M 3406 2950 
L 4356 2950 
C 4231 3988 3444 4588 2400 4588 
C 1206 4588 294 3738 294 2263 
C 294 788 1188 -63 2400 -63 
C 3550 -63 4250 700 4356 1538 
L 3406 1544 
C 3313 1056 2931 769 2413 769 
C 1719 769 1250 1288 1250 2263 
C 1250 3213 1713 3756 2419 3756 
C 2944 3756 3331 3450 3406 2950 
z
" transform="scale(0.015625)"/>
     </defs>
     <use xlink:href="#Pretendard-Bold-43"/>
    </g>
   </g>
   <g id="text_54">
    <!-- Learning eligibility -->
    <g transform="translate(248.06545 325.223243) scale(0.08 -0.08)">
     <defs>
      <path id="Pretendard-Bold-4c" d="M 381 0 
L 3269 0 
L 3269 775 
L 1319 775 
L 1319 4525 
L 381 4525 
L 381 0 
z
" transform="scale(0.015625)"/>
      <path id="Pretendard-Bold-62" d="M 381 0 
L 1294 0 
L 1294 544 
L 1331 544 
C 1463 263 1744 -56 2300 -56 
C 3075 -56 3681 563 3681 1694 
C 3681 2856 3050 3438 2300 3438 
C 1731 3438 1463 3100 1331 2825 
L 1306 2825 
L 1306 4525 
L 381 4525 
L 381 0 
z
M 1288 1700 
C 1288 2313 1544 2700 2006 2700 
C 2481 2700 2731 2294 2731 1700 
C 2731 1100 2481 681 2006 681 
C 1550 681 1288 1088 1288 1700 
z
" transform="scale(0.015625)"/>
     </defs>
     <use xlink:href="#Pretendard-Bold-4c"/>
     <use xlink:href="#Pretendard-Bold-65" x="54.589844"/>
     <use xlink:href="#Pretendard-Bold-61" x="112.011719"/>
     <use xlink:href="#Pretendard-Bold-72" x="167.773438"/>
     <use xlink:href="#Pretendard-Bold-6e" x="206.738281"/>
     <use xlink:href="#Pretendard-Bold-69" x="266.503906"/>
     <use xlink:href="#Pretendard-Bold-6e" x="292.1875"/>
     <use xlink:href="#Pretendard-Bold-67" x="351.953125"/>
     <use xlink:href="#Pretendard-Bold-20" x="412.792969"/>
     <use xlink:href="#Pretendard-Bold-65" x="435.839844"/>
     <use xlink:href="#Pretendard-Bold-6c" x="493.261719"/>
     <use xlink:href="#Pretendard-Bold-69" x="518.945312"/>
     <use xlink:href="#Pretendard-Bold-67" x="544.628906"/>
     <use xlink:href="#Pretendard-Bold-69" x="605.46875"/>
     <use xlink:href="#Pretendard-Bold-62" x="631.152344"/>
     <use xlink:href="#Pretendard-Bold-69" x="692.285156"/>
     <use xlink:href="#Pretendard-Bold-6c" x="717.96875"/>
     <use xlink:href="#Pretendard-Bold-69" x="743.652344"/>
     <use xlink:href="#Pretendard-Bold-74" x="769.335938"/>
     <use xlink:href="#Pretendard-Bold-79" x="806.347656"/>
    </g>
   </g>
  </g>
  <g id="text_55">
   <!-- The same six metrics, separated by cohort and evaluation side -->
   <g transform="translate(58.761031 15.043828) scale(0.105 -0.105)">
    <defs>
     <path id="Pretendard-Bold-54" d="M 206 3750 
L 1594 3750 
L 1594 0 
L 2525 0 
L 2525 3750 
L 3913 3750 
L 3913 4525 
L 206 4525 
L 206 3750 
z
" transform="scale(0.015625)"/>
     <path id="Pretendard-Bold-68" d="M 1288 1963 
C 1288 2413 1563 2669 1950 2669 
C 2338 2669 2563 2419 2563 2000 
L 2563 0 
L 3488 0 
L 3488 2163 
C 3488 2963 3019 3438 2313 3438 
C 1800 3438 1456 3194 1300 2800 
L 1263 2800 
L 1263 4525 
L 363 4525 
L 363 0 
L 1288 0 
L 1288 1963 
z
" transform="scale(0.015625)"/>
     <path id="Pretendard-Bold-6d" d="M 363 0 
L 1288 0 
L 1288 2038 
C 1288 2425 1531 2675 1844 2675 
C 2156 2675 2369 2463 2369 2125 
L 2369 0 
L 3269 0 
L 3269 2075 
C 3269 2431 3469 2675 3819 2675 
C 4125 2675 4350 2488 4350 2100 
L 4350 0 
L 5275 0 
L 5275 2281 
C 5275 3019 4838 3438 4206 3438 
C 3706 3438 3325 3188 3181 2800 
L 3150 2800 
C 3038 3194 2694 3438 2225 3438 
C 1769 3438 1425 3194 1281 2800 
L 1244 2800 
L 1244 3394 
L 363 3394 
L 363 0 
z
" transform="scale(0.015625)"/>
     <path id="Pretendard-Bold-78" d="M 1131 3394 
L 175 3394 
L 1150 1700 
L 138 0 
L 1100 0 
L 1763 1181 
L 2438 0 
L 3388 0 
L 2369 1700 
L 3363 3394 
L 2406 3394 
L 1763 2200 
L 1131 3394 
z
" transform="scale(0.015625)"/>
     <path id="Pretendard-Bold-2c" d="M 1369 463 
L 481 463 
L 169 -1319 
L 831 -1319 
L 1369 463 
z
" transform="scale(0.015625)"/>
     <path id="Pretendard-Bold-75" d="M 2538 1444 
C 2538 981 2219 738 1881 738 
C 1519 738 1288 994 1288 1394 
L 1288 3394 
L 363 3394 
L 363 1231 
C 363 438 825 -44 1506 -44 
C 2019 -44 2381 219 2538 613 
L 2575 613 
L 2575 0 
L 3463 0 
L 3463 3394 
L 2538 3394 
L 2538 1444 
z
" transform="scale(0.015625)"/>
    </defs>
    <use xlink:href="#Pretendard-Bold-54"/>
    <use xlink:href="#Pretendard-Bold-68" x="64.257812"/>
    <use xlink:href="#Pretendard-Bold-65" x="124.21875"/>
    <use xlink:href="#Pretendard-Bold-20" x="181.640625"/>
    <use xlink:href="#Pretendard-Bold-73" x="204.6875"/>
    <use xlink:href="#Pretendard-Bold-61" x="258.59375"/>
    <use xlink:href="#Pretendard-Bold-6d" x="314.355469"/>
    <use xlink:href="#Pretendard-Bold-65" x="402.246094"/>
    <use xlink:href="#Pretendard-Bold-20" x="459.667969"/>
    <use xlink:href="#Pretendard-Bold-73" x="482.714844"/>
    <use xlink:href="#Pretendard-Bold-69" x="536.621094"/>
    <use xlink:href="#Pretendard-Bold-78" x="562.304688"/>
    <use xlink:href="#Pretendard-Bold-20" x="617.382812"/>
    <use xlink:href="#Pretendard-Bold-6d" x="640.429688"/>
    <use xlink:href="#Pretendard-Bold-65" x="728.320312"/>
    <use xlink:href="#Pretendard-Bold-74" x="785.742188"/>
    <use xlink:href="#Pretendard-Bold-72" x="822.753906"/>
    <use xlink:href="#Pretendard-Bold-69" x="861.71875"/>
    <use xlink:href="#Pretendard-Bold-63" x="887.402344"/>
    <use xlink:href="#Pretendard-Bold-73" x="943.75"/>
    <use xlink:href="#Pretendard-Bold-2c" x="997.65625"/>
    <use xlink:href="#Pretendard-Bold-20" x="1026.367188"/>
    <use xlink:href="#Pretendard-Bold-73" x="1049.414062"/>
    <use xlink:href="#Pretendard-Bold-65" x="1103.320312"/>
    <use xlink:href="#Pretendard-Bold-70" x="1160.742188"/>
    <use xlink:href="#Pretendard-Bold-61" x="1221.582031"/>
    <use xlink:href="#Pretendard-Bold-72" x="1277.34375"/>
    <use xlink:href="#Pretendard-Bold-61" x="1316.308594"/>
    <use xlink:href="#Pretendard-Bold-74" x="1372.070312"/>
    <use xlink:href="#Pretendard-Bold-65" x="1409.082031"/>
    <use xlink:href="#Pretendard-Bold-64" x="1466.503906"/>
    <use xlink:href="#Pretendard-Bold-20" x="1527.636719"/>
    <use xlink:href="#Pretendard-Bold-62" x="1550.683594"/>
    <use xlink:href="#Pretendard-Bold-79" x="1611.816406"/>
    <use xlink:href="#Pretendard-Bold-20" x="1668.066406"/>
    <use xlink:href="#Pretendard-Bold-63" x="1691.113281"/>
    <use xlink:href="#Pretendard-Bold-6f" x="1747.460938"/>
    <use xlink:href="#Pretendard-Bold-68" x="1806.445312"/>
    <use xlink:href="#Pretendard-Bold-6f" x="1866.40625"/>
    <use xlink:href="#Pretendard-Bold-72" x="1925.390625"/>
    <use xlink:href="#Pretendard-Bold-74" x="1964.355469"/>
    <use xlink:href="#Pretendard-Bold-20" x="2001.367188"/>
    <use xlink:href="#Pretendard-Bold-61" x="2024.414062"/>
    <use xlink:href="#Pretendard-Bold-6e" x="2080.175781"/>
    <use xlink:href="#Pretendard-Bold-64" x="2139.941406"/>
    <use xlink:href="#Pretendard-Bold-20" x="2201.074219"/>
    <use xlink:href="#Pretendard-Bold-65" x="2224.121094"/>
    <use xlink:href="#Pretendard-Bold-76" x="2281.542969"/>
    <use xlink:href="#Pretendard-Bold-61" x="2337.792969"/>
    <use xlink:href="#Pretendard-Bold-6c" x="2393.554688"/>
    <use xlink:href="#Pretendard-Bold-75" x="2419.238281"/>
    <use xlink:href="#Pretendard-Bold-61" x="2478.90625"/>
    <use xlink:href="#Pretendard-Bold-74" x="2534.667969"/>
    <use xlink:href="#Pretendard-Bold-69" x="2571.679688"/>
    <use xlink:href="#Pretendard-Bold-6f" x="2597.363281"/>
    <use xlink:href="#Pretendard-Bold-6e" x="2656.347656"/>
    <use xlink:href="#Pretendard-Bold-20" x="2716.113281"/>
    <use xlink:href="#Pretendard-Bold-73" x="2739.160156"/>
    <use xlink:href="#Pretendard-Bold-69" x="2793.066406"/>
    <use xlink:href="#Pretendard-Bold-64" x="2818.75"/>
    <use xlink:href="#Pretendard-Bold-65" x="2879.882812"/>
   </g>
  </g>
  <g id="text_56">
   <!-- outlined = N=1 pilot   |   filled = new N=4 cohort -->
   <g style="fill: #555555" transform="translate(211.548675 31.14) scale(0.07 -0.07)">
    <defs>
     <path id="Pretendard-Regular-3d" d="M 644 2181 
L 3375 2181 
L 3375 2675 
L 644 2675 
L 644 2181 
z
M 644 869 
L 3375 869 
L 3375 1356 
L 644 1356 
L 644 869 
z
" transform="scale(0.015625)"/>
     <path id="Pretendard-Regular-4e" d="M 4094 4525 
L 3538 4525 
L 3538 994 
L 3494 994 
L 1044 4525 
L 500 4525 
L 500 0 
L 1063 0 
L 1063 3525 
L 1106 3525 
L 3556 0 
L 4094 0 
L 4094 4525 
z
" transform="scale(0.015625)"/>
     <path id="Pretendard-Regular-7c" d="M 1213 5163 
L 750 5163 
L 750 -638 
L 1213 -638 
L 1213 5163 
z
" transform="scale(0.015625)"/>
     <path id="Pretendard-Regular-77" d="M 1194 0 
L 1731 0 
L 2463 2588 
L 2513 2588 
L 3250 0 
L 3781 0 
L 4813 3394 
L 4250 3394 
L 3525 819 
L 3488 819 
L 2781 3394 
L 2206 3394 
L 1488 806 
L 1456 806 
L 731 3394 
L 163 3394 
L 1194 0 
z
" transform="scale(0.015625)"/>
     <path id="Pretendard-Regular-68" d="M 969 2038 
C 969 2625 1344 2956 1850 2956 
C 2338 2956 2631 2650 2631 2119 
L 2631 0 
L 3169 0 
L 3169 2156 
C 3169 3025 2706 3438 2013 3438 
C 1475 3438 1169 3213 1013 2863 
L 969 2863 
L 969 4525 
L 431 4525 
L 431 0 
L 969 0 
L 969 2038 
z
" transform="scale(0.015625)"/>
    </defs>
    <use xlink:href="#Pretendard-Regular-6f"/>
    <use xlink:href="#Pretendard-Regular-75" x="56.738281"/>
    <use xlink:href="#Pretendard-Regular-74" x="112.011719"/>
    <use xlink:href="#Pretendard-Regular-6c" x="145.996094"/>
    <use xlink:href="#Pretendard-Regular-69" x="167.773438"/>
    <use xlink:href="#Pretendard-Regular-6e" x="189.550781"/>
    <use xlink:href="#Pretendard-Regular-65" x="245.214844"/>
    <use xlink:href="#Pretendard-Regular-64" x="300.488281"/>
    <use xlink:href="#Pretendard-Regular-20" x="359.570312"/>
    <use xlink:href="#Pretendard-Regular-3d" x="384.667969"/>
    <use xlink:href="#Pretendard-Regular-20" x="447.363281"/>
    <use xlink:href="#Pretendard-Regular-4e" x="472.460938"/>
    <use xlink:href="#Pretendard-Regular-3d" x="544.238281"/>
    <use xlink:href="#Pretendard-Regular-31" x="606.933594"/>
    <use xlink:href="#Pretendard-Regular-20" x="650.78125"/>
    <use xlink:href="#Pretendard-Regular-70" x="675.878906"/>
    <use xlink:href="#Pretendard-Regular-69" x="733.789062"/>
    <use xlink:href="#Pretendard-Regular-6c" x="755.566406"/>
    <use xlink:href="#Pretendard-Regular-6f" x="777.34375"/>
    <use xlink:href="#Pretendard-Regular-74" x="834.082031"/>
    <use xlink:href="#Pretendard-Regular-20" x="868.066406"/>
    <use xlink:href="#Pretendard-Regular-20" x="893.164062"/>
    <use xlink:href="#Pretendard-Regular-20" x="918.261719"/>
    <use xlink:href="#Pretendard-Regular-7c" x="943.359375"/>
    <use xlink:href="#Pretendard-Regular-20" x="973.925781"/>
    <use xlink:href="#Pretendard-Regular-20" x="999.023438"/>
    <use xlink:href="#Pretendard-Regular-20" x="1024.121094"/>
    <use xlink:href="#Pretendard-Regular-66" x="1049.21875"/>
    <use xlink:href="#Pretendard-Regular-69" x="1082.910156"/>
    <use xlink:href="#Pretendard-Regular-6c" x="1104.6875"/>
    <use xlink:href="#Pretendard-Regular-6c" x="1126.464844"/>
    <use xlink:href="#Pretendard-Regular-65" x="1148.242188"/>
    <use xlink:href="#Pretendard-Regular-64" x="1203.515625"/>
    <use xlink:href="#Pretendard-Regular-20" x="1262.597656"/>
    <use xlink:href="#Pretendard-Regular-3d" x="1287.695312"/>
    <use xlink:href="#Pretendard-Regular-20" x="1350.390625"/>
    <use xlink:href="#Pretendard-Regular-6e" x="1375.488281"/>
    <use xlink:href="#Pretendard-Regular-65" x="1431.152344"/>
    <use xlink:href="#Pretendard-Regular-77" x="1486.425781"/>
    <use xlink:href="#Pretendard-Regular-20" x="1564.160156"/>
    <use xlink:href="#Pretendard-Regular-4e" x="1589.257812"/>
    <use xlink:href="#Pretendard-Regular-3d" x="1661.035156"/>
    <use xlink:href="#Pretendard-Regular-34" x="1723.730469"/>
    <use xlink:href="#Pretendard-Regular-20" x="1786.132812"/>
    <use xlink:href="#Pretendard-Regular-63" x="1811.230469"/>
    <use xlink:href="#Pretendard-Regular-6f" x="1864.160156"/>
    <use xlink:href="#Pretendard-Regular-68" x="1920.898438"/>
    <use xlink:href="#Pretendard-Regular-6f" x="1977.148438"/>
    <use xlink:href="#Pretendard-Regular-72" x="2033.886719"/>
    <use xlink:href="#Pretendard-Regular-74" x="2068.847656"/>
   </g>
  </g>
  <g id="legend_1">
   <g id="patch_35">
    <path d="M 53.073531 456.684 
L 63.573531 456.684 
L 63.573531 451.784 
L 53.073531 451.784 
z
" style="fill: #d55e00"/>
   </g>
   <g id="text_57">
    <!-- Designated affected side -->
    <g transform="translate(69.173531 456.684) scale(0.07 -0.07)">
     <defs>
      <path id="Pretendard-Regular-67" d="M 1806 -1344 
C 2631 -1344 3281 -969 3281 -94 
L 3281 3394 
L 2756 3394 
L 2756 2856 
L 2713 2856 
C 2588 3038 2375 3438 1719 3438 
C 869 3438 269 2788 269 1744 
C 269 675 888 50 1713 50 
C 2369 50 2588 438 2700 625 
L 2744 625 
L 2744 -63 
C 2744 -625 2388 -875 1806 -875 
C 1325 -875 1006 -700 931 -356 
L 369 -356 
C 431 -988 988 -1344 1806 -1344 
z
M 1788 531 
C 1144 531 813 1019 813 1725 
C 813 2406 1138 2956 1788 2956 
C 2419 2956 2756 2450 2756 1725 
C 2756 975 2406 531 1788 531 
z
" transform="scale(0.015625)"/>
     </defs>
     <use xlink:href="#Pretendard-Regular-44"/>
     <use xlink:href="#Pretendard-Regular-65" x="68.554688"/>
     <use xlink:href="#Pretendard-Regular-73" x="123.828125"/>
     <use xlink:href="#Pretendard-Regular-69" x="173.4375"/>
     <use xlink:href="#Pretendard-Regular-67" x="195.214844"/>
     <use xlink:href="#Pretendard-Regular-6e" x="253.125"/>
     <use xlink:href="#Pretendard-Regular-61" x="308.789062"/>
     <use xlink:href="#Pretendard-Regular-74" x="362.304688"/>
     <use xlink:href="#Pretendard-Regular-65" x="396.289062"/>
     <use xlink:href="#Pretendard-Regular-64" x="451.5625"/>
     <use xlink:href="#Pretendard-Regular-20" x="510.644531"/>
     <use xlink:href="#Pretendard-Regular-61" x="535.742188"/>
     <use xlink:href="#Pretendard-Regular-66" x="589.257812"/>
     <use xlink:href="#Pretendard-Regular-66" x="622.949219"/>
     <use xlink:href="#Pretendard-Regular-65" x="656.640625"/>
     <use xlink:href="#Pretendard-Regular-63" x="711.914062"/>
     <use xlink:href="#Pretendard-Regular-74" x="764.84375"/>
     <use xlink:href="#Pretendard-Regular-65" x="798.828125"/>
     <use xlink:href="#Pretendard-Regular-64" x="854.101562"/>
     <use xlink:href="#Pretendard-Regular-20" x="913.183594"/>
     <use xlink:href="#Pretendard-Regular-73" x="938.28125"/>
     <use xlink:href="#Pretendard-Regular-69" x="987.890625"/>
     <use xlink:href="#Pretendard-Regular-64" x="1009.667969"/>
     <use xlink:href="#Pretendard-Regular-65" x="1068.75"/>
    </g>
   </g>
   <g id="patch_36">
    <path d="M 161.857906 456.684 
L 172.357906 456.684 
L 172.357906 451.784 
L 161.857906 451.784 
z
" style="fill: #009e73"/>
   </g>
   <g id="text_58">
    <!-- Contralateral side -->
    <g transform="translate(177.957906 456.684) scale(0.07 -0.07)">
     <defs>
      <path id="Pretendard-Regular-43" d="M 3588 3100 
L 4150 3100 
C 3981 4038 3238 4588 2325 4588 
C 1163 4588 325 3694 325 2263 
C 325 831 1163 -63 2325 -63 
C 3244 -63 3988 494 4150 1419 
L 3588 1419 
C 3450 800 2919 463 2325 463 
C 1506 463 869 1094 869 2263 
C 869 3431 1506 4063 2325 4063 
C 2919 4063 3456 3725 3588 3100 
z
" transform="scale(0.015625)"/>
     </defs>
     <use xlink:href="#Pretendard-Regular-43"/>
     <use xlink:href="#Pretendard-Regular-6f" x="69.335938"/>
     <use xlink:href="#Pretendard-Regular-6e" x="126.074219"/>
     <use xlink:href="#Pretendard-Regular-74" x="181.738281"/>
     <use xlink:href="#Pretendard-Regular-72" x="215.722656"/>
     <use xlink:href="#Pretendard-Regular-61" x="250.683594"/>
     <use xlink:href="#Pretendard-Regular-6c" x="304.199219"/>
     <use xlink:href="#Pretendard-Regular-61" x="325.976562"/>
     <use xlink:href="#Pretendard-Regular-74" x="379.492188"/>
     <use xlink:href="#Pretendard-Regular-65" x="413.476562"/>
     <use xlink:href="#Pretendard-Regular-72" x="468.75"/>
     <use xlink:href="#Pretendard-Regular-61" x="503.710938"/>
     <use xlink:href="#Pretendard-Regular-6c" x="557.226562"/>
     <use xlink:href="#Pretendard-Regular-20" x="579.003906"/>
     <use xlink:href="#Pretendard-Regular-73" x="604.101562"/>
     <use xlink:href="#Pretendard-Regular-69" x="653.710938"/>
     <use xlink:href="#Pretendard-Regular-64" x="675.488281"/>
     <use xlink:href="#Pretendard-Regular-65" x="734.570312"/>
    </g>
   </g>
   <g id="patch_37">
    <path d="M 247.25025 456.684 
L 257.75025 456.684 
L 257.75025 451.784 
L 247.25025 451.784 
z
" style="fill: #ffffff; stroke: #555555; stroke-linejoin: miter"/>
   </g>
   <g id="text_59">
    <!-- N=1 (outlined) -->
    <g transform="translate(263.35025 456.684) scale(0.07 -0.07)">
     <defs>
      <path id="Pretendard-Regular-28" d="M 569 1725 
C 575 544 894 -438 1469 -1275 
L 1944 -1275 
C 1519 -656 1125 613 1125 1725 
C 1125 2838 1519 4100 1944 4719 
L 1469 4719 
C 894 3888 575 2906 569 1725 
z
" transform="scale(0.015625)"/>
      <path id="Pretendard-Regular-29" d="M 1613 1725 
C 1606 2906 1288 3888 713 4719 
L 238 4719 
C 663 4100 1056 2838 1056 1725 
C 1056 613 663 -656 238 -1275 
L 713 -1275 
C 1288 -438 1606 544 1613 1725 
z
" transform="scale(0.015625)"/>
     </defs>
     <use xlink:href="#Pretendard-Regular-4e"/>
     <use xlink:href="#Pretendard-Regular-3d" x="71.777344"/>
     <use xlink:href="#Pretendard-Regular-31" x="134.472656"/>
     <use xlink:href="#Pretendard-Regular-20" x="178.320312"/>
     <use xlink:href="#Pretendard-Regular-28" x="203.417969"/>
     <use xlink:href="#Pretendard-Regular-6f" x="237.5"/>
     <use xlink:href="#Pretendard-Regular-75" x="294.238281"/>
     <use xlink:href="#Pretendard-Regular-74" x="349.511719"/>
     <use xlink:href="#Pretendard-Regular-6c" x="383.496094"/>
     <use xlink:href="#Pretendard-Regular-69" x="405.273438"/>
     <use xlink:href="#Pretendard-Regular-6e" x="427.050781"/>
     <use xlink:href="#Pretendard-Regular-65" x="482.714844"/>
     <use xlink:href="#Pretendard-Regular-64" x="537.988281"/>
     <use xlink:href="#Pretendard-Regular-29" x="597.070312"/>
    </g>
   </g>
   <g id="patch_38">
    <path d="M 321.532281 456.684 
L 332.032281 456.684 
L 332.032281 451.784 
L 321.532281 451.784 
z
" style="fill: #777777"/>
   </g>
   <g id="text_60">
    <!-- N=4 (filled) -->
    <g transform="translate(337.632281 456.684) scale(0.07 -0.07)">
     <use xlink:href="#Pretendard-Regular-4e"/>
     <use xlink:href="#Pretendard-Regular-3d" x="71.777344"/>
     <use xlink:href="#Pretendard-Regular-34" x="134.472656"/>
     <use xlink:href="#Pretendard-Regular-20" x="196.875"/>
     <use xlink:href="#Pretendard-Regular-28" x="221.972656"/>
     <use xlink:href="#Pretendard-Regular-66" x="256.054688"/>
     <use xlink:href="#Pretendard-Regular-69" x="289.746094"/>
     <use xlink:href="#Pretendard-Regular-6c" x="311.523438"/>
     <use xlink:href="#Pretendard-Regular-6c" x="333.300781"/>
     <use xlink:href="#Pretendard-Regular-65" x="355.078125"/>
     <use xlink:href="#Pretendard-Regular-64" x="410.351562"/>
     <use xlink:href="#Pretendard-Regular-29" x="469.433594"/>
    </g>
   </g>
  </g>
 </g>
 <defs>
  <clipPath id="p5c1ebc560c">
   <rect x="109.8725" y="50.292" width="345.3984" height="81.956757"/>
  </clipPath>
  <clipPath id="p4a993edcab">
   <rect x="109.8725" y="191.257622" width="345.3984" height="81.956757"/>
  </clipPath>
  <clipPath id="pa80ccfb299">
   <rect x="109.8725" y="332.223243" width="345.3984" height="81.956757"/>
  </clipPath>
 </defs>
</svg>
