<?xml version="1.0" encoding="utf-8" standalone="no"?>
<!DOCTYPE svg PUBLIC "-//W3C//DTD SVG 1.1//EN"
  "http://www.w3.org/Graphics/SVG/1.1/DTD/svg11.dtd">
<svg xmlns:xlink="http://www.w3.org/1999/xlink" width="393.384555pt" height="247.13pt" viewBox="0 0 393.384555 247.13" xmlns="http://www.w3.org/2000/svg" version="1.1">
 <metadata>
  <rdf:RDF xmlns:dc="http://purl.org/dc/elements/1.1/" xmlns:cc="http://creativecommons.org/ns#" xmlns:rdf="http://www.w3.org/1999/02/22-rdf-syntax-ns#">
   <cc:Work>
    <dc:type rdf:resource="http://purl.org/dc/dcmitype/StillImage"/>
    <dc:date>2026-08-25T05:39:03.336082</dc:date>
    <dc:format>image/svg+xml</dc:format>
    <dc:creator>
     <cc:Agent>
      <dc:title>Matplotlib v3.6.3, https://matplotlib.org/</dc:title>
     </cc:Agent>
    </dc:creator>
   </cc:Work>
  </rdf:RDF>
 </metadata>
 <defs>
  <style type="text/css">*{stroke-linejoin: round; stroke-linecap: butt}</style>
 </defs>
 <g id="figure_1">
  <g id="patch_1">
   <path d="M 0 247.13 
L 393.384555 247.13 
L 393.384555 0 
L 0 0 
z
" style="fill: #ffffff"/>
  </g>
  <g id="axes_1">
   <g id="patch_2">
    <path d="M 23.811508 97.403867 
C 23.006613 102.391973 22.96737 107.473805 23.695134 112.473746 
C 24.422898 117.473688 25.909189 122.333471 28.102644 126.885154 
C 30.296098 131.436836 33.171155 135.627374 36.628458 139.311952 
C 40.085761 142.996529 44.08502 146.132208 48.488031 148.610626 
C 52.891041 151.089044 57.646492 152.881318 62.590045 153.925512 
C 67.533597 154.969706 72.607642 155.253651 77.636832 154.767534 
C 82.666021 154.281418 87.591747 153.030905 92.243787 151.05921 
C 96.895827 149.087515 101.219968 146.417616 105.066778 143.141779 
C 108.913588 139.865942 112.238237 136.022341 114.925833 131.743804 
C 117.613429 127.465266 119.632652 122.801652 120.913722 117.914125 
C 122.194791 113.026599 122.722779 107.972117 122.479438 102.925352 
C 122.236097 97.878586 121.224264 92.89835 119.478906 88.156749 
C 117.733547 83.415149 115.275002 78.96744 112.188233 74.967325 
C 109.101464 70.967211 105.422442 67.461308 101.278308 64.570771 
C 97.134173 61.680234 92.573219 59.438749 87.753062 57.923777 
C 82.932905 56.408805 77.909717 55.638 72.857088 55.638 
L 72.857088 69.0516 
C 76.545507 69.0516 80.212434 69.614288 83.731149 70.720217 
C 87.249863 71.826147 90.57936 73.462431 93.604578 75.572523 
C 96.629797 77.682615 99.315482 80.241924 101.568824 83.162008 
C 103.822165 86.082091 105.616903 89.328918 106.891015 92.790287 
C 108.165127 96.251656 108.903765 99.887228 109.081404 103.571367 
C 109.259042 107.255505 108.873611 110.945277 107.93843 114.513172 
C 107.00325 118.081066 105.529217 121.485504 103.567272 124.608837 
C 101.605327 127.732169 99.178333 130.537998 96.370162 132.929359 
C 93.561991 135.32072 90.405367 137.269746 87.009378 138.709083 
C 83.613389 140.14842 80.017609 141.061295 76.346301 141.41616 
C 72.674993 141.771025 68.97094 141.563745 65.362146 140.801484 
C 61.753353 140.039222 58.281874 138.730862 55.067676 136.921617 
C 51.853479 135.112372 48.934019 132.823326 46.410188 130.133585 
C 43.886357 127.443843 41.787565 124.38475 40.186344 121.062022 
C 38.585122 117.739294 37.50013 114.191652 36.968862 110.541695 
C 36.437594 106.891737 36.466242 103.182 37.053815 99.540683 
L 23.811508 97.403867 
z
" style="fill: #0072b2; stroke: #ffffff; stroke-width: 0.9; stroke-linejoin: miter"/>
   </g>
   <g id="patch_3">
    <path d="M 72.857097 55.638 
C 61.055872 55.637998 49.632244 59.842975 40.647402 67.494218 
C 31.662559 75.145461 25.691469 85.753345 23.811508 97.403867 
L 37.053815 99.540683 
C 38.426186 91.035802 42.785082 83.292046 49.344017 77.706639 
C 55.902952 72.121232 64.242201 69.051598 72.857095 69.0516 
L 72.857097 55.638 
z
" style="fill: #cc79a7; stroke: #ffffff; stroke-width: 0.9; stroke-linejoin: miter"/>
   </g>
   <g id="patch_4">
    <path d="M 83.913929 136.7135 
C 91.321501 134.104708 97.571974 128.956602 101.551928 122.186234 
C 105.531883 115.415865 106.990078 107.450623 105.666761 99.709386 
C 104.343443 91.968149 100.322149 84.939592 94.319207 79.875739 
C 88.316264 74.811887 80.710617 72.0324 72.857088 72.0324 
L 72.857088 85.446 
C 77.545762 85.446 82.086447 87.105395 85.670293 90.128591 
C 89.254139 93.151786 91.654912 97.34794 92.444952 101.969574 
C 93.234992 106.591208 92.364428 111.346576 89.988336 115.388587 
C 87.612244 119.430598 83.880618 122.504094 79.458187 124.061582 
L 83.913929 136.7135 
z
" style="fill: #009e73; stroke: #ffffff; stroke-width: 0.9; stroke-linejoin: miter"/>
   </g>
   <g id="patch_5">
    <path d="M 46.151011 85.450523 
C 41.89543 91.170922 39.588345 98.110031 39.57158 105.239733 
C 39.554815 112.369434 41.829242 119.319316 46.057874 125.059665 
C 50.286507 130.800013 56.249653 135.032596 63.063797 137.130303 
C 69.877941 139.22801 77.189063 139.081858 83.913929 136.7135 
L 79.458187 124.061582 
C 75.443342 125.475527 71.078493 125.562782 67.010347 124.31042 
C 62.942202 123.058057 59.382114 120.531142 56.857558 117.104068 
C 54.333001 113.676995 52.975134 109.527812 52.985143 105.271273 
C 52.995152 101.014735 54.372516 96.871983 56.913161 93.45682 
L 46.151011 85.450523 
z
" style="fill: #e69f00; stroke: #ffffff; stroke-width: 0.9; stroke-linejoin: miter"/>
   </g>
   <g id="patch_6">
    <path d="M 72.857085 72.0324 
C 67.667995 72.0324 62.550088 73.245838 57.913354 75.575505 
C 53.27662 77.905173 49.24827 81.287155 46.151011 85.450523 
L 56.913161 93.45682 
C 58.762271 90.971227 61.167256 88.952133 63.935456 87.561287 
C 66.703655 86.170441 69.759122 85.446 72.857086 85.446 
L 72.857085 72.0324 
z
" style="fill: #dddddd; stroke: #ffffff; stroke-width: 0.9; stroke-linejoin: miter"/>
   </g>
   <g id="text_1">
    <!-- Affected -->
    <g transform="translate(58.677408 100.681926) scale(0.073 -0.073)">
     <defs>
      <path id="Pretendard-Regular-41" d="M 700 0 
L 1156 1275 
L 2975 1275 
L 3425 0 
L 4019 0 
L 2363 4525 
L 1769 4525 
L 113 0 
L 700 0 
z
M 1325 1769 
L 2044 3794 
L 2081 3794 
L 2800 1769 
L 1325 1769 
z
" transform="scale(0.015625)"/>
      <path id="Pretendard-Regular-66" d="M 1950 3394 
L 1200 3394 
L 1200 3738 
C 1200 4088 1369 4244 1744 4244 
C 1813 4244 1913 4238 2025 4219 
L 2025 4700 
C 1913 4719 1756 4738 1625 4738 
C 1025 4738 656 4406 656 3856 
L 656 3394 
L 113 3394 
L 113 2944 
L 656 2944 
L 656 0 
L 1200 0 
L 1200 2944 
L 1950 2944 
L 1950 3394 
z
" transform="scale(0.015625)"/>
      <path id="Pretendard-Regular-65" d="M 1856 -69 
C 2556 -69 3056 281 3219 794 
L 2644 794 
C 2519 581 2263 406 1856 406 
C 1250 406 831 800 806 1519 
L 3269 1519 
L 3269 1744 
C 3269 3000 2519 3438 1806 3438 
C 881 3438 269 2713 269 1669 
C 269 625 875 -69 1856 -69 
z
M 813 1975 
C 844 2500 1219 2963 1806 2963 
C 2363 2963 2725 2544 2725 1975 
L 813 1975 
z
" transform="scale(0.015625)"/>
      <path id="Pretendard-Regular-63" d="M 1819 -69 
C 2575 -69 3069 394 3156 1000 
L 2619 1000 
C 2525 625 2219 413 1819 413 
C 1200 413 806 913 806 1700 
C 806 2463 1213 2963 1819 2963 
C 2269 2963 2544 2681 2619 2369 
L 3156 2369 
C 3069 3013 2531 3438 1806 3438 
C 881 3438 269 2713 269 1681 
C 269 663 856 -69 1819 -69 
z
" transform="scale(0.015625)"/>
      <path id="Pretendard-Regular-74" d="M 1913 3394 
L 1200 3394 
L 1200 4206 
L 656 4206 
L 656 3394 
L 144 3394 
L 144 2944 
L 656 2944 
L 656 838 
C 656 238 1138 -44 1588 -44 
C 1744 -44 1881 -31 1963 -19 
L 1963 481 
C 1881 475 1744 469 1644 469 
C 1413 469 1200 538 1200 975 
L 1200 2944 
L 1913 2944 
L 1913 3394 
z
" transform="scale(0.015625)"/>
      <path id="Pretendard-Regular-64" d="M 1713 -69 
C 2363 -69 2581 331 2700 519 
L 2756 519 
L 2756 0 
L 3281 0 
L 3281 4525 
L 2738 4525 
L 2738 2856 
L 2700 2856 
C 2588 3038 2375 3438 1719 3438 
C 869 3438 269 2763 269 1688 
C 269 613 869 -69 1713 -69 
z
M 1788 413 
C 1144 413 813 975 813 1700 
C 813 2406 1138 2956 1788 2956 
C 2419 2956 2756 2450 2756 1700 
C 2756 938 2406 413 1788 413 
z
" transform="scale(0.015625)"/>
     </defs>
     <use xlink:href="#Pretendard-Regular-41"/>
     <use xlink:href="#Pretendard-Regular-66" x="64.550781"/>
     <use xlink:href="#Pretendard-Regular-66" x="98.242188"/>
     <use xlink:href="#Pretendard-Regular-65" x="131.933594"/>
     <use xlink:href="#Pretendard-Regular-63" x="187.207031"/>
     <use xlink:href="#Pretendard-Regular-74" x="240.136719"/>
     <use xlink:href="#Pretendard-Regular-65" x="274.121094"/>
     <use xlink:href="#Pretendard-Regular-64" x="329.394531"/>
    </g>
    <!-- n=2,975 -->
    <g transform="translate(59.023018 108.686262) scale(0.073 -0.073)">
     <defs>
      <path id="Pretendard-Regular-6e" d="M 969 2038 
C 969 2625 1331 2956 1825 2956 
C 2306 2956 2594 2644 2594 2119 
L 2594 0 
L 3131 0 
L 3131 2156 
C 3131 3019 2675 3438 1988 3438 
C 1469 3438 1156 3206 994 2863 
L 950 2863 
L 950 3394 
L 431 3394 
L 431 0 
L 969 0 
L 969 2038 
z
" transform="scale(0.015625)"/>
      <path id="Pretendard-Regular-3d" d="M 644 2181 
L 3375 2181 
L 3375 2675 
L 644 2675 
L 644 2181 
z
M 644 869 
L 3375 869 
L 3375 1356 
L 644 1356 
L 644 869 
z
" transform="scale(0.015625)"/>
      <path id="Pretendard-Regular-32" d="M 425 0 
L 3363 0 
L 3363 500 
L 1206 500 
L 1206 538 
L 2244 1606 
C 3044 2431 3281 2825 3281 3331 
C 3281 4038 2694 4588 1875 4588 
C 1056 4588 438 4050 444 3250 
L 975 3250 
C 975 3756 1319 4100 1856 4100 
C 2363 4100 2756 3794 2756 3331 
C 2756 2913 2500 2606 1963 2038 
L 419 413 
L 425 0 
z
" transform="scale(0.015625)"/>
      <path id="Pretendard-Regular-2c" d="M 1138 419 
L 531 419 
L 188 -1281 
L 650 -1281 
L 1138 419 
z
" transform="scale(0.015625)"/>
      <path id="Pretendard-Regular-39" d="M 1931 4588 
C 969 4594 350 3913 350 3069 
C 350 2194 1019 1575 1831 1575 
C 2313 1575 2725 1800 2988 2175 
L 3050 2175 
C 3044 1075 2594 438 1856 438 
C 1350 438 1044 738 944 1144 
L 388 1144 
C 500 425 1063 -63 1856 -63 
C 2919 -63 3575 838 3575 2444 
C 3575 4113 2713 4581 1931 4588 
z
M 1931 4094 
C 2531 4094 2963 3606 2963 3088 
C 2963 2556 2500 2069 1913 2069 
C 1319 2069 900 2513 900 3075 
C 894 3631 1338 4094 1931 4094 
z
" transform="scale(0.015625)"/>
      <path id="Pretendard-Regular-37" d="M 569 0 
L 1156 0 
L 3225 4000 
L 3225 4525 
L 250 4525 
L 250 4025 
L 2644 4025 
L 2644 3994 
L 569 0 
z
" transform="scale(0.015625)"/>
      <path id="Pretendard-Regular-35" d="M 1900 -63 
C 2800 -63 3463 569 3463 1444 
C 3463 2325 2825 2963 1963 2963 
C 1644 2963 1338 2856 1138 2700 
L 1094 2700 
L 1263 4025 
L 3244 4025 
L 3244 4525 
L 794 4525 
L 475 2050 
L 1019 2050 
C 1188 2344 1481 2463 1863 2456 
C 2469 2450 2913 2019 2913 1431 
C 2913 863 2488 431 1900 431 
C 1413 431 1019 731 975 1138 
L 431 1138 
C 463 444 1081 -63 1900 -63 
z
" transform="scale(0.015625)"/>
     </defs>
     <use xlink:href="#Pretendard-Regular-6e"/>
     <use xlink:href="#Pretendard-Regular-3d" x="55.664062"/>
     <use xlink:href="#Pretendard-Regular-32" x="118.359375"/>
     <use xlink:href="#Pretendard-Regular-2c" x="177.050781"/>
     <use xlink:href="#Pretendard-Regular-39" x="202.832031"/>
     <use xlink:href="#Pretendard-Regular-37" x="264.160156"/>
     <use xlink:href="#Pretendard-Regular-35" x="319.335938"/>
    </g>
   </g>
   <g id="text_2">
    <!-- real-first 77.5% -->
    <g style="fill: #0072b2" transform="translate(46.584869 166.736734) scale(0.071 -0.071)">
     <defs>
      <path id="Pretendard-Bold-72" d="M 363 0 
L 1288 0 
L 1288 1931 
C 1288 2344 1594 2638 2013 2638 
C 2144 2638 2319 2613 2406 2588 
L 2406 3413 
C 2325 3431 2206 3444 2113 3444 
C 1731 3444 1419 3225 1294 2806 
L 1256 2806 
L 1256 3394 
L 363 3394 
L 363 0 
z
" transform="scale(0.015625)"/>
      <path id="Pretendard-Bold-65" d="M 1900 -69 
C 2738 -69 3300 344 3431 969 
L 2550 969 
C 2456 763 2231 625 1919 625 
C 1444 625 1138 944 1138 1456 
L 3456 1456 
L 3456 1719 
C 3456 2875 2756 3438 1863 3438 
C 869 3438 225 2731 225 1681 
C 225 606 863 -69 1900 -69 
z
M 1138 2038 
C 1153 2428 1456 2744 1881 2744 
C 2294 2744 2581 2450 2581 2038 
L 1138 2038 
z
" transform="scale(0.015625)"/>
      <path id="Pretendard-Bold-61" d="M 200 950 
C 200 275 681 -63 1331 -63 
C 1838 -63 2156 156 2325 469 
L 2350 469 
L 2350 0 
L 3225 0 
L 3225 2288 
C 3225 3106 2525 3438 1788 3438 
C 888 3438 375 2975 319 2388 
L 1200 2388 
C 1250 2619 1450 2763 1763 2763 
C 2106 2763 2300 2594 2306 2313 
L 2306 2038 
C 2163 2031 1706 2009 1463 1994 
C 813 1956 200 1706 200 950 
z
M 1088 975 
C 1088 1238 1294 1388 1613 1419 
C 1772 1434 2166 1456 2306 1463 
L 2306 1213 
C 2313 856 2013 575 1594 575 
C 1300 575 1088 713 1088 975 
z
" transform="scale(0.015625)"/>
      <path id="Pretendard-Bold-6c" d="M 1288 4525 
L 363 4525 
L 363 0 
L 1288 0 
L 1288 4525 
z
" transform="scale(0.015625)"/>
      <path id="Pretendard-Bold-2d" d="M 2469 2231 
L 406 2231 
L 406 1494 
L 2469 1494 
L 2469 2231 
z
" transform="scale(0.015625)"/>
      <path id="Pretendard-Bold-66" d="M 2169 3394 
L 1494 3394 
L 1494 3600 
C 1494 3881 1650 4000 1950 4000 
C 2000 4000 2100 3994 2231 3981 
L 2231 4681 
C 2069 4719 1894 4738 1681 4738 
C 1000 4738 569 4363 569 3650 
L 569 3394 
L 88 3394 
L 88 2700 
L 569 2700 
L 569 0 
L 1494 0 
L 1494 2700 
L 2169 2700 
L 2169 3394 
z
" transform="scale(0.015625)"/>
      <path id="Pretendard-Bold-69" d="M 363 0 
L 1288 0 
L 1288 3394 
L 363 3394 
L 363 0 
z
M 825 3838 
C 1100 3838 1325 4050 1325 4306 
C 1325 4569 1100 4781 825 4781 
C 544 4781 319 4569 319 4306 
C 319 4050 544 3838 825 3838 
z
" transform="scale(0.015625)"/>
      <path id="Pretendard-Bold-73" d="M 2300 2388 
L 3169 2388 
C 3119 3031 2588 3438 1731 3438 
C 856 3438 294 3031 300 2381 
C 294 1881 631 1544 1275 1419 
L 1838 1306 
C 2156 1238 2300 1131 2300 956 
C 2300 738 2075 600 1738 600 
C 1400 600 1181 738 1138 1006 
L 206 1006 
C 281 344 819 -69 1738 -69 
C 2638 -69 3238 381 3244 1050 
C 3238 1538 2919 1831 2263 1969 
L 1656 2094 
C 1338 2163 1213 2281 1219 2431 
C 1213 2638 1444 2781 1744 2781 
C 2050 2781 2263 2625 2300 2388 
z
" transform="scale(0.015625)"/>
      <path id="Pretendard-Bold-74" d="M 2150 3394 
L 1513 3394 
L 1513 4206 
L 588 4206 
L 588 3394 
L 119 3394 
L 119 2700 
L 588 2700 
L 588 913 
C 581 256 1038 -44 1706 -44 
C 1938 -44 2100 -31 2200 -13 
L 2200 719 
C 2088 706 1925 700 1831 700 
C 1644 706 1513 775 1513 1044 
L 1513 2700 
L 2150 2700 
L 2150 3394 
z
" transform="scale(0.015625)"/>
      <path id="Pretendard-Bold-20" transform="scale(0.015625)"/>
      <path id="Pretendard-Bold-37" d="M 531 0 
L 1506 0 
L 3413 3744 
L 3413 4525 
L 219 4525 
L 219 3756 
L 2438 3756 
L 2438 3725 
L 531 0 
z
" transform="scale(0.015625)"/>
      <path id="Pretendard-Bold-2e" d="M 906 -56 
C 1181 -56 1425 181 1425 469 
C 1425 756 1181 988 906 988 
C 613 988 375 756 381 469 
C 375 181 613 -56 906 -56 
z
" transform="scale(0.015625)"/>
      <path id="Pretendard-Bold-35" d="M 2019 -63 
C 3038 -63 3731 594 3731 1506 
C 3731 2375 3113 2994 2281 2994 
C 1881 2994 1544 2838 1375 2613 
L 1338 2613 
L 1463 3756 
L 3475 3756 
L 3475 4525 
L 688 4525 
L 444 1919 
L 1294 1919 
C 1431 2175 1669 2300 2006 2300 
C 2481 2294 2819 1963 2819 1481 
C 2819 1013 2488 681 2019 681 
C 1625 681 1300 919 1281 1275 
L 369 1275 
C 388 494 1075 -63 2019 -63 
z
" transform="scale(0.015625)"/>
      <path id="Pretendard-Bold-25" d="M 1544 2263 
C 2213 2263 2581 2750 2588 3469 
C 2581 4188 2225 4681 1544 4681 
C 881 4681 500 4188 500 3469 
C 500 2756 869 2263 1544 2263 
z
M 1544 2819 
C 1281 2819 1138 3081 1138 3469 
C 1138 3850 1275 4125 1544 4125 
C 1825 4125 1944 3856 1950 3469 
C 1944 3081 1813 2819 1544 2819 
z
M 4594 -150 
C 5269 -150 5638 338 5644 1056 
C 5638 1775 5275 2269 4594 2269 
C 3938 2269 3556 1775 3556 1056 
C 3556 344 3925 -150 4594 -150 
z
M 4594 406 
C 4338 406 4194 663 4194 1056 
C 4194 1438 4331 1706 4594 1706 
C 4881 1713 5000 1444 5006 1056 
C 5000 663 4869 406 4594 406 
z
M 1150 0 
L 1850 0 
L 4963 4525 
L 4263 4525 
L 1150 0 
z
" transform="scale(0.015625)"/>
     </defs>
     <use xlink:href="#Pretendard-Bold-72"/>
     <use xlink:href="#Pretendard-Bold-65" x="38.964844"/>
     <use xlink:href="#Pretendard-Bold-61" x="96.386719"/>
     <use xlink:href="#Pretendard-Bold-6c" x="152.148438"/>
     <use xlink:href="#Pretendard-Bold-2d" x="177.832031"/>
     <use xlink:href="#Pretendard-Bold-66" x="222.753906"/>
     <use xlink:href="#Pretendard-Bold-69" x="259.472656"/>
     <use xlink:href="#Pretendard-Bold-72" x="285.15625"/>
     <use xlink:href="#Pretendard-Bold-73" x="324.121094"/>
     <use xlink:href="#Pretendard-Bold-74" x="378.027344"/>
     <use xlink:href="#Pretendard-Bold-20" x="415.039062"/>
     <use xlink:href="#Pretendard-Bold-37" x="438.085938"/>
     <use xlink:href="#Pretendard-Bold-37" x="495.605469"/>
     <use xlink:href="#Pretendard-Bold-2e" x="553.125"/>
     <use xlink:href="#Pretendard-Bold-35" x="581.347656"/>
     <use xlink:href="#Pretendard-Bold-25" x="644.042969"/>
    </g>
   </g>
   <g id="text_3">
    <!-- reconciled 85.2% of prediction -->
    <g style="fill: #009e73" transform="translate(21.141354 175.821134) scale(0.071 -0.071)">
     <defs>
      <path id="Pretendard-Bold-63" d="M 1888 -69 
C 2788 -69 3350 463 3394 1231 
L 2525 1231 
C 2469 869 2225 669 1900 669 
C 1450 669 1163 1044 1163 1700 
C 1163 2344 1456 2719 1900 2719 
C 2250 2719 2469 2488 2525 2150 
L 3394 2150 
C 3356 2925 2763 3438 1888 3438 
C 856 3438 225 2725 225 1688 
C 225 650 850 -69 1888 -69 
z
" transform="scale(0.015625)"/>
      <path id="Pretendard-Bold-6f" d="M 1888 -69 
C 2913 -69 3556 638 3556 1688 
C 3556 2738 2913 3438 1888 3438 
C 863 3438 225 2738 225 1688 
C 225 638 863 -69 1888 -69 
z
M 1894 650 
C 1413 650 1163 1094 1163 1688 
C 1163 2288 1413 2731 1894 2731 
C 2369 2731 2613 2288 2613 1688 
C 2613 1094 2369 650 1894 650 
z
" transform="scale(0.015625)"/>
      <path id="Pretendard-Bold-6e" d="M 1288 1963 
C 1288 2413 1550 2669 1938 2669 
C 2319 2669 2550 2419 2550 2000 
L 2550 0 
L 3469 0 
L 3469 2163 
C 3475 2956 3006 3438 2300 3438 
C 1800 3438 1438 3194 1281 2800 
L 1244 2800 
L 1244 3394 
L 363 3394 
L 363 0 
L 1288 0 
L 1288 1963 
z
" transform="scale(0.015625)"/>
      <path id="Pretendard-Bold-64" d="M 1613 -56 
C 2163 -56 2444 263 2575 544 
L 2619 544 
L 2619 0 
L 3531 0 
L 3531 4525 
L 2606 4525 
L 2606 2825 
L 2575 2825 
C 2450 3100 2181 3438 1613 3438 
C 863 3438 231 2856 231 1694 
C 231 563 838 -56 1613 -56 
z
M 1900 681 
C 1431 681 1181 1100 1181 1700 
C 1181 2294 1431 2700 1900 2700 
C 2363 2700 2625 2313 2625 1700 
C 2625 1088 2363 681 1900 681 
z
" transform="scale(0.015625)"/>
      <path id="Pretendard-Bold-38" d="M 2056 -63 
C 3088 -63 3831 481 3831 1219 
C 3831 1788 3388 2250 2838 2338 
L 2838 2369 
C 3313 2463 3656 2869 3663 3369 
C 3656 4075 2981 4588 2056 4588 
C 1131 4588 456 4075 456 3369 
C 456 2875 794 2463 1281 2369 
L 1281 2338 
C 719 2250 281 1788 281 1219 
C 281 481 1025 -63 2056 -63 
z
M 2056 656 
C 1575 656 1256 925 1263 1313 
C 1256 1706 1594 1994 2056 1994 
C 2519 1994 2850 1706 2850 1313 
C 2850 925 2531 656 2056 656 
z
M 2056 2656 
C 1656 2656 1375 2913 1375 3275 
C 1375 3631 1650 3875 2056 3875 
C 2463 3875 2744 3625 2744 3275 
C 2744 2913 2456 2656 2056 2656 
z
" transform="scale(0.015625)"/>
      <path id="Pretendard-Bold-32" d="M 356 0 
L 3594 0 
L 3594 775 
L 1663 775 
L 1663 800 
L 2350 1469 
C 3281 2313 3531 2738 3531 3250 
C 3531 4038 2888 4588 1919 4588 
C 963 4588 306 4025 313 3138 
L 1206 3138 
C 1206 3569 1481 3838 1906 3838 
C 2319 3838 2625 3588 2625 3188 
C 2625 2831 2400 2581 1975 2175 
L 350 681 
L 356 0 
z
" transform="scale(0.015625)"/>
      <path id="Pretendard-Bold-70" d="M 363 -1275 
L 1288 -1275 
L 1288 544 
L 1313 544 
C 1444 263 1725 -56 2281 -56 
C 3056 -56 3656 563 3656 1694 
C 3656 2856 3031 3438 2281 3438 
C 1713 3438 1438 3100 1313 2825 
L 1275 2825 
L 1275 3394 
L 363 3394 
L 363 -1275 
z
M 1269 1700 
C 1269 2313 1525 2700 1988 2700 
C 2463 2700 2713 2294 2713 1700 
C 2713 1100 2463 681 1988 681 
C 1531 681 1269 1088 1269 1700 
z
" transform="scale(0.015625)"/>
     </defs>
     <use xlink:href="#Pretendard-Bold-72"/>
     <use xlink:href="#Pretendard-Bold-65" x="38.964844"/>
     <use xlink:href="#Pretendard-Bold-63" x="96.386719"/>
     <use xlink:href="#Pretendard-Bold-6f" x="152.734375"/>
     <use xlink:href="#Pretendard-Bold-6e" x="211.71875"/>
     <use xlink:href="#Pretendard-Bold-63" x="271.484375"/>
     <use xlink:href="#Pretendard-Bold-69" x="327.832031"/>
     <use xlink:href="#Pretendard-Bold-6c" x="353.515625"/>
     <use xlink:href="#Pretendard-Bold-65" x="379.199219"/>
     <use xlink:href="#Pretendard-Bold-64" x="436.621094"/>
     <use xlink:href="#Pretendard-Bold-20" x="497.753906"/>
     <use xlink:href="#Pretendard-Bold-38" x="520.800781"/>
     <use xlink:href="#Pretendard-Bold-35" x="585.15625"/>
     <use xlink:href="#Pretendard-Bold-2e" x="647.851562"/>
     <use xlink:href="#Pretendard-Bold-32" x="676.074219"/>
     <use xlink:href="#Pretendard-Bold-25" x="737.109375"/>
     <use xlink:href="#Pretendard-Bold-20" x="833.105469"/>
     <use xlink:href="#Pretendard-Bold-6f" x="856.152344"/>
     <use xlink:href="#Pretendard-Bold-66" x="915.136719"/>
     <use xlink:href="#Pretendard-Bold-20" x="951.855469"/>
     <use xlink:href="#Pretendard-Bold-70" x="974.902344"/>
     <use xlink:href="#Pretendard-Bold-72" x="1035.742188"/>
     <use xlink:href="#Pretendard-Bold-65" x="1074.707031"/>
     <use xlink:href="#Pretendard-Bold-64" x="1132.128906"/>
     <use xlink:href="#Pretendard-Bold-69" x="1193.261719"/>
     <use xlink:href="#Pretendard-Bold-63" x="1218.945312"/>
     <use xlink:href="#Pretendard-Bold-74" x="1275.292969"/>
     <use xlink:href="#Pretendard-Bold-69" x="1312.304688"/>
     <use xlink:href="#Pretendard-Bold-6f" x="1337.988281"/>
     <use xlink:href="#Pretendard-Bold-6e" x="1396.972656"/>
    </g>
   </g>
   <g id="text_4">
    <!-- A -->
    <g transform="translate(7.2 38.394302) scale(0.095 -0.095)">
     <defs>
      <path id="Pretendard-Bold-41" d="M 1138 0 
L 1481 1044 
L 3119 1044 
L 3456 0 
L 4463 0 
L 2900 4525 
L 1694 4525 
L 125 0 
L 1138 0 
z
M 1719 1775 
L 2281 3506 
L 2313 3506 
L 2881 1775 
L 1719 1775 
z
" transform="scale(0.015625)"/>
     </defs>
     <use xlink:href="#Pretendard-Bold-41"/>
    </g>
   </g>
   <g id="text_5">
    <!-- Designated affected side -->
    <g transform="translate(25.084432 46.401) scale(0.085 -0.085)">
     <defs>
      <path id="Pretendard-Regular-44" d="M 1906 0 
C 3281 0 4063 856 4063 2269 
C 4063 3675 3281 4525 1963 4525 
L 500 4525 
L 500 0 
L 1906 0 
z
M 1063 500 
L 1063 4025 
L 1925 4025 
C 2981 4025 3513 3363 3513 2269 
C 3513 1169 2981 500 1869 500 
L 1063 500 
z
" transform="scale(0.015625)"/>
      <path id="Pretendard-Regular-73" d="M 2319 2513 
L 2844 2513 
C 2775 3063 2331 3438 1631 3438 
C 881 3438 375 3019 375 2438 
C 375 1988 688 1663 1281 1525 
L 1794 1406 
C 2181 1319 2350 1156 2350 919 
C 2350 600 2044 400 1563 400 
C 1138 400 894 556 831 888 
L 269 888 
C 356 269 813 -69 1575 -69 
C 2425 -69 2906 363 2906 950 
C 2906 1425 2606 1725 2000 1869 
L 1494 1994 
C 1094 2088 913 2244 913 2469 
C 913 2756 1213 2981 1631 2981 
C 2031 2981 2244 2794 2319 2513 
z
" transform="scale(0.015625)"/>
      <path id="Pretendard-Regular-69" d="M 431 0 
L 969 0 
L 969 3394 
L 431 3394 
L 431 0 
z
M 700 3956 
C 906 3956 1081 4113 1081 4313 
C 1081 4513 906 4669 700 4669 
C 494 4669 325 4513 325 4313 
C 325 4113 494 3956 700 3956 
z
" transform="scale(0.015625)"/>
      <path id="Pretendard-Regular-67" d="M 1806 -1344 
C 2631 -1344 3281 -969 3281 -94 
L 3281 3394 
L 2756 3394 
L 2756 2856 
L 2713 2856 
C 2588 3038 2375 3438 1719 3438 
C 869 3438 269 2788 269 1744 
C 269 675 888 50 1713 50 
C 2369 50 2588 438 2700 625 
L 2744 625 
L 2744 -63 
C 2744 -625 2388 -875 1806 -875 
C 1325 -875 1006 -700 931 -356 
L 369 -356 
C 431 -988 988 -1344 1806 -1344 
z
M 1788 531 
C 1144 531 813 1019 813 1725 
C 813 2406 1138 2956 1788 2956 
C 2419 2956 2756 2450 2756 1725 
C 2756 975 2406 531 1788 531 
z
" transform="scale(0.015625)"/>
      <path id="Pretendard-Regular-61" d="M 269 963 
C 269 300 781 -81 1425 -81 
C 2013 -81 2325 231 2438 463 
L 2463 463 
L 2463 0 
L 2994 0 
L 2994 2238 
C 2994 3306 2163 3438 1719 3438 
C 969 3438 438 3056 369 2513 
L 931 2513 
C 1006 2769 1263 2969 1694 2969 
C 2206 2969 2463 2719 2463 2288 
L 2463 2013 
C 2309 2006 1759 1978 1544 1963 
C 956 1919 269 1744 269 963 
z
M 806 938 
C 806 1306 1119 1481 1606 1513 
L 2463 1575 
L 2463 1231 
C 2463 806 2125 400 1519 400 
C 1106 400 806 581 806 938 
z
" transform="scale(0.015625)"/>
      <path id="Pretendard-Regular-20" transform="scale(0.015625)"/>
     </defs>
     <use xlink:href="#Pretendard-Regular-44"/>
     <use xlink:href="#Pretendard-Regular-65" x="68.554688"/>
     <use xlink:href="#Pretendard-Regular-73" x="123.828125"/>
     <use xlink:href="#Pretendard-Regular-69" x="173.4375"/>
     <use xlink:href="#Pretendard-Regular-67" x="195.214844"/>
     <use xlink:href="#Pretendard-Regular-6e" x="253.125"/>
     <use xlink:href="#Pretendard-Regular-61" x="308.789062"/>
     <use xlink:href="#Pretendard-Regular-74" x="362.304688"/>
     <use xlink:href="#Pretendard-Regular-65" x="396.289062"/>
     <use xlink:href="#Pretendard-Regular-64" x="451.5625"/>
     <use xlink:href="#Pretendard-Regular-20" x="510.644531"/>
     <use xlink:href="#Pretendard-Regular-61" x="535.742188"/>
     <use xlink:href="#Pretendard-Regular-66" x="589.257812"/>
     <use xlink:href="#Pretendard-Regular-66" x="622.949219"/>
     <use xlink:href="#Pretendard-Regular-65" x="656.640625"/>
     <use xlink:href="#Pretendard-Regular-63" x="711.914062"/>
     <use xlink:href="#Pretendard-Regular-74" x="764.84375"/>
     <use xlink:href="#Pretendard-Regular-65" x="798.828125"/>
     <use xlink:href="#Pretendard-Regular-64" x="854.101562"/>
     <use xlink:href="#Pretendard-Regular-20" x="913.183594"/>
     <use xlink:href="#Pretendard-Regular-73" x="938.28125"/>
     <use xlink:href="#Pretendard-Regular-69" x="987.890625"/>
     <use xlink:href="#Pretendard-Regular-64" x="1009.667969"/>
     <use xlink:href="#Pretendard-Regular-65" x="1068.75"/>
    </g>
   </g>
  </g>
  <g id="axes_2">
   <g id="patch_7">
    <path d="M 285.50481 78.874056 
C 282.592894 83.505265 280.465833 88.585808 279.209648 93.910219 
C 277.953462 99.234631 277.585318 104.730154 278.120104 110.174542 
C 278.654889 115.61893 280.085297 120.937787 282.353479 125.91601 
C 284.62166 130.894233 287.696622 135.463797 291.454008 139.439902 
C 295.211395 143.416006 299.599861 146.744319 304.441932 149.290238 
C 309.284003 151.836157 314.513513 153.564893 319.918973 154.406534 
C 325.324433 155.248175 330.831979 155.191219 336.218877 154.237971 
C 341.605776 153.284722 346.798416 151.448207 351.586801 148.802696 
C 356.375186 146.157185 360.693882 142.738828 364.368237 138.685869 
C 368.042592 134.632911 371.022395 130.000732 373.187139 124.976666 
C 375.351884 119.9526 376.671989 114.605299 377.094067 109.151016 
C 377.516146 103.696733 377.03443 98.209998 375.668402 92.912705 
C 374.302374 87.615411 372.070699 82.579943 369.06363 78.009944 
C 366.056561 73.439945 362.315189 69.397861 357.99082 66.047162 
C 353.666451 62.696462 348.818176 60.082933 343.642067 58.312268 
C 338.465958 56.541604 333.032745 55.638 327.562155 55.638 
L 327.562155 69.0516 
C 331.555685 69.0516 335.521931 69.711231 339.300491 71.003816 
C 343.07905 72.296401 346.618291 74.204277 349.77508 76.650288 
C 352.93187 79.096299 355.663072 82.04702 357.858232 85.383119 
C 360.053392 88.719218 361.682515 92.39511 362.679715 96.262134 
C 363.676916 100.129159 364.028568 104.134475 363.720451 108.116102 
C 363.412334 112.097729 362.448657 116.001258 360.868394 119.668826 
C 359.28813 123.336394 357.112874 126.717885 354.430595 129.676545 
C 351.748316 132.635204 348.595667 135.130605 345.100146 137.061828 
C 341.604626 138.993051 337.813998 140.333707 333.881562 141.029579 
C 329.949126 141.72545 325.928618 141.767028 321.982632 141.15263 
C 318.036647 140.538232 314.219104 139.276255 310.684392 137.417734 
C 307.14968 135.559213 303.9461 133.129545 301.203208 130.226988 
C 298.460316 127.324432 296.215594 123.98865 294.559821 120.354547 
C 292.904049 116.720444 291.859851 112.837679 291.469457 108.863276 
C 291.079064 104.888872 291.347809 100.87714 292.264824 96.99032 
C 293.18184 93.1035 294.734595 89.394704 296.860293 86.013921 
L 285.50481 78.874056 
z
" style="fill: #0072b2; stroke: #ffffff; stroke-width: 0.9; stroke-linejoin: miter"/>
   </g>
   <g id="patch_8">
    <path d="M 327.562159 55.638 
C 319.159402 55.637999 310.892409 57.769832 303.53751 61.833303 
C 296.182612 65.896774 289.977476 71.760577 285.50481 78.874056 
L 296.860293 86.013921 
C 300.125339 80.821081 304.655089 76.540505 310.024164 73.574171 
C 315.39324 70.607837 321.428145 69.051599 327.562158 69.0516 
L 327.562159 55.638 
z
" style="fill: #cc79a7; stroke: #ffffff; stroke-width: 0.9; stroke-linejoin: miter"/>
   </g>
   <g id="patch_9">
    <path d="M 298.381229 121.330643 
C 301.206568 126.479451 305.344928 130.789921 310.374401 133.822601 
C 315.403875 136.855282 321.147532 138.503487 327.019806 138.599181 
C 332.89208 138.694876 338.686391 137.234693 343.812008 134.367499 
C 348.937626 131.500306 353.214238 127.326966 356.205842 122.272951 
C 359.197446 117.218936 360.798801 111.462042 360.84665 105.589183 
C 360.894499 99.716325 359.387157 93.934102 356.4783 88.832014 
C 353.569442 83.729926 349.361398 79.487458 344.283178 76.537129 
C 339.204958 73.5868 333.435208 72.0324 327.562155 72.0324 
L 327.562155 85.446 
C 331.068455 85.446 334.513082 86.374 337.544855 88.13539 
C 340.576628 89.896781 343.088893 92.429598 344.825525 95.47562 
C 346.562156 98.521643 347.462062 101.973716 347.433495 105.479901 
C 347.404929 108.986085 346.448896 112.423037 344.662863 115.440359 
C 342.876831 118.457681 340.32363 120.949227 337.26356 122.660985 
C 334.20349 124.372742 330.744199 125.244493 327.238364 125.187362 
C 323.732529 125.130231 320.30348 124.146228 317.300809 122.335673 
C 314.298139 120.525117 311.827476 117.951702 310.140707 114.877787 
L 298.381229 121.330643 
z
" style="fill: #009e73; stroke: #ffffff; stroke-width: 0.9; stroke-linejoin: miter"/>
   </g>
   <g id="patch_10">
    <path d="M 319.402093 73.048129 
C 314.473222 74.29449 309.894797 76.653687 306.019216 79.944136 
C 302.143635 83.234585 299.07295 87.369641 297.043511 92.031031 
C 295.014071 96.692421 294.079316 101.757401 294.311193 106.836123 
C 294.543069 111.914845 295.935472 116.873575 298.381229 121.330643 
L 310.140707 114.877787 
C 308.680553 112.216851 307.849268 109.256415 307.710834 106.224342 
C 307.5724 103.192269 308.130463 100.168401 309.342069 97.385481 
C 310.553674 94.602562 312.386919 92.133872 314.700699 90.169425 
C 317.014478 88.204978 319.747867 86.796501 322.690476 86.052406 
L 319.402093 73.048129 
z
" style="fill: #e69f00; stroke: #ffffff; stroke-width: 0.9; stroke-linejoin: miter"/>
   </g>
   <g id="patch_11">
    <path d="M 327.562155 72.0324 
C 326.187701 72.0324 324.814566 72.117532 323.450637 72.287308 
C 322.086709 72.457084 320.734605 72.711178 319.402093 73.048129 
L 322.690476 86.052406 
C 323.486006 85.85124 324.293232 85.699543 325.107517 85.598184 
C 325.921803 85.496825 326.741585 85.446 327.562155 85.446 
L 327.562155 72.0324 
z
" style="fill: #dddddd; stroke: #ffffff; stroke-width: 0.9; stroke-linejoin: miter"/>
   </g>
   <g id="text_6">
    <!-- Contralateral -->
    <g transform="translate(306.426944 100.686203) scale(0.073 -0.073)">
     <defs>
      <path id="Pretendard-Regular-43" d="M 3588 3100 
L 4150 3100 
C 3981 4038 3238 4588 2325 4588 
C 1163 4588 325 3694 325 2263 
C 325 831 1163 -63 2325 -63 
C 3244 -63 3988 494 4150 1419 
L 3588 1419 
C 3450 800 2919 463 2325 463 
C 1506 463 869 1094 869 2263 
C 869 3431 1506 4063 2325 4063 
C 2919 4063 3456 3725 3588 3100 
z
" transform="scale(0.015625)"/>
      <path id="Pretendard-Regular-6f" d="M 1819 -69 
C 2738 -69 3356 625 3356 1681 
C 3356 2738 2738 3438 1819 3438 
C 894 3438 269 2738 269 1681 
C 269 625 894 -69 1819 -69 
z
M 1819 406 
C 1125 406 806 1006 806 1681 
C 806 2356 1125 2963 1819 2963 
C 2500 2963 2819 2356 2819 1681 
C 2819 1006 2500 406 1819 406 
z
" transform="scale(0.015625)"/>
      <path id="Pretendard-Regular-72" d="M 431 0 
L 969 0 
L 969 2138 
C 969 2594 1331 2931 1819 2931 
C 1956 2931 2106 2906 2144 2894 
L 2144 3438 
C 2081 3444 1944 3450 1863 3450 
C 1463 3450 1113 3219 988 2875 
L 950 2875 
L 950 3394 
L 431 3394 
L 431 0 
z
" transform="scale(0.015625)"/>
      <path id="Pretendard-Regular-6c" d="M 969 4525 
L 431 4525 
L 431 0 
L 969 0 
L 969 4525 
z
" transform="scale(0.015625)"/>
     </defs>
     <use xlink:href="#Pretendard-Regular-43"/>
     <use xlink:href="#Pretendard-Regular-6f" x="69.335938"/>
     <use xlink:href="#Pretendard-Regular-6e" x="126.074219"/>
     <use xlink:href="#Pretendard-Regular-74" x="181.738281"/>
     <use xlink:href="#Pretendard-Regular-72" x="215.722656"/>
     <use xlink:href="#Pretendard-Regular-61" x="250.683594"/>
     <use xlink:href="#Pretendard-Regular-6c" x="304.199219"/>
     <use xlink:href="#Pretendard-Regular-61" x="325.976562"/>
     <use xlink:href="#Pretendard-Regular-74" x="379.492188"/>
     <use xlink:href="#Pretendard-Regular-65" x="413.476562"/>
     <use xlink:href="#Pretendard-Regular-72" x="468.75"/>
     <use xlink:href="#Pretendard-Regular-61" x="503.710938"/>
     <use xlink:href="#Pretendard-Regular-6c" x="557.226562"/>
    </g>
    <!-- n=3,000 -->
    <g transform="translate(313.523912 108.681984) scale(0.073 -0.073)">
     <defs>
      <path id="Pretendard-Regular-33" d="M 1988 -63 
C 2888 -63 3569 488 3563 1231 
C 3569 1806 3206 2225 2619 2319 
L 2619 2350 
C 3094 2481 3394 2863 3388 3375 
C 3394 4025 2869 4588 2006 4588 
C 1200 4588 538 4106 506 3388 
L 1050 3388 
C 1075 3831 1519 4100 2000 4100 
C 2513 4100 2844 3794 2844 3344 
C 2844 2875 2463 2569 1913 2569 
L 1544 2569 
L 1544 2075 
L 1913 2075 
C 2619 2075 3013 1725 3013 1231 
C 3013 763 2575 438 1981 438 
C 1444 438 1013 706 981 1138 
L 413 1138 
C 444 419 1088 -63 1988 -63 
z
" transform="scale(0.015625)"/>
      <path id="Pretendard-Regular-30" d="M 1906 -63 
C 2906 -63 3488 781 3488 2263 
C 3488 3731 2900 4588 1906 4588 
C 913 4588 325 3731 325 2263 
C 325 781 900 -63 1906 -63 
z
M 1906 438 
C 1250 438 869 1094 869 2263 
C 869 3431 1256 4100 1906 4100 
C 2556 4100 2938 3431 2938 2263 
C 2938 1094 2556 438 1906 438 
z
" transform="scale(0.015625)"/>
     </defs>
     <use xlink:href="#Pretendard-Regular-6e"/>
     <use xlink:href="#Pretendard-Regular-3d" x="55.664062"/>
     <use xlink:href="#Pretendard-Regular-33" x="118.359375"/>
     <use xlink:href="#Pretendard-Regular-2c" x="180.078125"/>
     <use xlink:href="#Pretendard-Regular-30" x="205.859375"/>
     <use xlink:href="#Pretendard-Regular-30" x="265.429688"/>
     <use xlink:href="#Pretendard-Regular-30" x="325"/>
    </g>
   </g>
   <g id="text_7">
    <!-- real-first 83.9% -->
    <g style="fill: #0072b2" transform="translate(300.765756 166.736734) scale(0.071 -0.071)">
     <defs>
      <path id="Pretendard-Bold-33" d="M 2031 -63 
C 3050 -63 3788 494 3781 1269 
C 3788 1831 3419 2238 2756 2319 
L 2756 2356 
C 3263 2444 3619 2806 3613 3313 
C 3619 4031 2988 4588 2044 4588 
C 1119 4588 413 4050 400 3269 
L 1300 3269 
C 1313 3613 1644 3838 2044 3838 
C 2444 3838 2706 3600 2706 3256 
C 2706 2900 2394 2656 1950 2656 
L 1531 2656 
L 1531 1963 
L 1950 1963 
C 2481 1963 2813 1700 2806 1331 
C 2813 969 2488 713 2038 713 
C 1600 713 1275 938 1256 1275 
L 306 1275 
C 325 488 1038 -63 2031 -63 
z
" transform="scale(0.015625)"/>
      <path id="Pretendard-Bold-39" d="M 2006 4588 
C 981 4594 294 3931 294 3019 
C 300 2175 900 1563 1713 1563 
C 2219 1563 2663 1800 2875 2200 
L 2913 2200 
C 2913 1294 2588 744 1969 744 
C 1606 744 1344 944 1269 1275 
L 344 1275 
C 438 506 1056 -63 1969 -63 
C 3106 -63 3838 844 3831 2381 
C 3831 4025 2944 4581 2006 4588 
z
M 2013 3850 
C 2475 3850 2813 3481 2819 3050 
C 2819 2613 2463 2250 2006 2250 
C 1544 2250 1213 2600 1213 3044 
C 1206 3494 1550 3850 2013 3850 
z
" transform="scale(0.015625)"/>
     </defs>
     <use xlink:href="#Pretendard-Bold-72"/>
     <use xlink:href="#Pretendard-Bold-65" x="38.964844"/>
     <use xlink:href="#Pretendard-Bold-61" x="96.386719"/>
     <use xlink:href="#Pretendard-Bold-6c" x="152.148438"/>
     <use xlink:href="#Pretendard-Bold-2d" x="177.832031"/>
     <use xlink:href="#Pretendard-Bold-66" x="222.753906"/>
     <use xlink:href="#Pretendard-Bold-69" x="259.472656"/>
     <use xlink:href="#Pretendard-Bold-72" x="285.15625"/>
     <use xlink:href="#Pretendard-Bold-73" x="324.121094"/>
     <use xlink:href="#Pretendard-Bold-74" x="378.027344"/>
     <use xlink:href="#Pretendard-Bold-20" x="415.039062"/>
     <use xlink:href="#Pretendard-Bold-38" x="438.085938"/>
     <use xlink:href="#Pretendard-Bold-33" x="502.441406"/>
     <use xlink:href="#Pretendard-Bold-2e" x="566.308594"/>
     <use xlink:href="#Pretendard-Bold-39" x="594.53125"/>
     <use xlink:href="#Pretendard-Bold-25" x="658.789062"/>
    </g>
   </g>
   <g id="text_8">
    <!-- reconciled 96.1% of prediction -->
    <g style="fill: #009e73" transform="translate(276.296827 175.821134) scale(0.071 -0.071)">
     <defs>
      <path id="Pretendard-Bold-36" d="M 2106 -63 
C 3125 -69 3819 594 3819 1513 
C 3819 2363 3213 2975 2400 2975 
C 1900 2975 1450 2738 1244 2338 
L 1200 2338 
C 1206 3225 1531 3781 2144 3781 
C 2506 3781 2769 3588 2844 3269 
L 3769 3269 
C 3675 4013 3056 4588 2144 4588 
C 1013 4588 281 3681 281 2156 
C 281 500 1169 -56 2106 -63 
z
M 2100 681 
C 1638 681 1300 1044 1294 1488 
C 1300 1931 1650 2294 2113 2294 
C 2575 2294 2906 1938 2906 1488 
C 2906 1031 2563 681 2100 681 
z
" transform="scale(0.015625)"/>
      <path id="Pretendard-Bold-31" d="M 2306 4525 
L 1419 4525 
L 300 3813 
L 300 2981 
L 1338 3631 
L 1363 3631 
L 1363 0 
L 2306 0 
L 2306 4525 
z
" transform="scale(0.015625)"/>
     </defs>
     <use xlink:href="#Pretendard-Bold-72"/>
     <use xlink:href="#Pretendard-Bold-65" x="38.964844"/>
     <use xlink:href="#Pretendard-Bold-63" x="96.386719"/>
     <use xlink:href="#Pretendard-Bold-6f" x="152.734375"/>
     <use xlink:href="#Pretendard-Bold-6e" x="211.71875"/>
     <use xlink:href="#Pretendard-Bold-63" x="271.484375"/>
     <use xlink:href="#Pretendard-Bold-69" x="327.832031"/>
     <use xlink:href="#Pretendard-Bold-6c" x="353.515625"/>
     <use xlink:href="#Pretendard-Bold-65" x="379.199219"/>
     <use xlink:href="#Pretendard-Bold-64" x="436.621094"/>
     <use xlink:href="#Pretendard-Bold-20" x="497.753906"/>
     <use xlink:href="#Pretendard-Bold-39" x="520.800781"/>
     <use xlink:href="#Pretendard-Bold-36" x="585.058594"/>
     <use xlink:href="#Pretendard-Bold-2e" x="649.316406"/>
     <use xlink:href="#Pretendard-Bold-31" x="677.539062"/>
     <use xlink:href="#Pretendard-Bold-25" x="724.414062"/>
     <use xlink:href="#Pretendard-Bold-20" x="820.410156"/>
     <use xlink:href="#Pretendard-Bold-6f" x="843.457031"/>
     <use xlink:href="#Pretendard-Bold-66" x="902.441406"/>
     <use xlink:href="#Pretendard-Bold-20" x="939.160156"/>
     <use xlink:href="#Pretendard-Bold-70" x="962.207031"/>
     <use xlink:href="#Pretendard-Bold-72" x="1023.046875"/>
     <use xlink:href="#Pretendard-Bold-65" x="1062.011719"/>
     <use xlink:href="#Pretendard-Bold-64" x="1119.433594"/>
     <use xlink:href="#Pretendard-Bold-69" x="1180.566406"/>
     <use xlink:href="#Pretendard-Bold-63" x="1206.25"/>
     <use xlink:href="#Pretendard-Bold-74" x="1262.597656"/>
     <use xlink:href="#Pretendard-Bold-69" x="1299.609375"/>
     <use xlink:href="#Pretendard-Bold-6f" x="1325.292969"/>
     <use xlink:href="#Pretendard-Bold-6e" x="1384.277344"/>
    </g>
   </g>
   <g id="text_9">
    <!-- B -->
    <g transform="translate(261.905067 38.394302) scale(0.095 -0.095)">
     <defs>
      <path id="Pretendard-Bold-42" d="M 381 0 
L 2300 0 
C 3325 0 3863 531 3863 1250 
C 3863 1919 3381 2325 2869 2350 
L 2869 2394 
C 3338 2500 3681 2831 3681 3363 
C 3681 4044 3181 4525 2181 4525 
L 381 4525 
L 381 0 
z
M 2113 775 
L 1319 775 
L 1319 1988 
L 2138 1988 
C 2600 1988 2888 1719 2888 1338 
C 2888 1000 2656 775 2113 775 
z
M 2044 2631 
L 1319 2631 
L 1319 3763 
L 2063 3763 
C 2494 3763 2731 3538 2731 3213 
C 2731 2850 2438 2631 2044 2631 
z
" transform="scale(0.015625)"/>
     </defs>
     <use xlink:href="#Pretendard-Bold-42"/>
    </g>
   </g>
   <g id="text_10">
    <!-- Contralateral side -->
    <g transform="translate(293.991803 46.492641) scale(0.085 -0.085)">
     <use xlink:href="#Pretendard-Regular-43"/>
     <use xlink:href="#Pretendard-Regular-6f" x="69.335938"/>
     <use xlink:href="#Pretendard-Regular-6e" x="126.074219"/>
     <use xlink:href="#Pretendard-Regular-74" x="181.738281"/>
     <use xlink:href="#Pretendard-Regular-72" x="215.722656"/>
     <use xlink:href="#Pretendard-Regular-61" x="250.683594"/>
     <use xlink:href="#Pretendard-Regular-6c" x="304.199219"/>
     <use xlink:href="#Pretendard-Regular-61" x="325.976562"/>
     <use xlink:href="#Pretendard-Regular-74" x="379.492188"/>
     <use xlink:href="#Pretendard-Regular-65" x="413.476562"/>
     <use xlink:href="#Pretendard-Regular-72" x="468.75"/>
     <use xlink:href="#Pretendard-Regular-61" x="503.710938"/>
     <use xlink:href="#Pretendard-Regular-6c" x="557.226562"/>
     <use xlink:href="#Pretendard-Regular-20" x="579.003906"/>
     <use xlink:href="#Pretendard-Regular-73" x="604.101562"/>
     <use xlink:href="#Pretendard-Regular-69" x="653.710938"/>
     <use xlink:href="#Pretendard-Regular-64" x="675.488281"/>
     <use xlink:href="#Pretendard-Regular-65" x="734.570312"/>
    </g>
   </g>
  </g>
  <g id="text_11">
   <!-- New N=4 cohort: online boundary source and delayed-real recovery -->
   <g transform="translate(35.705746 14.894422) scale(0.103 -0.103)">
    <defs>
     <path id="Pretendard-Bold-4e" d="M 4156 4525 
L 3225 4525 
L 3225 1650 
L 3181 1650 
L 1206 4525 
L 381 4525 
L 381 0 
L 1319 0 
L 1319 2875 
L 1356 2875 
L 3344 0 
L 4156 0 
L 4156 4525 
z
" transform="scale(0.015625)"/>
     <path id="Pretendard-Bold-77" d="M 1031 0 
L 2013 0 
L 2600 2156 
L 2644 2156 
L 3231 0 
L 4206 0 
L 5138 3394 
L 4200 3394 
L 3675 1113 
L 3644 1113 
L 3081 3394 
L 2163 3394 
L 1606 1100 
L 1575 1100 
L 1044 3394 
L 106 3394 
L 1031 0 
z
" transform="scale(0.015625)"/>
     <path id="Pretendard-Bold-3d" d="M 575 2156 
L 3613 2156 
L 3613 2925 
L 575 2925 
L 575 2156 
z
M 575 694 
L 3613 694 
L 3613 1463 
L 575 1463 
L 575 694 
z
" transform="scale(0.015625)"/>
     <path id="Pretendard-Bold-34" d="M 281 800 
L 2481 800 
L 2481 0 
L 3375 0 
L 3375 800 
L 3950 800 
L 3950 1556 
L 3375 1556 
L 3375 4525 
L 2194 4525 
L 281 1544 
L 281 800 
z
M 1231 1556 
L 1231 1594 
L 2450 3494 
L 2494 3494 
L 2494 1556 
L 1231 1556 
z
" transform="scale(0.015625)"/>
     <path id="Pretendard-Bold-68" d="M 1288 1963 
C 1288 2413 1563 2669 1950 2669 
C 2338 2669 2563 2419 2563 2000 
L 2563 0 
L 3488 0 
L 3488 2163 
C 3488 2963 3019 3438 2313 3438 
C 1800 3438 1456 3194 1300 2800 
L 1263 2800 
L 1263 4525 
L 363 4525 
L 363 0 
L 1288 0 
L 1288 1963 
z
" transform="scale(0.015625)"/>
     <path id="Pretendard-Bold-3a" d="M 906 -56 
C 1181 -56 1425 181 1425 469 
C 1425 756 1181 988 906 988 
C 613 988 375 756 381 469 
C 375 181 613 -56 906 -56 
z
M 906 2325 
C 1181 2325 1425 2563 1425 2850 
C 1425 3138 1181 3369 906 3369 
C 613 3369 375 3138 381 2850 
C 375 2563 613 2325 906 2325 
z
" transform="scale(0.015625)"/>
     <path id="Pretendard-Bold-62" d="M 381 0 
L 1294 0 
L 1294 544 
L 1331 544 
C 1463 263 1744 -56 2300 -56 
C 3075 -56 3681 563 3681 1694 
C 3681 2856 3050 3438 2300 3438 
C 1731 3438 1463 3100 1331 2825 
L 1306 2825 
L 1306 4525 
L 381 4525 
L 381 0 
z
M 1288 1700 
C 1288 2313 1544 2700 2006 2700 
C 2481 2700 2731 2294 2731 1700 
C 2731 1100 2481 681 2006 681 
C 1550 681 1288 1088 1288 1700 
z
" transform="scale(0.015625)"/>
     <path id="Pretendard-Bold-75" d="M 2538 1444 
C 2538 981 2219 738 1881 738 
C 1519 738 1288 994 1288 1394 
L 1288 3394 
L 363 3394 
L 363 1231 
C 363 438 825 -44 1506 -44 
C 2019 -44 2381 219 2538 613 
L 2575 613 
L 2575 0 
L 3463 0 
L 3463 3394 
L 2538 3394 
L 2538 1444 
z
" transform="scale(0.015625)"/>
     <path id="Pretendard-Bold-79" d="M 906 -1275 
C 1625 -1275 1994 -919 2188 -375 
L 3513 3394 
L 2531 3394 
L 1813 894 
L 1775 894 
L 1063 3394 
L 94 3394 
L 1313 -94 
L 1256 -238 
C 1144 -531 994 -550 813 -550 
C 694 -550 556 -544 438 -538 
L 438 -1256 
C 556 -1269 725 -1275 906 -1275 
z
" transform="scale(0.015625)"/>
     <path id="Pretendard-Bold-76" d="M 3513 3394 
L 2531 3394 
L 1819 956 
L 1781 956 
L 1069 3394 
L 94 3394 
L 1281 0 
L 2319 0 
L 3513 3394 
z
" transform="scale(0.015625)"/>
    </defs>
    <use xlink:href="#Pretendard-Bold-4e"/>
    <use xlink:href="#Pretendard-Bold-65" x="70.898438"/>
    <use xlink:href="#Pretendard-Bold-77" x="128.320312"/>
    <use xlink:href="#Pretendard-Bold-20" x="210.253906"/>
    <use xlink:href="#Pretendard-Bold-4e" x="233.300781"/>
    <use xlink:href="#Pretendard-Bold-3d" x="304.199219"/>
    <use xlink:href="#Pretendard-Bold-34" x="369.53125"/>
    <use xlink:href="#Pretendard-Bold-20" x="435.253906"/>
    <use xlink:href="#Pretendard-Bold-63" x="458.300781"/>
    <use xlink:href="#Pretendard-Bold-6f" x="514.648438"/>
    <use xlink:href="#Pretendard-Bold-68" x="573.632812"/>
    <use xlink:href="#Pretendard-Bold-6f" x="633.59375"/>
    <use xlink:href="#Pretendard-Bold-72" x="692.578125"/>
    <use xlink:href="#Pretendard-Bold-74" x="731.542969"/>
    <use xlink:href="#Pretendard-Bold-3a" x="768.554688"/>
    <use xlink:href="#Pretendard-Bold-20" x="796.777344"/>
    <use xlink:href="#Pretendard-Bold-6f" x="819.824219"/>
    <use xlink:href="#Pretendard-Bold-6e" x="878.808594"/>
    <use xlink:href="#Pretendard-Bold-6c" x="938.574219"/>
    <use xlink:href="#Pretendard-Bold-69" x="964.257812"/>
    <use xlink:href="#Pretendard-Bold-6e" x="989.941406"/>
    <use xlink:href="#Pretendard-Bold-65" x="1049.707031"/>
    <use xlink:href="#Pretendard-Bold-20" x="1107.128906"/>
    <use xlink:href="#Pretendard-Bold-62" x="1130.175781"/>
    <use xlink:href="#Pretendard-Bold-6f" x="1191.308594"/>
    <use xlink:href="#Pretendard-Bold-75" x="1250.292969"/>
    <use xlink:href="#Pretendard-Bold-6e" x="1309.960938"/>
    <use xlink:href="#Pretendard-Bold-64" x="1369.726562"/>
    <use xlink:href="#Pretendard-Bold-61" x="1430.859375"/>
    <use xlink:href="#Pretendard-Bold-72" x="1486.621094"/>
    <use xlink:href="#Pretendard-Bold-79" x="1525.585938"/>
    <use xlink:href="#Pretendard-Bold-20" x="1581.835938"/>
    <use xlink:href="#Pretendard-Bold-73" x="1604.882812"/>
    <use xlink:href="#Pretendard-Bold-6f" x="1658.789062"/>
    <use xlink:href="#Pretendard-Bold-75" x="1717.773438"/>
    <use xlink:href="#Pretendard-Bold-72" x="1777.441406"/>
    <use xlink:href="#Pretendard-Bold-63" x="1816.40625"/>
    <use xlink:href="#Pretendard-Bold-65" x="1872.753906"/>
    <use xlink:href="#Pretendard-Bold-20" x="1930.175781"/>
    <use xlink:href="#Pretendard-Bold-61" x="1953.222656"/>
    <use xlink:href="#Pretendard-Bold-6e" x="2008.984375"/>
    <use xlink:href="#Pretendard-Bold-64" x="2068.75"/>
    <use xlink:href="#Pretendard-Bold-20" x="2129.882812"/>
    <use xlink:href="#Pretendard-Bold-64" x="2152.929688"/>
    <use xlink:href="#Pretendard-Bold-65" x="2214.0625"/>
    <use xlink:href="#Pretendard-Bold-6c" x="2271.484375"/>
    <use xlink:href="#Pretendard-Bold-61" x="2297.167969"/>
    <use xlink:href="#Pretendard-Bold-79" x="2352.929688"/>
    <use xlink:href="#Pretendard-Bold-65" x="2409.179688"/>
    <use xlink:href="#Pretendard-Bold-64" x="2466.601562"/>
    <use xlink:href="#Pretendard-Bold-2d" x="2527.734375"/>
    <use xlink:href="#Pretendard-Bold-72" x="2572.65625"/>
    <use xlink:href="#Pretendard-Bold-65" x="2611.621094"/>
    <use xlink:href="#Pretendard-Bold-61" x="2669.042969"/>
    <use xlink:href="#Pretendard-Bold-6c" x="2724.804688"/>
    <use xlink:href="#Pretendard-Bold-20" x="2750.488281"/>
    <use xlink:href="#Pretendard-Bold-72" x="2773.535156"/>
    <use xlink:href="#Pretendard-Bold-65" x="2812.5"/>
    <use xlink:href="#Pretendard-Bold-63" x="2869.921875"/>
    <use xlink:href="#Pretendard-Bold-6f" x="2926.269531"/>
    <use xlink:href="#Pretendard-Bold-76" x="2985.253906"/>
    <use xlink:href="#Pretendard-Bold-65" x="3041.503906"/>
    <use xlink:href="#Pretendard-Bold-72" x="3098.925781"/>
    <use xlink:href="#Pretendard-Bold-79" x="3137.890625"/>
   </g>
  </g>
  <g id="text_12">
   <!-- outer ring: timely real vs predicted application   |   inner ring: what happened after prediction -->
   <g style="fill: #555555" transform="translate(56.806418 26.676516) scale(0.07 -0.07)">
    <defs>
     <path id="Pretendard-Regular-75" d="M 2575 1394 
C 2575 763 2088 475 1706 475 
C 1275 475 969 788 969 1275 
L 969 3394 
L 431 3394 
L 431 1238 
C 431 375 888 -44 1531 -44 
C 2044 -44 2375 231 2538 575 
L 2575 575 
L 2575 0 
L 3106 0 
L 3106 3394 
L 2575 3394 
L 2575 1394 
z
" transform="scale(0.015625)"/>
     <path id="Pretendard-Regular-3a" d="M 813 -38 
C 1031 -38 1213 144 1213 369 
C 1213 588 1031 769 813 769 
C 594 769 406 588 413 369 
C 406 144 594 -38 813 -38 
z
M 813 2475 
C 1031 2475 1213 2656 1213 2881 
C 1213 3100 1031 3281 813 3281 
C 594 3281 406 3100 413 2881 
C 406 2656 594 2475 813 2475 
z
" transform="scale(0.015625)"/>
     <path id="Pretendard-Regular-6d" d="M 431 0 
L 969 0 
L 969 2119 
C 969 2613 1325 2956 1731 2956 
C 2119 2956 2394 2700 2394 2319 
L 2394 0 
L 2938 0 
L 2938 2206 
C 2938 2638 3206 2956 3681 2956 
C 4050 2956 4369 2763 4369 2263 
L 4369 0 
L 4906 0 
L 4906 2269 
C 4906 3069 4475 3438 3869 3438 
C 3381 3438 3025 3213 2850 2863 
L 2813 2863 
C 2650 3225 2350 3438 1906 3438 
C 1463 3438 1138 3225 994 2863 
L 950 2863 
L 950 3394 
L 431 3394 
L 431 0 
z
" transform="scale(0.015625)"/>
     <path id="Pretendard-Regular-79" d="M 775 -1275 
C 1256 -1275 1588 -1019 1788 -488 
L 3225 3394 
L 2638 3394 
L 1713 700 
L 1675 700 
L 750 3394 
L 163 3394 
L 1419 -25 
L 1319 -281 
C 1138 -775 956 -794 738 -794 
C 656 -794 531 -788 475 -781 
L 475 -1263 
C 544 -1269 656 -1275 775 -1275 
z
" transform="scale(0.015625)"/>
     <path id="Pretendard-Regular-76" d="M 3225 3394 
L 2638 3394 
L 1713 700 
L 1675 700 
L 750 3394 
L 163 3394 
L 1413 0 
L 1969 0 
L 3225 3394 
z
" transform="scale(0.015625)"/>
     <path id="Pretendard-Regular-70" d="M 431 -1275 
L 969 -1275 
L 969 519 
L 1013 519 
C 1125 331 1350 -69 2000 -69 
C 2844 -69 3438 613 3438 1688 
C 3438 2763 2844 3438 1994 3438 
C 1338 3438 1125 3038 1013 2856 
L 950 2856 
L 950 3394 
L 431 3394 
L 431 -1275 
z
M 956 1700 
C 956 2450 1288 2956 1925 2956 
C 2575 2956 2900 2406 2900 1700 
C 2900 975 2569 413 1925 413 
C 1300 413 956 938 956 1700 
z
" transform="scale(0.015625)"/>
     <path id="Pretendard-Regular-7c" d="M 1213 5163 
L 750 5163 
L 750 -638 
L 1213 -638 
L 1213 5163 
z
" transform="scale(0.015625)"/>
     <path id="Pretendard-Regular-77" d="M 1194 0 
L 1731 0 
L 2463 2588 
L 2513 2588 
L 3250 0 
L 3781 0 
L 4813 3394 
L 4250 3394 
L 3525 819 
L 3488 819 
L 2781 3394 
L 2206 3394 
L 1488 806 
L 1456 806 
L 731 3394 
L 163 3394 
L 1194 0 
z
" transform="scale(0.015625)"/>
     <path id="Pretendard-Regular-68" d="M 969 2038 
C 969 2625 1344 2956 1850 2956 
C 2338 2956 2631 2650 2631 2119 
L 2631 0 
L 3169 0 
L 3169 2156 
C 3169 3025 2706 3438 2013 3438 
C 1475 3438 1169 3213 1013 2863 
L 969 2863 
L 969 4525 
L 431 4525 
L 431 0 
L 969 0 
L 969 2038 
z
" transform="scale(0.015625)"/>
    </defs>
    <use xlink:href="#Pretendard-Regular-6f"/>
    <use xlink:href="#Pretendard-Regular-75" x="56.738281"/>
    <use xlink:href="#Pretendard-Regular-74" x="112.011719"/>
    <use xlink:href="#Pretendard-Regular-65" x="145.996094"/>
    <use xlink:href="#Pretendard-Regular-72" x="201.269531"/>
    <use xlink:href="#Pretendard-Regular-20" x="236.230469"/>
    <use xlink:href="#Pretendard-Regular-72" x="261.328125"/>
    <use xlink:href="#Pretendard-Regular-69" x="296.289062"/>
    <use xlink:href="#Pretendard-Regular-6e" x="318.066406"/>
    <use xlink:href="#Pretendard-Regular-67" x="373.730469"/>
    <use xlink:href="#Pretendard-Regular-3a" x="431.640625"/>
    <use xlink:href="#Pretendard-Regular-20" x="457.03125"/>
    <use xlink:href="#Pretendard-Regular-74" x="482.128906"/>
    <use xlink:href="#Pretendard-Regular-69" x="516.113281"/>
    <use xlink:href="#Pretendard-Regular-6d" x="537.890625"/>
    <use xlink:href="#Pretendard-Regular-65" x="621.289062"/>
    <use xlink:href="#Pretendard-Regular-6c" x="676.5625"/>
    <use xlink:href="#Pretendard-Regular-79" x="698.339844"/>
    <use xlink:href="#Pretendard-Regular-20" x="751.269531"/>
    <use xlink:href="#Pretendard-Regular-72" x="776.367188"/>
    <use xlink:href="#Pretendard-Regular-65" x="811.328125"/>
    <use xlink:href="#Pretendard-Regular-61" x="866.601562"/>
    <use xlink:href="#Pretendard-Regular-6c" x="920.117188"/>
    <use xlink:href="#Pretendard-Regular-20" x="941.894531"/>
    <use xlink:href="#Pretendard-Regular-76" x="966.992188"/>
    <use xlink:href="#Pretendard-Regular-73" x="1019.921875"/>
    <use xlink:href="#Pretendard-Regular-20" x="1069.53125"/>
    <use xlink:href="#Pretendard-Regular-70" x="1094.628906"/>
    <use xlink:href="#Pretendard-Regular-72" x="1152.539062"/>
    <use xlink:href="#Pretendard-Regular-65" x="1187.5"/>
    <use xlink:href="#Pretendard-Regular-64" x="1242.773438"/>
    <use xlink:href="#Pretendard-Regular-69" x="1301.855469"/>
    <use xlink:href="#Pretendard-Regular-63" x="1323.632812"/>
    <use xlink:href="#Pretendard-Regular-74" x="1376.5625"/>
    <use xlink:href="#Pretendard-Regular-65" x="1410.546875"/>
    <use xlink:href="#Pretendard-Regular-64" x="1465.820312"/>
    <use xlink:href="#Pretendard-Regular-20" x="1524.902344"/>
    <use xlink:href="#Pretendard-Regular-61" x="1550"/>
    <use xlink:href="#Pretendard-Regular-70" x="1603.515625"/>
    <use xlink:href="#Pretendard-Regular-70" x="1661.425781"/>
    <use xlink:href="#Pretendard-Regular-6c" x="1719.335938"/>
    <use xlink:href="#Pretendard-Regular-69" x="1741.113281"/>
    <use xlink:href="#Pretendard-Regular-63" x="1762.890625"/>
    <use xlink:href="#Pretendard-Regular-61" x="1815.820312"/>
    <use xlink:href="#Pretendard-Regular-74" x="1869.335938"/>
    <use xlink:href="#Pretendard-Regular-69" x="1903.320312"/>
    <use xlink:href="#Pretendard-Regular-6f" x="1925.097656"/>
    <use xlink:href="#Pretendard-Regular-6e" x="1981.835938"/>
    <use xlink:href="#Pretendard-Regular-20" x="2037.5"/>
    <use xlink:href="#Pretendard-Regular-20" x="2062.597656"/>
    <use xlink:href="#Pretendard-Regular-20" x="2087.695312"/>
    <use xlink:href="#Pretendard-Regular-7c" x="2112.792969"/>
    <use xlink:href="#Pretendard-Regular-20" x="2143.359375"/>
    <use xlink:href="#Pretendard-Regular-20" x="2168.457031"/>
    <use xlink:href="#Pretendard-Regular-20" x="2193.554688"/>
    <use xlink:href="#Pretendard-Regular-69" x="2218.652344"/>
    <use xlink:href="#Pretendard-Regular-6e" x="2240.429688"/>
    <use xlink:href="#Pretendard-Regular-6e" x="2296.09375"/>
    <use xlink:href="#Pretendard-Regular-65" x="2351.757812"/>
    <use xlink:href="#Pretendard-Regular-72" x="2407.03125"/>
    <use xlink:href="#Pretendard-Regular-20" x="2441.992188"/>
    <use xlink:href="#Pretendard-Regular-72" x="2467.089844"/>
    <use xlink:href="#Pretendard-Regular-69" x="2502.050781"/>
    <use xlink:href="#Pretendard-Regular-6e" x="2523.828125"/>
    <use xlink:href="#Pretendard-Regular-67" x="2579.492188"/>
    <use xlink:href="#Pretendard-Regular-3a" x="2637.402344"/>
    <use xlink:href="#Pretendard-Regular-20" x="2662.792969"/>
    <use xlink:href="#Pretendard-Regular-77" x="2687.890625"/>
    <use xlink:href="#Pretendard-Regular-68" x="2765.625"/>
    <use xlink:href="#Pretendard-Regular-61" x="2821.875"/>
    <use xlink:href="#Pretendard-Regular-74" x="2875.390625"/>
    <use xlink:href="#Pretendard-Regular-20" x="2909.375"/>
    <use xlink:href="#Pretendard-Regular-68" x="2934.472656"/>
    <use xlink:href="#Pretendard-Regular-61" x="2990.722656"/>
    <use xlink:href="#Pretendard-Regular-70" x="3044.238281"/>
    <use xlink:href="#Pretendard-Regular-70" x="3102.148438"/>
    <use xlink:href="#Pretendard-Regular-65" x="3160.058594"/>
    <use xlink:href="#Pretendard-Regular-6e" x="3215.332031"/>
    <use xlink:href="#Pretendard-Regular-65" x="3270.996094"/>
    <use xlink:href="#Pretendard-Regular-64" x="3326.269531"/>
    <use xlink:href="#Pretendard-Regular-20" x="3385.351562"/>
    <use xlink:href="#Pretendard-Regular-61" x="3410.449219"/>
    <use xlink:href="#Pretendard-Regular-66" x="3463.964844"/>
    <use xlink:href="#Pretendard-Regular-74" x="3497.65625"/>
    <use xlink:href="#Pretendard-Regular-65" x="3531.640625"/>
    <use xlink:href="#Pretendard-Regular-72" x="3586.914062"/>
    <use xlink:href="#Pretendard-Regular-20" x="3621.875"/>
    <use xlink:href="#Pretendard-Regular-70" x="3646.972656"/>
    <use xlink:href="#Pretendard-Regular-72" x="3704.882812"/>
    <use xlink:href="#Pretendard-Regular-65" x="3739.84375"/>
    <use xlink:href="#Pretendard-Regular-64" x="3795.117188"/>
    <use xlink:href="#Pretendard-Regular-69" x="3854.199219"/>
    <use xlink:href="#Pretendard-Regular-63" x="3875.976562"/>
    <use xlink:href="#Pretendard-Regular-74" x="3928.90625"/>
    <use xlink:href="#Pretendard-Regular-69" x="3962.890625"/>
    <use xlink:href="#Pretendard-Regular-6f" x="3984.667969"/>
    <use xlink:href="#Pretendard-Regular-6e" x="4041.40625"/>
   </g>
  </g>
  <g id="legend_1">
   <g id="patch_12">
    <path d="M 31.271799 226.736016 
L 40.371799 226.736016 
L 40.371799 222.186016 
L 31.271799 222.186016 
z
" style="fill: #0072b2"/>
   </g>
   <g id="text_13">
    <!-- source 1: timely real application -->
    <g transform="translate(45.571799 226.736016) scale(0.065 -0.065)">
     <defs>
      <path id="Pretendard-Regular-31" d="M 2025 4525 
L 1456 4525 
L 331 3775 
L 331 3206 
L 1431 3938 
L 1456 3938 
L 1456 0 
L 2025 0 
L 2025 4525 
z
" transform="scale(0.015625)"/>
     </defs>
     <use xlink:href="#Pretendard-Regular-73"/>
     <use xlink:href="#Pretendard-Regular-6f" x="49.609375"/>
     <use xlink:href="#Pretendard-Regular-75" x="106.347656"/>
     <use xlink:href="#Pretendard-Regular-72" x="161.621094"/>
     <use xlink:href="#Pretendard-Regular-63" x="196.582031"/>
     <use xlink:href="#Pretendard-Regular-65" x="249.511719"/>
     <use xlink:href="#Pretendard-Regular-20" x="304.785156"/>
     <use xlink:href="#Pretendard-Regular-31" x="329.882812"/>
     <use xlink:href="#Pretendard-Regular-3a" x="373.730469"/>
     <use xlink:href="#Pretendard-Regular-20" x="399.121094"/>
     <use xlink:href="#Pretendard-Regular-74" x="424.21875"/>
     <use xlink:href="#Pretendard-Regular-69" x="458.203125"/>
     <use xlink:href="#Pretendard-Regular-6d" x="479.980469"/>
     <use xlink:href="#Pretendard-Regular-65" x="563.378906"/>
     <use xlink:href="#Pretendard-Regular-6c" x="618.652344"/>
     <use xlink:href="#Pretendard-Regular-79" x="640.429688"/>
     <use xlink:href="#Pretendard-Regular-20" x="693.359375"/>
     <use xlink:href="#Pretendard-Regular-72" x="718.457031"/>
     <use xlink:href="#Pretendard-Regular-65" x="753.417969"/>
     <use xlink:href="#Pretendard-Regular-61" x="808.691406"/>
     <use xlink:href="#Pretendard-Regular-6c" x="862.207031"/>
     <use xlink:href="#Pretendard-Regular-20" x="883.984375"/>
     <use xlink:href="#Pretendard-Regular-61" x="909.082031"/>
     <use xlink:href="#Pretendard-Regular-70" x="962.597656"/>
     <use xlink:href="#Pretendard-Regular-70" x="1020.507812"/>
     <use xlink:href="#Pretendard-Regular-6c" x="1078.417969"/>
     <use xlink:href="#Pretendard-Regular-69" x="1100.195312"/>
     <use xlink:href="#Pretendard-Regular-63" x="1121.972656"/>
     <use xlink:href="#Pretendard-Regular-61" x="1174.902344"/>
     <use xlink:href="#Pretendard-Regular-74" x="1228.417969"/>
     <use xlink:href="#Pretendard-Regular-69" x="1262.402344"/>
     <use xlink:href="#Pretendard-Regular-6f" x="1284.179688"/>
     <use xlink:href="#Pretendard-Regular-6e" x="1340.917969"/>
    </g>
   </g>
   <g id="patch_13">
    <path d="M 31.271799 236.022891 
L 40.371799 236.022891 
L 40.371799 231.472891 
L 31.271799 231.472891 
z
" style="fill: #cc79a7"/>
   </g>
   <g id="text_14">
    <!-- source 2: predicted application -->
    <g transform="translate(45.571799 236.022891) scale(0.065 -0.065)">
     <use xlink:href="#Pretendard-Regular-73"/>
     <use xlink:href="#Pretendard-Regular-6f" x="49.609375"/>
     <use xlink:href="#Pretendard-Regular-75" x="106.347656"/>
     <use xlink:href="#Pretendard-Regular-72" x="161.621094"/>
     <use xlink:href="#Pretendard-Regular-63" x="196.582031"/>
     <use xlink:href="#Pretendard-Regular-65" x="249.511719"/>
     <use xlink:href="#Pretendard-Regular-20" x="304.785156"/>
     <use xlink:href="#Pretendard-Regular-32" x="329.882812"/>
     <use xlink:href="#Pretendard-Regular-3a" x="388.574219"/>
     <use xlink:href="#Pretendard-Regular-20" x="413.964844"/>
     <use xlink:href="#Pretendard-Regular-70" x="439.0625"/>
     <use xlink:href="#Pretendard-Regular-72" x="496.972656"/>
     <use xlink:href="#Pretendard-Regular-65" x="531.933594"/>
     <use xlink:href="#Pretendard-Regular-64" x="587.207031"/>
     <use xlink:href="#Pretendard-Regular-69" x="646.289062"/>
     <use xlink:href="#Pretendard-Regular-63" x="668.066406"/>
     <use xlink:href="#Pretendard-Regular-74" x="720.996094"/>
     <use xlink:href="#Pretendard-Regular-65" x="754.980469"/>
     <use xlink:href="#Pretendard-Regular-64" x="810.253906"/>
     <use xlink:href="#Pretendard-Regular-20" x="869.335938"/>
     <use xlink:href="#Pretendard-Regular-61" x="894.433594"/>
     <use xlink:href="#Pretendard-Regular-70" x="947.949219"/>
     <use xlink:href="#Pretendard-Regular-70" x="1005.859375"/>
     <use xlink:href="#Pretendard-Regular-6c" x="1063.769531"/>
     <use xlink:href="#Pretendard-Regular-69" x="1085.546875"/>
     <use xlink:href="#Pretendard-Regular-63" x="1107.324219"/>
     <use xlink:href="#Pretendard-Regular-61" x="1160.253906"/>
     <use xlink:href="#Pretendard-Regular-74" x="1213.769531"/>
     <use xlink:href="#Pretendard-Regular-69" x="1247.753906"/>
     <use xlink:href="#Pretendard-Regular-6f" x="1269.53125"/>
     <use xlink:href="#Pretendard-Regular-6e" x="1326.269531"/>
    </g>
   </g>
   <g id="patch_14">
    <path d="M 142.854456 226.736016 
L 151.954456 226.736016 
L 151.954456 222.186016 
L 142.854456 222.186016 
z
" style="fill: #009e73"/>
   </g>
   <g id="text_15">
    <!-- source 3: delayed real, within tolerance -->
    <g transform="translate(157.154456 226.736016) scale(0.065 -0.065)">
     <use xlink:href="#Pretendard-Regular-73"/>
     <use xlink:href="#Pretendard-Regular-6f" x="49.609375"/>
     <use xlink:href="#Pretendard-Regular-75" x="106.347656"/>
     <use xlink:href="#Pretendard-Regular-72" x="161.621094"/>
     <use xlink:href="#Pretendard-Regular-63" x="196.582031"/>
     <use xlink:href="#Pretendard-Regular-65" x="249.511719"/>
     <use xlink:href="#Pretendard-Regular-20" x="304.785156"/>
     <use xlink:href="#Pretendard-Regular-33" x="329.882812"/>
     <use xlink:href="#Pretendard-Regular-3a" x="391.601562"/>
     <use xlink:href="#Pretendard-Regular-20" x="416.992188"/>
     <use xlink:href="#Pretendard-Regular-64" x="442.089844"/>
     <use xlink:href="#Pretendard-Regular-65" x="501.171875"/>
     <use xlink:href="#Pretendard-Regular-6c" x="556.445312"/>
     <use xlink:href="#Pretendard-Regular-61" x="578.222656"/>
     <use xlink:href="#Pretendard-Regular-79" x="631.738281"/>
     <use xlink:href="#Pretendard-Regular-65" x="684.667969"/>
     <use xlink:href="#Pretendard-Regular-64" x="739.941406"/>
     <use xlink:href="#Pretendard-Regular-20" x="799.023438"/>
     <use xlink:href="#Pretendard-Regular-72" x="824.121094"/>
     <use xlink:href="#Pretendard-Regular-65" x="859.082031"/>
     <use xlink:href="#Pretendard-Regular-61" x="914.355469"/>
     <use xlink:href="#Pretendard-Regular-6c" x="967.871094"/>
     <use xlink:href="#Pretendard-Regular-2c" x="989.648438"/>
     <use xlink:href="#Pretendard-Regular-20" x="1015.429688"/>
     <use xlink:href="#Pretendard-Regular-77" x="1040.527344"/>
     <use xlink:href="#Pretendard-Regular-69" x="1118.261719"/>
     <use xlink:href="#Pretendard-Regular-74" x="1140.039062"/>
     <use xlink:href="#Pretendard-Regular-68" x="1174.023438"/>
     <use xlink:href="#Pretendard-Regular-69" x="1230.273438"/>
     <use xlink:href="#Pretendard-Regular-6e" x="1252.050781"/>
     <use xlink:href="#Pretendard-Regular-20" x="1307.714844"/>
     <use xlink:href="#Pretendard-Regular-74" x="1332.8125"/>
     <use xlink:href="#Pretendard-Regular-6f" x="1366.796875"/>
     <use xlink:href="#Pretendard-Regular-6c" x="1423.535156"/>
     <use xlink:href="#Pretendard-Regular-65" x="1445.3125"/>
     <use xlink:href="#Pretendard-Regular-72" x="1500.585938"/>
     <use xlink:href="#Pretendard-Regular-61" x="1535.546875"/>
     <use xlink:href="#Pretendard-Regular-6e" x="1589.0625"/>
     <use xlink:href="#Pretendard-Regular-63" x="1644.726562"/>
     <use xlink:href="#Pretendard-Regular-65" x="1697.65625"/>
    </g>
   </g>
   <g id="patch_15">
    <path d="M 142.854456 236.028984 
L 151.954456 236.028984 
L 151.954456 231.478984 
L 142.854456 231.478984 
z
" style="fill: #e69f00"/>
   </g>
   <g id="text_16">
    <!-- source 4: delayed real, outside tolerance -->
    <g transform="translate(157.154456 236.028984) scale(0.065 -0.065)">
     <defs>
      <path id="Pretendard-Regular-34" d="M 313 925 
L 2506 925 
L 2506 0 
L 3044 0 
L 3044 925 
L 3675 925 
L 3675 1419 
L 3044 1419 
L 3044 4525 
L 2350 4525 
L 313 1388 
L 313 925 
z
M 919 1419 
L 919 1456 
L 2450 3813 
L 2506 3813 
L 2506 1419 
L 919 1419 
z
" transform="scale(0.015625)"/>
     </defs>
     <use xlink:href="#Pretendard-Regular-73"/>
     <use xlink:href="#Pretendard-Regular-6f" x="49.609375"/>
     <use xlink:href="#Pretendard-Regular-75" x="106.347656"/>
     <use xlink:href="#Pretendard-Regular-72" x="161.621094"/>
     <use xlink:href="#Pretendard-Regular-63" x="196.582031"/>
     <use xlink:href="#Pretendard-Regular-65" x="249.511719"/>
     <use xlink:href="#Pretendard-Regular-20" x="304.785156"/>
     <use xlink:href="#Pretendard-Regular-34" x="329.882812"/>
     <use xlink:href="#Pretendard-Regular-3a" x="392.285156"/>
     <use xlink:href="#Pretendard-Regular-20" x="417.675781"/>
     <use xlink:href="#Pretendard-Regular-64" x="442.773438"/>
     <use xlink:href="#Pretendard-Regular-65" x="501.855469"/>
     <use xlink:href="#Pretendard-Regular-6c" x="557.128906"/>
     <use xlink:href="#Pretendard-Regular-61" x="578.90625"/>
     <use xlink:href="#Pretendard-Regular-79" x="632.421875"/>
     <use xlink:href="#Pretendard-Regular-65" x="685.351562"/>
     <use xlink:href="#Pretendard-Regular-64" x="740.625"/>
     <use xlink:href="#Pretendard-Regular-20" x="799.707031"/>
     <use xlink:href="#Pretendard-Regular-72" x="824.804688"/>
     <use xlink:href="#Pretendard-Regular-65" x="859.765625"/>
     <use xlink:href="#Pretendard-Regular-61" x="915.039062"/>
     <use xlink:href="#Pretendard-Regular-6c" x="968.554688"/>
     <use xlink:href="#Pretendard-Regular-2c" x="990.332031"/>
     <use xlink:href="#Pretendard-Regular-20" x="1016.113281"/>
     <use xlink:href="#Pretendard-Regular-6f" x="1041.210938"/>
     <use xlink:href="#Pretendard-Regular-75" x="1097.949219"/>
     <use xlink:href="#Pretendard-Regular-74" x="1153.222656"/>
     <use xlink:href="#Pretendard-Regular-73" x="1187.207031"/>
     <use xlink:href="#Pretendard-Regular-69" x="1236.816406"/>
     <use xlink:href="#Pretendard-Regular-64" x="1258.59375"/>
     <use xlink:href="#Pretendard-Regular-65" x="1317.675781"/>
     <use xlink:href="#Pretendard-Regular-20" x="1372.949219"/>
     <use xlink:href="#Pretendard-Regular-74" x="1398.046875"/>
     <use xlink:href="#Pretendard-Regular-6f" x="1432.03125"/>
     <use xlink:href="#Pretendard-Regular-6c" x="1488.769531"/>
     <use xlink:href="#Pretendard-Regular-65" x="1510.546875"/>
     <use xlink:href="#Pretendard-Regular-72" x="1565.820312"/>
     <use xlink:href="#Pretendard-Regular-61" x="1600.78125"/>
     <use xlink:href="#Pretendard-Regular-6e" x="1654.296875"/>
     <use xlink:href="#Pretendard-Regular-63" x="1709.960938"/>
     <use xlink:href="#Pretendard-Regular-65" x="1762.890625"/>
    </g>
   </g>
   <g id="patch_16">
    <path d="M 281.841721 226.736016 
L 290.941721 226.736016 
L 290.941721 222.186016 
L 281.841721 222.186016 
z
" style="fill: #dddddd"/>
   </g>
   <g id="text_17">
    <!-- no later real event -->
    <g transform="translate(296.141721 226.736016) scale(0.065 -0.065)">
     <use xlink:href="#Pretendard-Regular-6e"/>
     <use xlink:href="#Pretendard-Regular-6f" x="55.664062"/>
     <use xlink:href="#Pretendard-Regular-20" x="112.402344"/>
     <use xlink:href="#Pretendard-Regular-6c" x="137.5"/>
     <use xlink:href="#Pretendard-Regular-61" x="159.277344"/>
     <use xlink:href="#Pretendard-Regular-74" x="212.792969"/>
     <use xlink:href="#Pretendard-Regular-65" x="246.777344"/>
     <use xlink:href="#Pretendard-Regular-72" x="302.050781"/>
     <use xlink:href="#Pretendard-Regular-20" x="337.011719"/>
     <use xlink:href="#Pretendard-Regular-72" x="362.109375"/>
     <use xlink:href="#Pretendard-Regular-65" x="397.070312"/>
     <use xlink:href="#Pretendard-Regular-61" x="452.34375"/>
     <use xlink:href="#Pretendard-Regular-6c" x="505.859375"/>
     <use xlink:href="#Pretendard-Regular-20" x="527.636719"/>
     <use xlink:href="#Pretendard-Regular-65" x="552.734375"/>
     <use xlink:href="#Pretendard-Regular-76" x="608.007812"/>
     <use xlink:href="#Pretendard-Regular-65" x="660.9375"/>
     <use xlink:href="#Pretendard-Regular-6e" x="716.210938"/>
     <use xlink:href="#Pretendard-Regular-74" x="771.875"/>
    </g>
   </g>
  </g>
 </g>
</svg>
