<?xml version="1.0" encoding="utf-8" standalone="no"?>
<!DOCTYPE svg PUBLIC "-//W3C//DTD SVG 1.1//EN"
  "http://www.w3.org/Graphics/SVG/1.1/DTD/svg11.dtd">
<svg xmlns:xlink="http://www.w3.org/1999/xlink" width="513.56928pt" height="254.722602pt" viewBox="0 0 513.56928 254.722602" xmlns="http://www.w3.org/2000/svg" version="1.1">
 <metadata>
  <rdf:RDF xmlns:dc="http://purl.org/dc/elements/1.1/" xmlns:cc="http://creativecommons.org/ns#" xmlns:rdf="http://www.w3.org/1999/02/22-rdf-syntax-ns#">
   <cc:Work>
    <dc:type rdf:resource="http://purl.org/dc/dcmitype/StillImage"/>
    <dc:date>2026-07-24T09:17:33.341650</dc:date>
    <dc:format>image/svg+xml</dc:format>
    <dc:creator>
     <cc:Agent>
      <dc:title>Matplotlib v3.11.0, https://matplotlib.org/</dc:title>
     </cc:Agent>
    </dc:creator>
   </cc:Work>
  </rdf:RDF>
 </metadata>
 <defs>
  <style type="text/css">*{stroke-linejoin: round; stroke-linecap: butt}</style>
 </defs>
 <g id="figure_1">
  <g id="patch_1">
   <path d="M 0 254.722602 
L 513.56928 254.722602 
L 513.56928 0 
L 0 0 
z
" style="fill: #ffffff"/>
  </g>
  <g id="axes_1">
   <g id="patch_2">
    <path d="M 52.71168 183.188602 
L 264.701212 183.188602 
L 264.701212 24.716602 
L 52.71168 24.716602 
z
" style="fill: #ffffff"/>
   </g>
   <g id="line2d_1">
    <path d="M 62.347568 93.013658 
L 62.347568 173.866719 
" clip-path="url(#p4f33b2a035)" style="fill: none; stroke: #009e73; stroke-opacity: 0.8; stroke-width: 1.7; stroke-linecap: square"/>
   </g>
   <g id="line2d_2">
    <path d="M 100.891119 93.600022 
L 100.891119 171.305763 
" clip-path="url(#p4f33b2a035)" style="fill: none; stroke: #009e73; stroke-opacity: 0.8; stroke-width: 1.7; stroke-linecap: square"/>
   </g>
   <g id="line2d_3">
    <path d="M 139.43467 142.532661 
L 139.43467 153.55269 
" clip-path="url(#p4f33b2a035)" style="fill: none; stroke: #009e73; stroke-opacity: 0.8; stroke-width: 1.7; stroke-linecap: square"/>
   </g>
   <g id="line2d_4">
    <path d="M 177.978222 40.696971 
L 177.978222 173.866719 
" clip-path="url(#p4f33b2a035)" style="fill: none; stroke: #009e73; stroke-opacity: 0.8; stroke-width: 1.7; stroke-linecap: square"/>
   </g>
   <g id="line2d_5">
    <path d="M 216.521773 54.013946 
L 216.521773 139.62307 
" clip-path="url(#p4f33b2a035)" style="fill: none; stroke: #009e73; stroke-opacity: 0.8; stroke-width: 1.7; stroke-linecap: square"/>
   </g>
   <g id="line2d_6">
    <path d="M 255.065325 95.97498 
L 255.065325 60.185227 
" clip-path="url(#p4f33b2a035)" style="fill: none; stroke: #d55e00; stroke-opacity: 0.8; stroke-width: 1.7; stroke-linecap: square"/>
   </g>
   <g id="matplotlib.axis_1">
    <g id="xtick_1">
     <g id="line2d_7">
      <defs>
       <path id="md88dec23fc" d="M 0 0 
L 0 3.5 
" style="stroke: #000000; stroke-width: 0.8"/>
      </defs>
      <g>
       <use xlink:href="#md88dec23fc" x="62.347568" y="183.188602" style="stroke: #000000; stroke-width: 0.8"/>
      </g>
     </g>
     <g id="text_1">
      <!-- 150 -->
      <g transform="translate(55.823818 197.801883) scale(0.08 -0.08)">
       <defs>
        <path id="Pretendard-Regular-32ca" d="M 2025 4525 
L 1456 4525 
L 331 3775 
L 331 3206 
L 1431 3938 
L 1456 3938 
L 1456 0 
L 2025 0 
L 2025 4525 
z
" transform="scale(0.015625)"/>
        <path id="Pretendard-Regular-32ce" d="M 1900 -63 
C 2800 -63 3463 569 3463 1444 
C 3463 2325 2825 2963 1963 2963 
C 1644 2963 1338 2856 1138 2700 
L 1094 2700 
L 1263 4025 
L 3244 4025 
L 3244 4525 
L 794 4525 
L 475 2050 
L 1019 2050 
C 1188 2344 1481 2463 1863 2456 
C 2469 2450 2913 2019 2913 1431 
C 2913 863 2488 431 1900 431 
C 1413 431 1019 731 975 1138 
L 431 1138 
C 463 444 1081 -63 1900 -63 
z
" transform="scale(0.015625)"/>
        <path id="Pretendard-Regular-32c9" d="M 1906 -63 
C 2906 -63 3488 781 3488 2263 
C 3488 3731 2900 4588 1906 4588 
C 913 4588 325 3731 325 2263 
C 325 781 900 -63 1906 -63 
z
M 1906 438 
C 1250 438 869 1094 869 2263 
C 869 3431 1256 4100 1906 4100 
C 2556 4100 2938 3431 2938 2263 
C 2938 1094 2556 438 1906 438 
z
" transform="scale(0.015625)"/>
       </defs>
       <use xlink:href="#Pretendard-Regular-32ca"/>
       <use xlink:href="#Pretendard-Regular-32ce" transform="translate(43.84375 0)"/>
       <use xlink:href="#Pretendard-Regular-32c9" transform="translate(103.515625 0)"/>
      </g>
     </g>
    </g>
    <g id="xtick_2">
     <g id="line2d_8">
      <g>
       <use xlink:href="#md88dec23fc" x="100.891119" y="183.188602" style="stroke: #000000; stroke-width: 0.8"/>
      </g>
     </g>
     <g id="text_2">
      <!-- 350 -->
      <g transform="translate(93.652369 197.801883) scale(0.08 -0.08)">
       <defs>
        <path id="Pretendard-Regular-32cc" d="M 1988 -63 
C 2888 -63 3569 488 3563 1231 
C 3569 1806 3206 2225 2619 2319 
L 2619 2350 
C 3094 2481 3394 2863 3388 3375 
C 3394 4025 2869 4588 2006 4588 
C 1200 4588 538 4106 506 3388 
L 1050 3388 
C 1075 3831 1519 4100 2000 4100 
C 2513 4100 2844 3794 2844 3344 
C 2844 2875 2463 2569 1913 2569 
L 1544 2569 
L 1544 2075 
L 1913 2075 
C 2619 2075 3013 1725 3013 1231 
C 3013 763 2575 438 1981 438 
C 1444 438 1013 706 981 1138 
L 413 1138 
C 444 419 1088 -63 1988 -63 
z
" transform="scale(0.015625)"/>
       </defs>
       <use xlink:href="#Pretendard-Regular-32cc"/>
       <use xlink:href="#Pretendard-Regular-32ce" transform="translate(61.71875 0)"/>
       <use xlink:href="#Pretendard-Regular-32c9" transform="translate(121.390625 0)"/>
      </g>
     </g>
    </g>
    <g id="xtick_3">
     <g id="line2d_9">
      <g>
       <use xlink:href="#md88dec23fc" x="139.43467" y="183.188602" style="stroke: #000000; stroke-width: 0.8"/>
      </g>
     </g>
     <g id="text_3">
      <!-- 550 -->
      <g transform="translate(132.277795 197.801883) scale(0.08 -0.08)">
       <use xlink:href="#Pretendard-Regular-32ce"/>
       <use xlink:href="#Pretendard-Regular-32ce" transform="translate(59.671875 0)"/>
       <use xlink:href="#Pretendard-Regular-32c9" transform="translate(119.34375 0)"/>
      </g>
     </g>
    </g>
    <g id="xtick_4">
     <g id="line2d_10">
      <g>
       <use xlink:href="#md88dec23fc" x="177.978222" y="183.188602" style="stroke: #000000; stroke-width: 0.8"/>
      </g>
     </g>
     <g id="text_4">
      <!-- 150 -->
      <g transform="translate(171.454472 197.801883) scale(0.08 -0.08)">
       <use xlink:href="#Pretendard-Regular-32ca"/>
       <use xlink:href="#Pretendard-Regular-32ce" transform="translate(43.84375 0)"/>
       <use xlink:href="#Pretendard-Regular-32c9" transform="translate(103.515625 0)"/>
      </g>
     </g>
    </g>
    <g id="xtick_5">
     <g id="line2d_11">
      <g>
       <use xlink:href="#md88dec23fc" x="216.521773" y="183.188602" style="stroke: #000000; stroke-width: 0.8"/>
      </g>
     </g>
     <g id="text_5">
      <!-- 350 -->
      <g transform="translate(209.283023 197.801883) scale(0.08 -0.08)">
       <use xlink:href="#Pretendard-Regular-32cc"/>
       <use xlink:href="#Pretendard-Regular-32ce" transform="translate(61.71875 0)"/>
       <use xlink:href="#Pretendard-Regular-32c9" transform="translate(121.390625 0)"/>
      </g>
     </g>
    </g>
    <g id="xtick_6">
     <g id="line2d_12">
      <g>
       <use xlink:href="#md88dec23fc" x="255.065325" y="183.188602" style="stroke: #000000; stroke-width: 0.8"/>
      </g>
     </g>
     <g id="text_6">
      <!-- 550 -->
      <g transform="translate(247.90845 197.801883) scale(0.08 -0.08)">
       <use xlink:href="#Pretendard-Regular-32ce"/>
       <use xlink:href="#Pretendard-Regular-32ce" transform="translate(59.671875 0)"/>
       <use xlink:href="#Pretendard-Regular-32c9" transform="translate(119.34375 0)"/>
      </g>
     </g>
    </g>
   </g>
   <g id="matplotlib.axis_2">
    <g id="ytick_1">
     <g id="line2d_13">
      <path d="M 52.71168 173.866719 
L 264.701212 173.866719 
" clip-path="url(#p4f33b2a035)" style="fill: none; stroke: #b0b0b0; stroke-opacity: 0.22; stroke-width: 0.5; stroke-linecap: square"/>
     </g>
     <g id="line2d_14">
      <defs>
       <path id="mb2bc03f183" d="M 0 0 
L -3.5 0 
" style="stroke: #000000; stroke-width: 0.8"/>
      </defs>
      <g>
       <use xlink:href="#mb2bc03f183" x="52.71168" y="173.866719" style="stroke: #000000; stroke-width: 0.8"/>
      </g>
     </g>
     <g id="text_7">
      <!-- 0 -->
      <g transform="translate(40.94543 177.67336) scale(0.08 -0.08)">
       <use xlink:href="#Pretendard-Regular-32c9"/>
      </g>
     </g>
    </g>
    <g id="ytick_2">
     <g id="line2d_15">
      <path d="M 52.71168 140.574282 
L 264.701212 140.574282 
" clip-path="url(#p4f33b2a035)" style="fill: none; stroke: #b0b0b0; stroke-opacity: 0.22; stroke-width: 0.5; stroke-linecap: square"/>
     </g>
     <g id="line2d_16">
      <g>
       <use xlink:href="#mb2bc03f183" x="52.71168" y="140.574282" style="stroke: #000000; stroke-width: 0.8"/>
      </g>
     </g>
     <g id="text_8">
      <!-- 25 -->
      <g transform="translate(36.24293 144.380923) scale(0.08 -0.08)">
       <defs>
        <path id="Pretendard-Regular-32cb" d="M 425 0 
L 3363 0 
L 3363 500 
L 1206 500 
L 1206 538 
L 2244 1606 
C 3044 2431 3281 2825 3281 3331 
C 3281 4038 2694 4588 1875 4588 
C 1056 4588 438 4050 444 3250 
L 975 3250 
C 975 3756 1319 4100 1856 4100 
C 2363 4100 2756 3794 2756 3331 
C 2756 2913 2500 2606 1963 2038 
L 419 413 
L 425 0 
z
" transform="scale(0.015625)"/>
       </defs>
       <use xlink:href="#Pretendard-Regular-32cb"/>
       <use xlink:href="#Pretendard-Regular-32ce" transform="translate(58.6875 0)"/>
      </g>
     </g>
    </g>
    <g id="ytick_3">
     <g id="line2d_17">
      <path d="M 52.71168 107.281845 
L 264.701212 107.281845 
" clip-path="url(#p4f33b2a035)" style="fill: none; stroke: #b0b0b0; stroke-opacity: 0.22; stroke-width: 0.5; stroke-linecap: square"/>
     </g>
     <g id="line2d_18">
      <g>
       <use xlink:href="#mb2bc03f183" x="52.71168" y="107.281845" style="stroke: #000000; stroke-width: 0.8"/>
      </g>
     </g>
     <g id="text_9">
      <!-- 50 -->
      <g transform="translate(36.17168 111.088486) scale(0.08 -0.08)">
       <use xlink:href="#Pretendard-Regular-32ce"/>
       <use xlink:href="#Pretendard-Regular-32c9" transform="translate(59.671875 0)"/>
      </g>
     </g>
    </g>
    <g id="ytick_4">
     <g id="line2d_19">
      <path d="M 52.71168 73.989408 
L 264.701212 73.989408 
" clip-path="url(#p4f33b2a035)" style="fill: none; stroke: #b0b0b0; stroke-opacity: 0.22; stroke-width: 0.5; stroke-linecap: square"/>
     </g>
     <g id="line2d_20">
      <g>
       <use xlink:href="#mb2bc03f183" x="52.71168" y="73.989408" style="stroke: #000000; stroke-width: 0.8"/>
      </g>
     </g>
     <g id="text_10">
      <!-- 75 -->
      <g transform="translate(36.60168 77.796049) scale(0.08 -0.08)">
       <defs>
        <path id="Pretendard-Regular-32d0" d="M 569 0 
L 1156 0 
L 3225 4000 
L 3225 4525 
L 250 4525 
L 250 4025 
L 2644 4025 
L 2644 3994 
L 569 0 
z
" transform="scale(0.015625)"/>
       </defs>
       <use xlink:href="#Pretendard-Regular-32d0"/>
       <use xlink:href="#Pretendard-Regular-32ce" transform="translate(54.203125 0)"/>
      </g>
     </g>
    </g>
    <g id="ytick_5">
     <g id="line2d_21">
      <path d="M 52.71168 40.696971 
L 264.701212 40.696971 
" clip-path="url(#p4f33b2a035)" style="fill: none; stroke: #b0b0b0; stroke-opacity: 0.22; stroke-width: 0.5; stroke-linecap: square"/>
     </g>
     <g id="line2d_22">
      <g>
       <use xlink:href="#mb2bc03f183" x="52.71168" y="40.696971" style="stroke: #000000; stroke-width: 0.8"/>
      </g>
     </g>
     <g id="text_11">
      <!-- 100 -->
      <g transform="translate(32.67168 44.503612) scale(0.08 -0.08)">
       <use xlink:href="#Pretendard-Regular-32ca"/>
       <use xlink:href="#Pretendard-Regular-32c9" transform="translate(43.84375 0)"/>
       <use xlink:href="#Pretendard-Regular-32c9" transform="translate(103.421875 0)"/>
      </g>
     </g>
    </g>
    <g id="text_12">
     <!-- Cadence fallback among application -->
     <g transform="translate(15.764941 176.743617) rotate(-90) scale(0.09 -0.09)">
      <defs>
       <path id="Pretendard-Regular-29" d="M 3588 3100 
L 4150 3100 
C 3981 4038 3238 4588 2325 4588 
C 1163 4588 325 3694 325 2263 
C 325 831 1163 -63 2325 -63 
C 3244 -63 3988 494 4150 1419 
L 3588 1419 
C 3450 800 2919 463 2325 463 
C 1506 463 869 1094 869 2263 
C 869 3431 1506 4063 2325 4063 
C 2919 4063 3456 3725 3588 3100 
z
" transform="scale(0.015625)"/>
       <path id="Pretendard-Regular-1a0" d="M 269 963 
C 269 300 781 -81 1425 -81 
C 2013 -81 2325 231 2438 463 
L 2463 463 
L 2463 0 
L 2994 0 
L 2994 2238 
C 2994 3306 2163 3438 1719 3438 
C 969 3438 438 3056 369 2513 
L 931 2513 
C 1006 2769 1263 2969 1694 2969 
C 2206 2969 2463 2719 2463 2288 
L 2463 2013 
C 2309 2006 1759 1978 1544 1963 
C 956 1919 269 1744 269 963 
z
M 806 938 
C 806 1306 1119 1481 1606 1513 
L 2463 1575 
L 2463 1231 
C 2463 806 2125 400 1519 400 
C 1106 400 806 581 806 938 
z
" transform="scale(0.015625)"/>
       <path id="Pretendard-Regular-1d7" d="M 1713 -69 
C 2363 -69 2581 331 2700 519 
L 2756 519 
L 2756 0 
L 3281 0 
L 3281 4525 
L 2738 4525 
L 2738 2856 
L 2700 2856 
C 2588 3038 2375 3438 1719 3438 
C 869 3438 269 2763 269 1688 
C 269 613 869 -69 1713 -69 
z
M 1788 413 
C 1144 413 813 975 813 1700 
C 813 2406 1138 2956 1788 2956 
C 2419 2956 2756 2450 2756 1700 
C 2756 938 2406 413 1788 413 
z
" transform="scale(0.015625)"/>
       <path id="Pretendard-Regular-1e9" d="M 1856 -69 
C 2556 -69 3056 281 3219 794 
L 2644 794 
C 2519 581 2263 406 1856 406 
C 1250 406 831 800 806 1519 
L 3269 1519 
L 3269 1744 
C 3269 3000 2519 3438 1806 3438 
C 881 3438 269 2713 269 1669 
C 269 625 875 -69 1856 -69 
z
M 813 1975 
C 844 2500 1219 2963 1806 2963 
C 2363 2963 2725 2544 2725 1975 
L 813 1975 
z
" transform="scale(0.015625)"/>
       <path id="Pretendard-Regular-276" d="M 969 2038 
C 969 2625 1331 2956 1825 2956 
C 2306 2956 2594 2644 2594 2119 
L 2594 0 
L 3131 0 
L 3131 2156 
C 3131 3019 2675 3438 1988 3438 
C 1469 3438 1156 3206 994 2863 
L 950 2863 
L 950 3394 
L 431 3394 
L 431 0 
L 969 0 
L 969 2038 
z
" transform="scale(0.015625)"/>
       <path id="Pretendard-Regular-1cd" d="M 1819 -69 
C 2575 -69 3069 394 3156 1000 
L 2619 1000 
C 2525 625 2219 413 1819 413 
C 1200 413 806 913 806 1700 
C 806 2463 1213 2963 1819 2963 
C 2269 2963 2544 2681 2619 2369 
L 3156 2369 
C 3069 3013 2531 3438 1806 3438 
C 881 3438 269 2713 269 1681 
C 269 663 856 -69 1819 -69 
z
" transform="scale(0.015625)"/>
       <path id="Pretendard-Regular-2" transform="scale(0.015625)"/>
       <path id="Pretendard-Regular-214" d="M 1950 3394 
L 1200 3394 
L 1200 3738 
C 1200 4088 1369 4244 1744 4244 
C 1813 4244 1913 4238 2025 4219 
L 2025 4700 
C 1913 4719 1756 4738 1625 4738 
C 1025 4738 656 4406 656 3856 
L 656 3394 
L 113 3394 
L 113 2944 
L 656 2944 
L 656 0 
L 1200 0 
L 1200 2944 
L 1950 2944 
L 1950 3394 
z
" transform="scale(0.015625)"/>
       <path id="Pretendard-Regular-25d" d="M 969 4525 
L 431 4525 
L 431 0 
L 969 0 
L 969 4525 
z
" transform="scale(0.015625)"/>
       <path id="Pretendard-Regular-1c4" d="M 500 0 
L 1019 0 
L 1019 519 
L 1081 519 
C 1200 331 1419 -69 2069 -69 
C 2913 -69 3513 613 3513 1688 
C 3513 2763 2913 3438 2063 3438 
C 1400 3438 1200 3038 1081 2856 
L 1038 2856 
L 1038 4525 
L 500 4525 
L 500 0 
z
M 1025 1700 
C 1025 2450 1363 2956 1988 2956 
C 2644 2956 2969 2406 2969 1700 
C 2969 975 2631 413 1988 413 
C 1369 413 1025 938 1025 1700 
z
" transform="scale(0.015625)"/>
       <path id="Pretendard-Regular-254" d="M 431 0 
L 969 0 
L 969 1269 
L 1331 1600 
L 2588 0 
L 3269 0 
L 1731 1944 
L 3163 3394 
L 2500 3394 
L 1031 1894 
L 969 1894 
L 969 4525 
L 431 4525 
L 431 0 
z
" transform="scale(0.015625)"/>
       <path id="Pretendard-Regular-26f" d="M 431 0 
L 969 0 
L 969 2119 
C 969 2613 1325 2956 1731 2956 
C 2119 2956 2394 2700 2394 2319 
L 2394 0 
L 2938 0 
L 2938 2206 
C 2938 2638 3206 2956 3681 2956 
C 4050 2956 4369 2763 4369 2263 
L 4369 0 
L 4906 0 
L 4906 2269 
C 4906 3069 4475 3438 3869 3438 
C 3381 3438 3025 3213 2850 2863 
L 2813 2863 
C 2650 3225 2350 3438 1906 3438 
C 1463 3438 1138 3225 994 2863 
L 950 2863 
L 950 3394 
L 431 3394 
L 431 0 
z
" transform="scale(0.015625)"/>
       <path id="Pretendard-Regular-285" d="M 1819 -69 
C 2738 -69 3356 625 3356 1681 
C 3356 2738 2738 3438 1819 3438 
C 894 3438 269 2738 269 1681 
C 269 625 894 -69 1819 -69 
z
M 1819 406 
C 1125 406 806 1006 806 1681 
C 806 2356 1125 2963 1819 2963 
C 2500 2963 2819 2356 2819 1681 
C 2819 1006 2500 406 1819 406 
z
" transform="scale(0.015625)"/>
       <path id="Pretendard-Regular-219" d="M 1806 -1344 
C 2631 -1344 3281 -969 3281 -94 
L 3281 3394 
L 2756 3394 
L 2756 2856 
L 2713 2856 
C 2588 3038 2375 3438 1719 3438 
C 869 3438 269 2788 269 1744 
C 269 675 888 50 1713 50 
C 2369 50 2588 438 2700 625 
L 2744 625 
L 2744 -63 
C 2744 -625 2388 -875 1806 -875 
C 1325 -875 1006 -700 931 -356 
L 369 -356 
C 431 -988 988 -1344 1806 -1344 
z
M 1788 531 
C 1144 531 813 1019 813 1725 
C 813 2406 1138 2956 1788 2956 
C 2419 2956 2756 2450 2756 1725 
C 2756 975 2406 531 1788 531 
z
" transform="scale(0.015625)"/>
       <path id="Pretendard-Regular-2ab" d="M 431 -1275 
L 969 -1275 
L 969 519 
L 1013 519 
C 1125 331 1350 -69 2000 -69 
C 2844 -69 3438 613 3438 1688 
C 3438 2763 2844 3438 1994 3438 
C 1338 3438 1125 3038 1013 2856 
L 950 2856 
L 950 3394 
L 431 3394 
L 431 -1275 
z
M 956 1700 
C 956 2450 1288 2956 1925 2956 
C 2575 2956 2900 2406 2900 1700 
C 2900 975 2569 413 1925 413 
C 1300 413 956 938 956 1700 
z
" transform="scale(0.015625)"/>
       <path id="Pretendard-Regular-23a" d="M 431 0 
L 969 0 
L 969 3394 
L 431 3394 
L 431 0 
z
M 700 3956 
C 906 3956 1081 4113 1081 4313 
C 1081 4513 906 4669 700 4669 
C 494 4669 325 4513 325 4313 
C 325 4113 494 3956 700 3956 
z
" transform="scale(0.015625)"/>
       <path id="Pretendard-Regular-2d3" d="M 1913 3394 
L 1200 3394 
L 1200 4206 
L 656 4206 
L 656 3394 
L 144 3394 
L 144 2944 
L 656 2944 
L 656 838 
C 656 238 1138 -44 1588 -44 
C 1744 -44 1881 -31 1963 -19 
L 1963 481 
C 1881 475 1744 469 1644 469 
C 1413 469 1200 538 1200 975 
L 1200 2944 
L 1913 2944 
L 1913 3394 
z
" transform="scale(0.015625)"/>
      </defs>
      <use xlink:href="#Pretendard-Regular-29"/>
      <use xlink:href="#Pretendard-Regular-1a0" transform="translate(69.34375 0)"/>
      <use xlink:href="#Pretendard-Regular-1d7" transform="translate(122.859375 0)"/>
      <use xlink:href="#Pretendard-Regular-1e9" transform="translate(181.9375 0)"/>
      <use xlink:href="#Pretendard-Regular-276" transform="translate(237.21875 0)"/>
      <use xlink:href="#Pretendard-Regular-1cd" transform="translate(292.890625 0)"/>
      <use xlink:href="#Pretendard-Regular-1e9" transform="translate(345.828125 0)"/>
      <use xlink:href="#Pretendard-Regular-2" transform="translate(401.109375 0)"/>
      <use xlink:href="#Pretendard-Regular-214" transform="translate(426.203125 0)"/>
      <use xlink:href="#Pretendard-Regular-1a0" transform="translate(458.375 0)"/>
      <use xlink:href="#Pretendard-Regular-25d" transform="translate(511.890625 0)"/>
      <use xlink:href="#Pretendard-Regular-25d" transform="translate(533.671875 0)"/>
      <use xlink:href="#Pretendard-Regular-1c4" transform="translate(555.453125 0)"/>
      <use xlink:href="#Pretendard-Regular-1a0" transform="translate(614.53125 0)"/>
      <use xlink:href="#Pretendard-Regular-1cd" transform="translate(668.046875 0)"/>
      <use xlink:href="#Pretendard-Regular-254" transform="translate(720.984375 0)"/>
      <use xlink:href="#Pretendard-Regular-2" transform="translate(772.640625 0)"/>
      <use xlink:href="#Pretendard-Regular-1a0" transform="translate(797.734375 0)"/>
      <use xlink:href="#Pretendard-Regular-26f" transform="translate(851.25 0)"/>
      <use xlink:href="#Pretendard-Regular-285" transform="translate(934.65625 0)"/>
      <use xlink:href="#Pretendard-Regular-276" transform="translate(991.390625 0)"/>
      <use xlink:href="#Pretendard-Regular-219" transform="translate(1047.0625 0)"/>
      <use xlink:href="#Pretendard-Regular-2" transform="translate(1104.96875 0)"/>
      <use xlink:href="#Pretendard-Regular-1a0" transform="translate(1130.0625 0)"/>
      <use xlink:href="#Pretendard-Regular-2ab" transform="translate(1183.578125 0)"/>
      <use xlink:href="#Pretendard-Regular-2ab" transform="translate(1241.484375 0)"/>
      <use xlink:href="#Pretendard-Regular-25d" transform="translate(1299.390625 0)"/>
      <use xlink:href="#Pretendard-Regular-23a" transform="translate(1321.171875 0)"/>
      <use xlink:href="#Pretendard-Regular-1cd" transform="translate(1342.953125 0)"/>
      <use xlink:href="#Pretendard-Regular-1a0" transform="translate(1395.890625 0)"/>
      <use xlink:href="#Pretendard-Regular-2d3" transform="translate(1449.40625 0)"/>
      <use xlink:href="#Pretendard-Regular-23a" transform="translate(1483.390625 0)"/>
      <use xlink:href="#Pretendard-Regular-285" transform="translate(1505.171875 0)"/>
      <use xlink:href="#Pretendard-Regular-276" transform="translate(1561.90625 0)"/>
     </g>
     <!-- boundaries [%]  (lower is better) -->
     <g transform="translate(26.500781 168.547992) rotate(-90) scale(0.09 -0.09)">
      <defs>
       <path id="Pretendard-Regular-2e8" d="M 2575 1394 
C 2575 763 2088 475 1706 475 
C 1275 475 969 788 969 1275 
L 969 3394 
L 431 3394 
L 431 1238 
C 431 375 888 -44 1531 -44 
C 2044 -44 2375 231 2538 575 
L 2575 575 
L 2575 0 
L 3106 0 
L 3106 3394 
L 2575 3394 
L 2575 1394 
z
" transform="scale(0.015625)"/>
       <path id="Pretendard-Regular-2b4" d="M 431 0 
L 969 0 
L 969 2138 
C 969 2594 1331 2931 1819 2931 
C 1956 2931 2106 2906 2144 2894 
L 2144 3438 
C 2081 3444 1944 3450 1863 3450 
C 1463 3450 1113 3219 988 2875 
L 950 2875 
L 950 3394 
L 431 3394 
L 431 0 
z
" transform="scale(0.015625)"/>
       <path id="Pretendard-Regular-2c3" d="M 2319 2513 
L 2844 2513 
C 2775 3063 2331 3438 1631 3438 
C 881 3438 375 3019 375 2438 
C 375 1988 688 1663 1281 1525 
L 1794 1406 
C 2181 1319 2350 1156 2350 919 
C 2350 600 2044 400 1563 400 
C 1138 400 894 556 831 888 
L 269 888 
C 356 269 813 -69 1575 -69 
C 2425 -69 2906 363 2906 950 
C 2906 1425 2606 1725 2000 1869 
L 1494 1994 
C 1094 2088 913 2244 913 2469 
C 913 2756 1213 2981 1631 2981 
C 2031 2981 2244 2794 2319 2513 
z
" transform="scale(0.015625)"/>
       <path id="Pretendard-Regular-33d5" d="M 688 -1275 
L 2013 -1275 
L 2013 -825 
L 1194 -825 
L 1194 4275 
L 2013 4275 
L 2013 4719 
L 688 4719 
L 688 -1275 
z
" transform="scale(0.015625)"/>
       <path id="Pretendard-Regular-3623" d="M 1381 2425 
C 1963 2425 2288 2863 2288 3513 
C 2288 4150 1975 4594 1381 4594 
C 806 4594 475 4150 475 3513 
C 475 2863 794 2425 1381 2425 
z
M 1381 2813 
C 1081 2813 931 3088 931 3513 
C 931 3931 1081 4206 1381 4206 
C 1700 4213 1831 3931 1831 3513 
C 1831 3088 1688 2813 1381 2813 
z
M 4144 -63 
C 4719 -69 5044 375 5044 1019 
C 5044 1663 4731 2106 4144 2106 
C 3569 2106 3231 1663 3238 1019 
C 3231 375 3556 -69 4144 -63 
z
M 4144 325 
C 3838 325 3688 600 3688 1019 
C 3688 1444 3844 1713 4144 1719 
C 4456 1725 4588 1444 4588 1019 
C 4588 600 4444 325 4144 325 
z
M 919 0 
L 1425 0 
L 4538 4525 
L 4031 4525 
L 919 0 
z
" transform="scale(0.015625)"/>
       <path id="Pretendard-Regular-33d6" d="M 1494 -1275 
L 1494 4719 
L 169 4719 
L 169 4275 
L 988 4275 
L 988 -825 
L 169 -825 
L 169 -1275 
L 1494 -1275 
z
" transform="scale(0.015625)"/>
       <path id="Pretendard-Regular-33d1" d="M 569 1725 
C 575 544 894 -438 1469 -1275 
L 1944 -1275 
C 1519 -656 1125 613 1125 1725 
C 1125 2838 1519 4100 1944 4719 
L 1469 4719 
C 894 3888 575 2906 569 1725 
z
" transform="scale(0.015625)"/>
       <path id="Pretendard-Regular-32d" d="M 1194 0 
L 1731 0 
L 2463 2588 
L 2513 2588 
L 3250 0 
L 3781 0 
L 4813 3394 
L 4250 3394 
L 3525 819 
L 3488 819 
L 2781 3394 
L 2206 3394 
L 1488 806 
L 1456 806 
L 731 3394 
L 163 3394 
L 1194 0 
z
" transform="scale(0.015625)"/>
       <path id="Pretendard-Regular-33d2" d="M 1613 1725 
C 1606 2906 1288 3888 713 4719 
L 238 4719 
C 663 4100 1056 2838 1056 1725 
C 1056 613 663 -656 238 -1275 
L 713 -1275 
C 1288 -438 1606 544 1613 1725 
z
" transform="scale(0.015625)"/>
      </defs>
      <use xlink:href="#Pretendard-Regular-1c4"/>
      <use xlink:href="#Pretendard-Regular-285" transform="translate(59.078125 0)"/>
      <use xlink:href="#Pretendard-Regular-2e8" transform="translate(115.8125 0)"/>
      <use xlink:href="#Pretendard-Regular-276" transform="translate(171.09375 0)"/>
      <use xlink:href="#Pretendard-Regular-1d7" transform="translate(226.765625 0)"/>
      <use xlink:href="#Pretendard-Regular-1a0" transform="translate(285.84375 0)"/>
      <use xlink:href="#Pretendard-Regular-2b4" transform="translate(339.359375 0)"/>
      <use xlink:href="#Pretendard-Regular-23a" transform="translate(374.328125 0)"/>
      <use xlink:href="#Pretendard-Regular-1e9" transform="translate(396.109375 0)"/>
      <use xlink:href="#Pretendard-Regular-2c3" transform="translate(451.390625 0)"/>
      <use xlink:href="#Pretendard-Regular-2" transform="translate(501 0)"/>
      <use xlink:href="#Pretendard-Regular-33d5" transform="translate(526.09375 0)"/>
      <use xlink:href="#Pretendard-Regular-3623" transform="translate(560.171875 0)"/>
      <use xlink:href="#Pretendard-Regular-33d6" transform="translate(646.40625 0)"/>
      <use xlink:href="#Pretendard-Regular-2" transform="translate(680.484375 0)"/>
      <use xlink:href="#Pretendard-Regular-2" transform="translate(705.578125 0)"/>
      <use xlink:href="#Pretendard-Regular-33d1" transform="translate(730.671875 0)"/>
      <use xlink:href="#Pretendard-Regular-25d" transform="translate(764.75 0)"/>
      <use xlink:href="#Pretendard-Regular-285" transform="translate(786.53125 0)"/>
      <use xlink:href="#Pretendard-Regular-32d" transform="translate(841.515625 0)"/>
      <use xlink:href="#Pretendard-Regular-1e9" transform="translate(917.5 0)"/>
      <use xlink:href="#Pretendard-Regular-2b4" transform="translate(972.78125 0)"/>
      <use xlink:href="#Pretendard-Regular-2" transform="translate(1007.75 0)"/>
      <use xlink:href="#Pretendard-Regular-23a" transform="translate(1032.84375 0)"/>
      <use xlink:href="#Pretendard-Regular-2c3" transform="translate(1054.625 0)"/>
      <use xlink:href="#Pretendard-Regular-2" transform="translate(1104.234375 0)"/>
      <use xlink:href="#Pretendard-Regular-1c4" transform="translate(1129.328125 0)"/>
      <use xlink:href="#Pretendard-Regular-1e9" transform="translate(1188.40625 0)"/>
      <use xlink:href="#Pretendard-Regular-2d3" transform="translate(1243.6875 0)"/>
      <use xlink:href="#Pretendard-Regular-2d3" transform="translate(1277.671875 0)"/>
      <use xlink:href="#Pretendard-Regular-1e9" transform="translate(1311.125 0)"/>
      <use xlink:href="#Pretendard-Regular-2b4" transform="translate(1366.40625 0)"/>
      <use xlink:href="#Pretendard-Regular-33d2" transform="translate(1401.375 0)"/>
     </g>
    </g>
   </g>
   <g id="line2d_23">
    <path d="M 158.706446 183.188602 
L 158.706446 24.716602 
" clip-path="url(#p4f33b2a035)" style="fill: none; stroke: #bbbbbb; stroke-width: 0.8; stroke-linecap: square"/>
   </g>
   <g id="patch_3">
    <path d="M 52.71168 183.188602 
L 52.71168 24.716602 
" style="fill: none; stroke: #000000; stroke-width: 0.8; stroke-linejoin: miter; stroke-linecap: square"/>
   </g>
   <g id="patch_4">
    <path d="M 52.71168 183.188602 
L 264.701212 183.188602 
" style="fill: none; stroke: #000000; stroke-width: 0.8; stroke-linejoin: miter; stroke-linecap: square"/>
   </g>
   <g id="PathCollection_1">
    <defs>
     <path id="m15cb3da6b9" d="M -3.464102 3.464102 
L 3.464102 3.464102 
L 3.464102 -3.464102 
L -3.464102 -3.464102 
z
" style="stroke: #000000; stroke-width: 1.2"/>
    </defs>
    <g clip-path="url(#p4f33b2a035)">
     <use xlink:href="#m15cb3da6b9" x="62.347568" y="93.013658" style="fill: #ffffff; stroke: #000000; stroke-width: 1.2"/>
     <use xlink:href="#m15cb3da6b9" x="100.891119" y="93.600022" style="fill: #ffffff; stroke: #000000; stroke-width: 1.2"/>
     <use xlink:href="#m15cb3da6b9" x="139.43467" y="142.532661" style="fill: #ffffff; stroke: #000000; stroke-width: 1.2"/>
     <use xlink:href="#m15cb3da6b9" x="177.978222" y="40.696971" style="fill: #ffffff; stroke: #000000; stroke-width: 1.2"/>
     <use xlink:href="#m15cb3da6b9" x="216.521773" y="54.013946" style="fill: #ffffff; stroke: #000000; stroke-width: 1.2"/>
     <use xlink:href="#m15cb3da6b9" x="255.065325" y="95.97498" style="fill: #ffffff; stroke: #000000; stroke-width: 1.2"/>
    </g>
   </g>
   <g id="text_13">
    <!-- Drag -->
    <g transform="translate(93.715619 35.158129) scale(0.064 -0.064)">
     <defs>
      <path id="Pretendard-Bold-31" d="M 1975 0 
C 3356 0 4188 850 4188 2269 
C 4188 3675 3356 4525 1994 4525 
L 381 4525 
L 381 0 
L 1975 0 
z
M 1319 806 
L 1319 3719 
L 1944 3719 
C 2800 3719 3250 3275 3250 2269 
C 3250 1256 2800 806 1938 806 
L 1319 806 
z
" transform="scale(0.015625)"/>
      <path id="Pretendard-Bold-2b4" d="M 363 0 
L 1288 0 
L 1288 1931 
C 1288 2344 1594 2638 2013 2638 
C 2144 2638 2319 2613 2406 2588 
L 2406 3413 
C 2325 3431 2206 3444 2113 3444 
C 1731 3444 1419 3225 1294 2806 
L 1256 2806 
L 1256 3394 
L 363 3394 
L 363 0 
z
" transform="scale(0.015625)"/>
      <path id="Pretendard-Bold-1a0" d="M 200 950 
C 200 275 681 -63 1331 -63 
C 1838 -63 2156 156 2325 469 
L 2350 469 
L 2350 0 
L 3225 0 
L 3225 2288 
C 3225 3106 2525 3438 1788 3438 
C 888 3438 375 2975 319 2388 
L 1200 2388 
C 1250 2619 1450 2763 1763 2763 
C 2106 2763 2300 2594 2306 2313 
L 2306 2038 
C 2163 2031 1706 2009 1463 1994 
C 813 1956 200 1706 200 950 
z
M 1088 975 
C 1088 1238 1294 1388 1613 1419 
C 1772 1434 2166 1456 2306 1463 
L 2306 1213 
C 2313 856 2013 575 1594 575 
C 1300 575 1088 713 1088 975 
z
" transform="scale(0.015625)"/>
      <path id="Pretendard-Bold-219" d="M 1888 -1344 
C 2850 -1344 3538 -900 3538 -38 
L 3538 3394 
L 2619 3394 
L 2619 2825 
L 2581 2825 
C 2456 3100 2181 3438 1613 3438 
C 863 3438 231 2869 231 1719 
C 231 588 844 50 1613 50 
C 2156 50 2456 325 2581 600 
L 2625 600 
L 2625 -19 
C 2625 -494 2338 -675 1906 -675 
C 1538 -675 1281 -550 1231 -281 
L 319 -281 
C 375 -925 950 -1344 1888 -1344 
z
M 1900 744 
C 1431 744 1181 1119 1181 1706 
C 1181 2294 1431 2700 1900 2700 
C 2363 2700 2625 2313 2625 1706 
C 2625 1106 2363 744 1900 744 
z
" transform="scale(0.015625)"/>
     </defs>
     <use xlink:href="#Pretendard-Bold-31"/>
     <use xlink:href="#Pretendard-Bold-2b4" transform="translate(70.125 0)"/>
     <use xlink:href="#Pretendard-Bold-1a0" transform="translate(107.625 0)"/>
     <use xlink:href="#Pretendard-Bold-219" transform="translate(163.390625 0)"/>
    </g>
   </g>
   <g id="text_14">
    <!-- Circumduction -->
    <g transform="translate(194.189773 35.158129) scale(0.064 -0.064)">
     <defs>
      <path id="Pretendard-Bold-29" d="M 3406 2950 
L 4356 2950 
C 4231 3988 3444 4588 2400 4588 
C 1206 4588 294 3738 294 2263 
C 294 788 1188 -63 2400 -63 
C 3550 -63 4250 700 4356 1538 
L 3406 1544 
C 3313 1056 2931 769 2413 769 
C 1719 769 1250 1288 1250 2263 
C 1250 3213 1713 3756 2419 3756 
C 2944 3756 3331 3450 3406 2950 
z
" transform="scale(0.015625)"/>
      <path id="Pretendard-Bold-23a" d="M 363 0 
L 1288 0 
L 1288 3394 
L 363 3394 
L 363 0 
z
M 825 3838 
C 1100 3838 1325 4050 1325 4306 
C 1325 4569 1100 4781 825 4781 
C 544 4781 319 4569 319 4306 
C 319 4050 544 3838 825 3838 
z
" transform="scale(0.015625)"/>
      <path id="Pretendard-Bold-1cd" d="M 1888 -69 
C 2788 -69 3350 463 3394 1231 
L 2525 1231 
C 2469 869 2225 669 1900 669 
C 1450 669 1163 1044 1163 1700 
C 1163 2344 1456 2719 1900 2719 
C 2250 2719 2469 2488 2525 2150 
L 3394 2150 
C 3356 2925 2763 3438 1888 3438 
C 856 3438 225 2725 225 1688 
C 225 650 850 -69 1888 -69 
z
" transform="scale(0.015625)"/>
      <path id="Pretendard-Bold-2e8" d="M 2538 1444 
C 2538 981 2219 738 1881 738 
C 1519 738 1288 994 1288 1394 
L 1288 3394 
L 363 3394 
L 363 1231 
C 363 438 825 -44 1506 -44 
C 2019 -44 2381 219 2538 613 
L 2575 613 
L 2575 0 
L 3463 0 
L 3463 3394 
L 2538 3394 
L 2538 1444 
z
" transform="scale(0.015625)"/>
      <path id="Pretendard-Bold-26f" d="M 363 0 
L 1288 0 
L 1288 2038 
C 1288 2425 1531 2675 1844 2675 
C 2156 2675 2369 2463 2369 2125 
L 2369 0 
L 3269 0 
L 3269 2075 
C 3269 2431 3469 2675 3819 2675 
C 4125 2675 4350 2488 4350 2100 
L 4350 0 
L 5275 0 
L 5275 2281 
C 5275 3019 4838 3438 4206 3438 
C 3706 3438 3325 3188 3181 2800 
L 3150 2800 
C 3038 3194 2694 3438 2225 3438 
C 1769 3438 1425 3194 1281 2800 
L 1244 2800 
L 1244 3394 
L 363 3394 
L 363 0 
z
" transform="scale(0.015625)"/>
      <path id="Pretendard-Bold-1d7" d="M 1613 -56 
C 2163 -56 2444 263 2575 544 
L 2619 544 
L 2619 0 
L 3531 0 
L 3531 4525 
L 2606 4525 
L 2606 2825 
L 2575 2825 
C 2450 3100 2181 3438 1613 3438 
C 863 3438 231 2856 231 1694 
C 231 563 838 -56 1613 -56 
z
M 1900 681 
C 1431 681 1181 1100 1181 1700 
C 1181 2294 1431 2700 1900 2700 
C 2363 2700 2625 2313 2625 1700 
C 2625 1088 2363 681 1900 681 
z
" transform="scale(0.015625)"/>
      <path id="Pretendard-Bold-2d3" d="M 2150 3394 
L 1513 3394 
L 1513 4206 
L 588 4206 
L 588 3394 
L 119 3394 
L 119 2700 
L 588 2700 
L 588 913 
C 581 256 1038 -44 1706 -44 
C 1938 -44 2100 -31 2200 -13 
L 2200 719 
C 2088 706 1925 700 1831 700 
C 1644 706 1513 775 1513 1044 
L 1513 2700 
L 2150 2700 
L 2150 3394 
z
" transform="scale(0.015625)"/>
      <path id="Pretendard-Bold-285" d="M 1888 -69 
C 2913 -69 3556 638 3556 1688 
C 3556 2738 2913 3438 1888 3438 
C 863 3438 225 2738 225 1688 
C 225 638 863 -69 1888 -69 
z
M 1894 650 
C 1413 650 1163 1094 1163 1688 
C 1163 2288 1413 2731 1894 2731 
C 2369 2731 2613 2288 2613 1688 
C 2613 1094 2369 650 1894 650 
z
" transform="scale(0.015625)"/>
      <path id="Pretendard-Bold-276" d="M 1288 1963 
C 1288 2413 1550 2669 1938 2669 
C 2319 2669 2550 2419 2550 2000 
L 2550 0 
L 3469 0 
L 3469 2163 
C 3475 2956 3006 3438 2300 3438 
C 1800 3438 1438 3194 1281 2800 
L 1244 2800 
L 1244 3394 
L 363 3394 
L 363 0 
L 1288 0 
L 1288 1963 
z
" transform="scale(0.015625)"/>
     </defs>
     <use xlink:href="#Pretendard-Bold-29"/>
     <use xlink:href="#Pretendard-Bold-23a" transform="translate(72.359375 0)"/>
     <use xlink:href="#Pretendard-Bold-2b4" transform="translate(98.046875 0)"/>
     <use xlink:href="#Pretendard-Bold-1cd" transform="translate(135.359375 0)"/>
     <use xlink:href="#Pretendard-Bold-2e8" transform="translate(191.703125 0)"/>
     <use xlink:href="#Pretendard-Bold-26f" transform="translate(251.375 0)"/>
     <use xlink:href="#Pretendard-Bold-1d7" transform="translate(339.265625 0)"/>
     <use xlink:href="#Pretendard-Bold-2e8" transform="translate(400.40625 0)"/>
     <use xlink:href="#Pretendard-Bold-1cd" transform="translate(460.078125 0)"/>
     <use xlink:href="#Pretendard-Bold-2d3" transform="translate(516.421875 0)"/>
     <use xlink:href="#Pretendard-Bold-23a" transform="translate(553.4375 0)"/>
     <use xlink:href="#Pretendard-Bold-285" transform="translate(579.125 0)"/>
     <use xlink:href="#Pretendard-Bold-276" transform="translate(638.109375 0)"/>
    </g>
   </g>
   <g id="text_15">
    <g id="patch_5">
     <path d="M 56.95147 68.577017 
L 123.68422 68.577017 
Q 125.57422 68.577017 125.57422 66.687017 
L 125.57422 51.656842 
Q 125.57422 49.766842 123.68422 49.766842 
L 56.95147 49.766842 
Q 55.06147 49.766842 55.06147 51.656842 
L 55.06147 66.687017 
Q 55.06147 68.577017 56.95147 68.577017 
z
" style="fill: #ffffff; opacity: 0.93; stroke: #d0d0d0; stroke-linejoin: miter"/>
    </g>
    <!-- Pooled: 60.6% → 21.6% -->
    <g transform="translate(56.95147 57.652301) scale(0.063 -0.063)">
     <defs>
      <path id="Pretendard-Regular-d6" d="M 500 0 
L 1063 0 
L 1063 1644 
L 2044 1644 
C 3100 1644 3581 2288 3581 3088 
C 3581 3894 3100 4525 2038 4525 
L 500 4525 
L 500 0 
z
M 1063 2144 
L 1063 4025 
L 2013 4025 
C 2738 4025 3025 3631 3025 3088 
C 3025 2550 2738 2144 2019 2144 
L 1063 2144 
z
" transform="scale(0.015625)"/>
      <path id="Pretendard-Regular-335b" d="M 813 -38 
C 1031 -38 1213 144 1213 369 
C 1213 588 1031 769 813 769 
C 594 769 406 588 413 369 
C 406 144 594 -38 813 -38 
z
M 813 2475 
C 1031 2475 1213 2656 1213 2881 
C 1213 3100 1031 3281 813 3281 
C 594 3281 406 3100 413 2881 
C 406 2656 594 2475 813 2475 
z
" transform="scale(0.015625)"/>
      <path id="Pretendard-Regular-32cf" d="M 2000 -63 
C 2950 -69 3575 613 3575 1463 
C 3575 2338 2906 2963 2100 2963 
C 1613 2963 1200 2738 938 2363 
L 881 2363 
C 881 3450 1325 4088 2069 4088 
C 2575 4088 2875 3788 2981 3388 
L 3538 3388 
C 3419 4100 2863 4588 2069 4588 
C 1006 4588 350 3688 350 2088 
C 350 413 1213 -50 2000 -63 
z
M 2000 431 
C 1394 431 956 919 956 1450 
C 963 1988 1419 2469 2013 2469 
C 2606 2469 3025 2013 3031 1456 
C 3025 894 2588 431 2000 431 
z
" transform="scale(0.015625)"/>
      <path id="Pretendard-Regular-3359" d="M 813 -38 
C 1031 -38 1213 144 1213 369 
C 1213 588 1031 769 813 769 
C 594 769 406 588 413 369 
C 406 144 594 -38 813 -38 
z
" transform="scale(0.015625)"/>
      <path id="Pretendard-Regular-3686" d="M 3288 275 
L 5275 2263 
L 3288 4250 
L 2938 3906 
L 4338 2506 
L 731 2506 
L 731 2013 
L 4338 2013 
L 2938 613 
L 3288 275 
z
" transform="scale(0.015625)"/>
     </defs>
     <use xlink:href="#Pretendard-Regular-d6"/>
     <use xlink:href="#Pretendard-Regular-285" transform="translate(59.921875 0)"/>
     <use xlink:href="#Pretendard-Regular-285" transform="translate(116.65625 0)"/>
     <use xlink:href="#Pretendard-Regular-25d" transform="translate(173.390625 0)"/>
     <use xlink:href="#Pretendard-Regular-1e9" transform="translate(195.171875 0)"/>
     <use xlink:href="#Pretendard-Regular-1d7" transform="translate(250.453125 0)"/>
     <use xlink:href="#Pretendard-Regular-335b" transform="translate(309.53125 0)"/>
     <use xlink:href="#Pretendard-Regular-2" transform="translate(334.921875 0)"/>
     <use xlink:href="#Pretendard-Regular-32cf" transform="translate(360.015625 0)"/>
     <use xlink:href="#Pretendard-Regular-32c9" transform="translate(421.34375 0)"/>
     <use xlink:href="#Pretendard-Regular-3359" transform="translate(478.4375 0)"/>
     <use xlink:href="#Pretendard-Regular-32cf" transform="translate(501.34375 0)"/>
     <use xlink:href="#Pretendard-Regular-3623" transform="translate(562.671875 0)"/>
     <use xlink:href="#Pretendard-Regular-2" transform="translate(648.90625 0)"/>
     <use xlink:href="#Pretendard-Regular-3686" transform="translate(674 0)"/>
     <use xlink:href="#Pretendard-Regular-2" transform="translate(765.3125 0)"/>
     <use xlink:href="#Pretendard-Regular-32cb" transform="translate(790.40625 0)"/>
     <use xlink:href="#Pretendard-Regular-32ca" transform="translate(849.09375 0)"/>
     <use xlink:href="#Pretendard-Regular-3359" transform="translate(888.78125 0)"/>
     <use xlink:href="#Pretendard-Regular-32cf" transform="translate(911.6875 0)"/>
     <use xlink:href="#Pretendard-Regular-3623" transform="translate(973.015625 0)"/>
    </g>
    <!-- 5/6 conditions lower -->
    <g transform="translate(56.95147 65.167388) scale(0.063 -0.063)">
     <defs>
      <path id="Pretendard-Regular-337a" d="M 2044 4738 
L 1550 4738 
L 94 -681 
L 581 -681 
L 2044 4738 
z
" transform="scale(0.015625)"/>
     </defs>
     <use xlink:href="#Pretendard-Regular-32ce"/>
     <use xlink:href="#Pretendard-Regular-337a" transform="translate(59.671875 0)"/>
     <use xlink:href="#Pretendard-Regular-32cf" transform="translate(93.078125 0)"/>
     <use xlink:href="#Pretendard-Regular-2" transform="translate(154.40625 0)"/>
     <use xlink:href="#Pretendard-Regular-1cd" transform="translate(179.5 0)"/>
     <use xlink:href="#Pretendard-Regular-285" transform="translate(232.4375 0)"/>
     <use xlink:href="#Pretendard-Regular-276" transform="translate(289.171875 0)"/>
     <use xlink:href="#Pretendard-Regular-1d7" transform="translate(344.84375 0)"/>
     <use xlink:href="#Pretendard-Regular-23a" transform="translate(403.921875 0)"/>
     <use xlink:href="#Pretendard-Regular-2d3" transform="translate(425.703125 0)"/>
     <use xlink:href="#Pretendard-Regular-23a" transform="translate(459.6875 0)"/>
     <use xlink:href="#Pretendard-Regular-285" transform="translate(481.46875 0)"/>
     <use xlink:href="#Pretendard-Regular-276" transform="translate(538.203125 0)"/>
     <use xlink:href="#Pretendard-Regular-2c3" transform="translate(593.875 0)"/>
     <use xlink:href="#Pretendard-Regular-2" transform="translate(643.484375 0)"/>
     <use xlink:href="#Pretendard-Regular-25d" transform="translate(668.578125 0)"/>
     <use xlink:href="#Pretendard-Regular-285" transform="translate(690.359375 0)"/>
     <use xlink:href="#Pretendard-Regular-32d" transform="translate(745.34375 0)"/>
     <use xlink:href="#Pretendard-Regular-1e9" transform="translate(821.328125 0)"/>
     <use xlink:href="#Pretendard-Regular-2b4" transform="translate(876.609375 0)"/>
    </g>
   </g>
   <g id="text_16">
    <!-- Affected side -->
    <g transform="translate(127.088477 16.716602) scale(0.1 -0.1)">
     <defs>
      <path id="Pretendard-Bold-3" d="M 1138 0 
L 1481 1044 
L 3119 1044 
L 3456 0 
L 4463 0 
L 2900 4525 
L 1694 4525 
L 125 0 
L 1138 0 
z
M 1719 1775 
L 2281 3506 
L 2313 3506 
L 2881 1775 
L 1719 1775 
z
" transform="scale(0.015625)"/>
      <path id="Pretendard-Bold-214" d="M 2169 3394 
L 1494 3394 
L 1494 3600 
C 1494 3881 1650 4000 1950 4000 
C 2000 4000 2100 3994 2231 3981 
L 2231 4681 
C 2069 4719 1894 4738 1681 4738 
C 1000 4738 569 4363 569 3650 
L 569 3394 
L 88 3394 
L 88 2700 
L 569 2700 
L 569 0 
L 1494 0 
L 1494 2700 
L 2169 2700 
L 2169 3394 
z
" transform="scale(0.015625)"/>
      <path id="Pretendard-Bold-1e9" d="M 1900 -69 
C 2738 -69 3300 344 3431 969 
L 2550 969 
C 2456 763 2231 625 1919 625 
C 1444 625 1138 944 1138 1456 
L 3456 1456 
L 3456 1719 
C 3456 2875 2756 3438 1863 3438 
C 869 3438 225 2731 225 1681 
C 225 606 863 -69 1900 -69 
z
M 1138 2038 
C 1153 2428 1456 2744 1881 2744 
C 2294 2744 2581 2450 2581 2038 
L 1138 2038 
z
" transform="scale(0.015625)"/>
      <path id="Pretendard-Bold-2" transform="scale(0.015625)"/>
      <path id="Pretendard-Bold-2c3" d="M 2300 2388 
L 3169 2388 
C 3119 3031 2588 3438 1731 3438 
C 856 3438 294 3031 300 2381 
C 294 1881 631 1544 1275 1419 
L 1838 1306 
C 2156 1238 2300 1131 2300 956 
C 2300 738 2075 600 1738 600 
C 1400 600 1181 738 1138 1006 
L 206 1006 
C 281 344 819 -69 1738 -69 
C 2638 -69 3238 381 3244 1050 
C 3238 1538 2919 1831 2263 1969 
L 1656 2094 
C 1338 2163 1213 2281 1219 2431 
C 1213 2638 1444 2781 1744 2781 
C 2050 2781 2263 2625 2300 2388 
z
" transform="scale(0.015625)"/>
     </defs>
     <use xlink:href="#Pretendard-Bold-3"/>
     <use xlink:href="#Pretendard-Bold-214" transform="translate(70.8125 0)"/>
     <use xlink:href="#Pretendard-Bold-214" transform="translate(107.53125 0)"/>
     <use xlink:href="#Pretendard-Bold-1e9" transform="translate(142.34375 0)"/>
     <use xlink:href="#Pretendard-Bold-1cd" transform="translate(199.765625 0)"/>
     <use xlink:href="#Pretendard-Bold-2d3" transform="translate(256.109375 0)"/>
     <use xlink:href="#Pretendard-Bold-1e9" transform="translate(292.59375 0)"/>
     <use xlink:href="#Pretendard-Bold-1d7" transform="translate(350.015625 0)"/>
     <use xlink:href="#Pretendard-Bold-2" transform="translate(411.15625 0)"/>
     <use xlink:href="#Pretendard-Bold-2c3" transform="translate(434.203125 0)"/>
     <use xlink:href="#Pretendard-Bold-23a" transform="translate(488.109375 0)"/>
     <use xlink:href="#Pretendard-Bold-1d7" transform="translate(513.796875 0)"/>
     <use xlink:href="#Pretendard-Bold-1e9" transform="translate(574.9375 0)"/>
    </g>
   </g>
   <g id="PathCollection_2">
    <defs>
     <path id="m1cba9068d4" d="M 0 3.605551 
C 0.956203 3.605551 1.873372 3.225648 2.54951 2.54951 
C 3.225648 1.873372 3.605551 0.956203 3.605551 0 
C 3.605551 -0.956203 3.225648 -1.873372 2.54951 -2.54951 
C 1.873372 -3.225648 0.956203 -3.605551 0 -3.605551 
C -0.956203 -3.605551 -1.873372 -3.225648 -2.54951 -2.54951 
C -3.225648 -1.873372 -3.605551 -0.956203 -3.605551 0 
C -3.605551 0.956203 -3.225648 1.873372 -2.54951 2.54951 
C -1.873372 3.225648 -0.956203 3.605551 0 3.605551 
z
" style="stroke: #0072b2"/>
    </defs>
    <g clip-path="url(#p4f33b2a035)">
     <use xlink:href="#m1cba9068d4" x="62.347568" y="173.866719" style="fill: #0072b2; stroke: #0072b2"/>
     <use xlink:href="#m1cba9068d4" x="100.891119" y="171.305763" style="fill: #0072b2; stroke: #0072b2"/>
     <use xlink:href="#m1cba9068d4" x="139.43467" y="153.55269" style="fill: #0072b2; stroke: #0072b2"/>
     <use xlink:href="#m1cba9068d4" x="177.978222" y="173.866719" style="fill: #0072b2; stroke: #0072b2"/>
     <use xlink:href="#m1cba9068d4" x="216.521773" y="139.62307" style="fill: #0072b2; stroke: #0072b2"/>
     <use xlink:href="#m1cba9068d4" x="255.065325" y="60.185227" style="fill: #0072b2; stroke: #0072b2"/>
    </g>
   </g>
  </g>
  <g id="axes_2">
   <g id="patch_6">
    <path d="M 294.379747 183.188602 
L 506.36928 183.188602 
L 506.36928 24.716602 
L 294.379747 24.716602 
z
" style="fill: #ffffff"/>
   </g>
   <g id="line2d_24">
    <path d="M 304.015635 118.761996 
L 304.015635 141.583144 
" clip-path="url(#p0554fefebe)" style="fill: none; stroke: #009e73; stroke-opacity: 0.8; stroke-width: 1.7; stroke-linecap: square"/>
   </g>
   <g id="line2d_25">
    <path d="M 342.559186 111.842453 
L 342.559186 159.070081 
" clip-path="url(#p0554fefebe)" style="fill: none; stroke: #009e73; stroke-opacity: 0.8; stroke-width: 1.7; stroke-linecap: square"/>
   </g>
   <g id="line2d_26">
    <path d="M 381.102738 72.756355 
L 381.102738 168.07673 
" clip-path="url(#p0554fefebe)" style="fill: none; stroke: #009e73; stroke-opacity: 0.8; stroke-width: 1.7; stroke-linecap: square"/>
   </g>
   <g id="line2d_27">
    <path d="M 419.646289 163.069172 
L 419.646289 156.683526 
" clip-path="url(#p0554fefebe)" style="fill: none; stroke: #d55e00; stroke-opacity: 0.8; stroke-width: 1.7; stroke-linecap: square"/>
   </g>
   <g id="line2d_28">
    <path d="M 458.18984 149.654038 
L 458.18984 163.353318 
" clip-path="url(#p0554fefebe)" style="fill: none; stroke: #009e73; stroke-opacity: 0.8; stroke-width: 1.7; stroke-linecap: square"/>
   </g>
   <g id="line2d_29">
    <path d="M 496.733392 101.491856 
L 496.733392 144.916774 
" clip-path="url(#p0554fefebe)" style="fill: none; stroke: #009e73; stroke-opacity: 0.8; stroke-width: 1.7; stroke-linecap: square"/>
   </g>
   <g id="matplotlib.axis_3">
    <g id="xtick_7">
     <g id="line2d_30">
      <g>
       <use xlink:href="#md88dec23fc" x="304.015635" y="183.188602" style="stroke: #000000; stroke-width: 0.8"/>
      </g>
     </g>
     <g id="text_17">
      <!-- 150 -->
      <g transform="translate(297.491885 197.801883) scale(0.08 -0.08)">
       <use xlink:href="#Pretendard-Regular-32ca"/>
       <use xlink:href="#Pretendard-Regular-32ce" transform="translate(43.84375 0)"/>
       <use xlink:href="#Pretendard-Regular-32c9" transform="translate(103.515625 0)"/>
      </g>
     </g>
    </g>
    <g id="xtick_8">
     <g id="line2d_31">
      <g>
       <use xlink:href="#md88dec23fc" x="342.559186" y="183.188602" style="stroke: #000000; stroke-width: 0.8"/>
      </g>
     </g>
     <g id="text_18">
      <!-- 350 -->
      <g transform="translate(335.320436 197.801883) scale(0.08 -0.08)">
       <use xlink:href="#Pretendard-Regular-32cc"/>
       <use xlink:href="#Pretendard-Regular-32ce" transform="translate(61.71875 0)"/>
       <use xlink:href="#Pretendard-Regular-32c9" transform="translate(121.390625 0)"/>
      </g>
     </g>
    </g>
    <g id="xtick_9">
     <g id="line2d_32">
      <g>
       <use xlink:href="#md88dec23fc" x="381.102738" y="183.188602" style="stroke: #000000; stroke-width: 0.8"/>
      </g>
     </g>
     <g id="text_19">
      <!-- 550 -->
      <g transform="translate(373.945863 197.801883) scale(0.08 -0.08)">
       <use xlink:href="#Pretendard-Regular-32ce"/>
       <use xlink:href="#Pretendard-Regular-32ce" transform="translate(59.671875 0)"/>
       <use xlink:href="#Pretendard-Regular-32c9" transform="translate(119.34375 0)"/>
      </g>
     </g>
    </g>
    <g id="xtick_10">
     <g id="line2d_33">
      <g>
       <use xlink:href="#md88dec23fc" x="419.646289" y="183.188602" style="stroke: #000000; stroke-width: 0.8"/>
      </g>
     </g>
     <g id="text_20">
      <!-- 150 -->
      <g transform="translate(413.122539 197.801883) scale(0.08 -0.08)">
       <use xlink:href="#Pretendard-Regular-32ca"/>
       <use xlink:href="#Pretendard-Regular-32ce" transform="translate(43.84375 0)"/>
       <use xlink:href="#Pretendard-Regular-32c9" transform="translate(103.515625 0)"/>
      </g>
     </g>
    </g>
    <g id="xtick_11">
     <g id="line2d_34">
      <g>
       <use xlink:href="#md88dec23fc" x="458.18984" y="183.188602" style="stroke: #000000; stroke-width: 0.8"/>
      </g>
     </g>
     <g id="text_21">
      <!-- 350 -->
      <g transform="translate(450.95109 197.801883) scale(0.08 -0.08)">
       <use xlink:href="#Pretendard-Regular-32cc"/>
       <use xlink:href="#Pretendard-Regular-32ce" transform="translate(61.71875 0)"/>
       <use xlink:href="#Pretendard-Regular-32c9" transform="translate(121.390625 0)"/>
      </g>
     </g>
    </g>
    <g id="xtick_12">
     <g id="line2d_35">
      <g>
       <use xlink:href="#md88dec23fc" x="496.733392" y="183.188602" style="stroke: #000000; stroke-width: 0.8"/>
      </g>
     </g>
     <g id="text_22">
      <!-- 550 -->
      <g transform="translate(489.576517 197.801883) scale(0.08 -0.08)">
       <use xlink:href="#Pretendard-Regular-32ce"/>
       <use xlink:href="#Pretendard-Regular-32ce" transform="translate(59.671875 0)"/>
       <use xlink:href="#Pretendard-Regular-32c9" transform="translate(119.34375 0)"/>
      </g>
     </g>
    </g>
   </g>
   <g id="matplotlib.axis_4">
    <g id="ytick_6">
     <g id="line2d_36">
      <path d="M 294.379747 173.866719 
L 506.36928 173.866719 
" clip-path="url(#p0554fefebe)" style="fill: none; stroke: #b0b0b0; stroke-opacity: 0.22; stroke-width: 0.5; stroke-linecap: square"/>
     </g>
     <g id="line2d_37">
      <g>
       <use xlink:href="#mb2bc03f183" x="294.379747" y="173.866719" style="stroke: #000000; stroke-width: 0.8"/>
      </g>
     </g>
    </g>
    <g id="ytick_7">
     <g id="line2d_38">
      <path d="M 294.379747 140.574282 
L 506.36928 140.574282 
" clip-path="url(#p0554fefebe)" style="fill: none; stroke: #b0b0b0; stroke-opacity: 0.22; stroke-width: 0.5; stroke-linecap: square"/>
     </g>
     <g id="line2d_39">
      <g>
       <use xlink:href="#mb2bc03f183" x="294.379747" y="140.574282" style="stroke: #000000; stroke-width: 0.8"/>
      </g>
     </g>
    </g>
    <g id="ytick_8">
     <g id="line2d_40">
      <path d="M 294.379747 107.281845 
L 506.36928 107.281845 
" clip-path="url(#p0554fefebe)" style="fill: none; stroke: #b0b0b0; stroke-opacity: 0.22; stroke-width: 0.5; stroke-linecap: square"/>
     </g>
     <g id="line2d_41">
      <g>
       <use xlink:href="#mb2bc03f183" x="294.379747" y="107.281845" style="stroke: #000000; stroke-width: 0.8"/>
      </g>
     </g>
    </g>
    <g id="ytick_9">
     <g id="line2d_42">
      <path d="M 294.379747 73.989408 
L 506.36928 73.989408 
" clip-path="url(#p0554fefebe)" style="fill: none; stroke: #b0b0b0; stroke-opacity: 0.22; stroke-width: 0.5; stroke-linecap: square"/>
     </g>
     <g id="line2d_43">
      <g>
       <use xlink:href="#mb2bc03f183" x="294.379747" y="73.989408" style="stroke: #000000; stroke-width: 0.8"/>
      </g>
     </g>
    </g>
    <g id="ytick_10">
     <g id="line2d_44">
      <path d="M 294.379747 40.696971 
L 506.36928 40.696971 
" clip-path="url(#p0554fefebe)" style="fill: none; stroke: #b0b0b0; stroke-opacity: 0.22; stroke-width: 0.5; stroke-linecap: square"/>
     </g>
     <g id="line2d_45">
      <g>
       <use xlink:href="#mb2bc03f183" x="294.379747" y="40.696971" style="stroke: #000000; stroke-width: 0.8"/>
      </g>
     </g>
    </g>
   </g>
   <g id="line2d_46">
    <path d="M 400.374513 183.188602 
L 400.374513 24.716602 
" clip-path="url(#p0554fefebe)" style="fill: none; stroke: #bbbbbb; stroke-width: 0.8; stroke-linecap: square"/>
   </g>
   <g id="patch_7">
    <path d="M 294.379747 183.188602 
L 294.379747 24.716602 
" style="fill: none; stroke: #000000; stroke-width: 0.8; stroke-linejoin: miter; stroke-linecap: square"/>
   </g>
   <g id="patch_8">
    <path d="M 294.379747 183.188602 
L 506.36928 183.188602 
" style="fill: none; stroke: #000000; stroke-width: 0.8; stroke-linejoin: miter; stroke-linecap: square"/>
   </g>
   <g id="PathCollection_3">
    <g clip-path="url(#p0554fefebe)">
     <use xlink:href="#m15cb3da6b9" x="304.015635" y="118.761996" style="fill: #ffffff; stroke: #000000; stroke-width: 1.2"/>
     <use xlink:href="#m15cb3da6b9" x="342.559186" y="111.842453" style="fill: #ffffff; stroke: #000000; stroke-width: 1.2"/>
     <use xlink:href="#m15cb3da6b9" x="381.102738" y="72.756355" style="fill: #ffffff; stroke: #000000; stroke-width: 1.2"/>
     <use xlink:href="#m15cb3da6b9" x="419.646289" y="163.069172" style="fill: #ffffff; stroke: #000000; stroke-width: 1.2"/>
     <use xlink:href="#m15cb3da6b9" x="458.18984" y="149.654038" style="fill: #ffffff; stroke: #000000; stroke-width: 1.2"/>
     <use xlink:href="#m15cb3da6b9" x="496.733392" y="101.491856" style="fill: #ffffff; stroke: #000000; stroke-width: 1.2"/>
    </g>
   </g>
   <g id="text_23">
    <!-- Drag -->
    <g transform="translate(335.383686 35.158129) scale(0.064 -0.064)">
     <use xlink:href="#Pretendard-Bold-31"/>
     <use xlink:href="#Pretendard-Bold-2b4" transform="translate(70.125 0)"/>
     <use xlink:href="#Pretendard-Bold-1a0" transform="translate(107.625 0)"/>
     <use xlink:href="#Pretendard-Bold-219" transform="translate(163.390625 0)"/>
    </g>
   </g>
   <g id="text_24">
    <!-- Circumduction -->
    <g transform="translate(435.85784 35.158129) scale(0.064 -0.064)">
     <use xlink:href="#Pretendard-Bold-29"/>
     <use xlink:href="#Pretendard-Bold-23a" transform="translate(72.359375 0)"/>
     <use xlink:href="#Pretendard-Bold-2b4" transform="translate(98.046875 0)"/>
     <use xlink:href="#Pretendard-Bold-1cd" transform="translate(135.359375 0)"/>
     <use xlink:href="#Pretendard-Bold-2e8" transform="translate(191.703125 0)"/>
     <use xlink:href="#Pretendard-Bold-26f" transform="translate(251.375 0)"/>
     <use xlink:href="#Pretendard-Bold-1d7" transform="translate(339.265625 0)"/>
     <use xlink:href="#Pretendard-Bold-2e8" transform="translate(400.40625 0)"/>
     <use xlink:href="#Pretendard-Bold-1cd" transform="translate(460.078125 0)"/>
     <use xlink:href="#Pretendard-Bold-2d3" transform="translate(516.421875 0)"/>
     <use xlink:href="#Pretendard-Bold-23a" transform="translate(553.4375 0)"/>
     <use xlink:href="#Pretendard-Bold-285" transform="translate(579.125 0)"/>
     <use xlink:href="#Pretendard-Bold-276" transform="translate(638.109375 0)"/>
    </g>
   </g>
   <g id="text_25">
    <g id="patch_9">
     <path d="M 298.619538 68.577017 
L 365.815928 68.577017 
Q 367.705928 68.577017 367.705928 66.687017 
L 367.705928 51.656842 
Q 367.705928 49.766842 365.815928 49.766842 
L 298.619538 49.766842 
Q 296.729538 49.766842 296.729538 51.656842 
L 296.729538 66.687017 
Q 296.729538 68.577017 298.619538 68.577017 
z
" style="fill: #ffffff; opacity: 0.93; stroke: #d0d0d0; stroke-linejoin: miter"/>
    </g>
    <!-- Pooled: 43.3% → 12.5% -->
    <g transform="translate(298.619538 57.652301) scale(0.063 -0.063)">
     <defs>
      <path id="Pretendard-Regular-32cd" d="M 313 925 
L 2506 925 
L 2506 0 
L 3044 0 
L 3044 925 
L 3675 925 
L 3675 1419 
L 3044 1419 
L 3044 4525 
L 2350 4525 
L 313 1388 
L 313 925 
z
M 919 1419 
L 919 1456 
L 2450 3813 
L 2506 3813 
L 2506 1419 
L 919 1419 
z
" transform="scale(0.015625)"/>
     </defs>
     <use xlink:href="#Pretendard-Regular-d6"/>
     <use xlink:href="#Pretendard-Regular-285" transform="translate(59.921875 0)"/>
     <use xlink:href="#Pretendard-Regular-285" transform="translate(116.65625 0)"/>
     <use xlink:href="#Pretendard-Regular-25d" transform="translate(173.390625 0)"/>
     <use xlink:href="#Pretendard-Regular-1e9" transform="translate(195.171875 0)"/>
     <use xlink:href="#Pretendard-Regular-1d7" transform="translate(250.453125 0)"/>
     <use xlink:href="#Pretendard-Regular-335b" transform="translate(309.53125 0)"/>
     <use xlink:href="#Pretendard-Regular-2" transform="translate(334.921875 0)"/>
     <use xlink:href="#Pretendard-Regular-32cd" transform="translate(360.015625 0)"/>
     <use xlink:href="#Pretendard-Regular-32cc" transform="translate(422.421875 0)"/>
     <use xlink:href="#Pretendard-Regular-3359" transform="translate(481.9375 0)"/>
     <use xlink:href="#Pretendard-Regular-32cc" transform="translate(504.6875 0)"/>
     <use xlink:href="#Pretendard-Regular-3623" transform="translate(566.40625 0)"/>
     <use xlink:href="#Pretendard-Regular-2" transform="translate(652.640625 0)"/>
     <use xlink:href="#Pretendard-Regular-3686" transform="translate(677.734375 0)"/>
     <use xlink:href="#Pretendard-Regular-2" transform="translate(769.046875 0)"/>
     <use xlink:href="#Pretendard-Regular-32ca" transform="translate(794.140625 0)"/>
     <use xlink:href="#Pretendard-Regular-32cb" transform="translate(837.984375 0)"/>
     <use xlink:href="#Pretendard-Regular-3359" transform="translate(896.671875 0)"/>
     <use xlink:href="#Pretendard-Regular-32ce" transform="translate(920.703125 0)"/>
     <use xlink:href="#Pretendard-Regular-3623" transform="translate(980.375 0)"/>
    </g>
    <!-- 5/6 conditions lower -->
    <g transform="translate(298.619538 65.167388) scale(0.063 -0.063)">
     <use xlink:href="#Pretendard-Regular-32ce"/>
     <use xlink:href="#Pretendard-Regular-337a" transform="translate(59.671875 0)"/>
     <use xlink:href="#Pretendard-Regular-32cf" transform="translate(93.078125 0)"/>
     <use xlink:href="#Pretendard-Regular-2" transform="translate(154.40625 0)"/>
     <use xlink:href="#Pretendard-Regular-1cd" transform="translate(179.5 0)"/>
     <use xlink:href="#Pretendard-Regular-285" transform="translate(232.4375 0)"/>
     <use xlink:href="#Pretendard-Regular-276" transform="translate(289.171875 0)"/>
     <use xlink:href="#Pretendard-Regular-1d7" transform="translate(344.84375 0)"/>
     <use xlink:href="#Pretendard-Regular-23a" transform="translate(403.921875 0)"/>
     <use xlink:href="#Pretendard-Regular-2d3" transform="translate(425.703125 0)"/>
     <use xlink:href="#Pretendard-Regular-23a" transform="translate(459.6875 0)"/>
     <use xlink:href="#Pretendard-Regular-285" transform="translate(481.46875 0)"/>
     <use xlink:href="#Pretendard-Regular-276" transform="translate(538.203125 0)"/>
     <use xlink:href="#Pretendard-Regular-2c3" transform="translate(593.875 0)"/>
     <use xlink:href="#Pretendard-Regular-2" transform="translate(643.484375 0)"/>
     <use xlink:href="#Pretendard-Regular-25d" transform="translate(668.578125 0)"/>
     <use xlink:href="#Pretendard-Regular-285" transform="translate(690.359375 0)"/>
     <use xlink:href="#Pretendard-Regular-32d" transform="translate(745.34375 0)"/>
     <use xlink:href="#Pretendard-Regular-1e9" transform="translate(821.328125 0)"/>
     <use xlink:href="#Pretendard-Regular-2b4" transform="translate(876.609375 0)"/>
    </g>
   </g>
   <g id="text_26">
    <!-- Contralateral side -->
    <g transform="translate(358.529201 16.716602) scale(0.1 -0.1)">
     <defs>
      <path id="Pretendard-Bold-25d" d="M 1288 4525 
L 363 4525 
L 363 0 
L 1288 0 
L 1288 4525 
z
" transform="scale(0.015625)"/>
     </defs>
     <use xlink:href="#Pretendard-Bold-29"/>
     <use xlink:href="#Pretendard-Bold-285" transform="translate(72.359375 0)"/>
     <use xlink:href="#Pretendard-Bold-276" transform="translate(131.34375 0)"/>
     <use xlink:href="#Pretendard-Bold-2d3" transform="translate(191.109375 0)"/>
     <use xlink:href="#Pretendard-Bold-2b4" transform="translate(228.125 0)"/>
     <use xlink:href="#Pretendard-Bold-1a0" transform="translate(265.625 0)"/>
     <use xlink:href="#Pretendard-Bold-25d" transform="translate(321.390625 0)"/>
     <use xlink:href="#Pretendard-Bold-1a0" transform="translate(347.078125 0)"/>
     <use xlink:href="#Pretendard-Bold-2d3" transform="translate(402.84375 0)"/>
     <use xlink:href="#Pretendard-Bold-1e9" transform="translate(439.328125 0)"/>
     <use xlink:href="#Pretendard-Bold-2b4" transform="translate(496.75 0)"/>
     <use xlink:href="#Pretendard-Bold-1a0" transform="translate(534.25 0)"/>
     <use xlink:href="#Pretendard-Bold-25d" transform="translate(590.015625 0)"/>
     <use xlink:href="#Pretendard-Bold-2" transform="translate(615.703125 0)"/>
     <use xlink:href="#Pretendard-Bold-2c3" transform="translate(638.75 0)"/>
     <use xlink:href="#Pretendard-Bold-23a" transform="translate(692.65625 0)"/>
     <use xlink:href="#Pretendard-Bold-1d7" transform="translate(718.34375 0)"/>
     <use xlink:href="#Pretendard-Bold-1e9" transform="translate(779.484375 0)"/>
    </g>
   </g>
   <g id="PathCollection_4">
    <g clip-path="url(#p0554fefebe)">
     <use xlink:href="#m1cba9068d4" x="304.015635" y="141.583144" style="fill: #0072b2; stroke: #0072b2"/>
     <use xlink:href="#m1cba9068d4" x="342.559186" y="159.070081" style="fill: #0072b2; stroke: #0072b2"/>
     <use xlink:href="#m1cba9068d4" x="381.102738" y="168.07673" style="fill: #0072b2; stroke: #0072b2"/>
     <use xlink:href="#m1cba9068d4" x="419.646289" y="156.683526" style="fill: #0072b2; stroke: #0072b2"/>
     <use xlink:href="#m1cba9068d4" x="458.18984" y="163.353318" style="fill: #0072b2; stroke: #0072b2"/>
     <use xlink:href="#m1cba9068d4" x="496.733392" y="144.916774" style="fill: #0072b2; stroke: #0072b2"/>
    </g>
   </g>
  </g>
  <g id="text_27">
   <!-- Belt speed [mm/s] -->
   <g transform="translate(212.154048 213.811523) scale(0.108 -0.108)">
    <defs>
     <path id="Pretendard-Regular-23" d="M 500 0 
L 2144 0 
C 3213 0 3663 519 3663 1200 
C 3663 1919 3163 2306 2744 2331 
L 2744 2375 
C 3138 2481 3481 2744 3481 3325 
C 3481 3994 3038 4525 2088 4525 
L 500 4525 
L 500 0 
z
M 2138 500 
L 1063 500 
L 1063 2056 
L 2169 2056 
C 2750 2056 3119 1669 3119 1206 
C 3119 813 2844 500 2138 500 
z
M 2069 2544 
L 1063 2544 
L 1063 4025 
L 2088 4025 
C 2681 4025 2944 3713 2944 3319 
C 2944 2844 2556 2544 2069 2544 
z
" transform="scale(0.015625)"/>
    </defs>
    <use xlink:href="#Pretendard-Regular-23"/>
    <use xlink:href="#Pretendard-Regular-1e9" transform="translate(61.921875 0)"/>
    <use xlink:href="#Pretendard-Regular-25d" transform="translate(117.203125 0)"/>
    <use xlink:href="#Pretendard-Regular-2d3" transform="translate(138.984375 0)"/>
    <use xlink:href="#Pretendard-Regular-2" transform="translate(172.96875 0)"/>
    <use xlink:href="#Pretendard-Regular-2c3" transform="translate(198.0625 0)"/>
    <use xlink:href="#Pretendard-Regular-2ab" transform="translate(247.671875 0)"/>
    <use xlink:href="#Pretendard-Regular-1e9" transform="translate(305.578125 0)"/>
    <use xlink:href="#Pretendard-Regular-1e9" transform="translate(360.859375 0)"/>
    <use xlink:href="#Pretendard-Regular-1d7" transform="translate(416.140625 0)"/>
    <use xlink:href="#Pretendard-Regular-2" transform="translate(475.21875 0)"/>
    <use xlink:href="#Pretendard-Regular-33d5" transform="translate(500.3125 0)"/>
    <use xlink:href="#Pretendard-Regular-26f" transform="translate(534.390625 0)"/>
    <use xlink:href="#Pretendard-Regular-26f" transform="translate(617.796875 0)"/>
    <use xlink:href="#Pretendard-Regular-337a" transform="translate(701.203125 0)"/>
    <use xlink:href="#Pretendard-Regular-2c3" transform="translate(734.609375 0)"/>
    <use xlink:href="#Pretendard-Regular-33d6" transform="translate(784.21875 0)"/>
   </g>
  </g>
  <g id="legend_1">
   <g id="PathCollection_5">
    <g>
     <use xlink:href="#m15cb3da6b9" x="164.071923" y="241.377367" style="fill: #ffffff; stroke: #000000; stroke-width: 1.2"/>
    </g>
   </g>
   <g id="text_28">
    <!-- Earlier R-GED -->
    <g transform="translate(174.611923 243.162367) scale(0.068 -0.068)">
     <defs>
      <path id="Pretendard-Regular-40" d="M 500 0 
L 3275 0 
L 3275 500 
L 1063 500 
L 1063 2019 
L 3100 2019 
L 3100 2513 
L 1063 2513 
L 1063 4025 
L 3244 4025 
L 3244 4525 
L 500 4525 
L 500 0 
z
" transform="scale(0.015625)"/>
      <path id="Pretendard-Regular-dd" d="M 500 0 
L 1063 0 
L 1063 1756 
L 2044 1756 
L 2156 1763 
L 3100 0 
L 3756 0 
L 2738 1863 
C 3313 2063 3581 2534 3581 3131 
C 3581 3938 3100 4525 2038 4525 
L 500 4525 
L 500 0 
z
M 1063 2269 
L 1063 4025 
L 2013 4025 
C 2738 4025 3025 3675 3025 3131 
C 3025 2594 2738 2269 2019 2269 
L 1063 2269 
z
" transform="scale(0.015625)"/>
      <path id="Pretendard-Regular-33c4" d="M 2375 2506 
L 394 2506 
L 394 2013 
L 2375 2013 
L 2375 2506 
z
" transform="scale(0.015625)"/>
      <path id="Pretendard-Regular-63" d="M 3588 3113 
L 4169 3113 
C 4000 3988 3263 4588 2306 4588 
C 1144 4588 325 3694 325 2263 
C 325 831 1138 -63 2344 -63 
C 3419 -63 4194 656 4194 1781 
L 4194 2269 
L 2463 2269 
L 2463 1775 
L 3644 1775 
C 3631 975 3109 463 2344 463 
C 1506 463 869 1094 869 2263 
C 869 3431 1506 4063 2306 4063 
C 2950 4063 3394 3694 3588 3113 
z
" transform="scale(0.015625)"/>
      <path id="Pretendard-Regular-31" d="M 1906 0 
C 3281 0 4063 856 4063 2269 
C 4063 3675 3281 4525 1963 4525 
L 500 4525 
L 500 0 
L 1906 0 
z
M 1063 500 
L 1063 4025 
L 1925 4025 
C 2981 4025 3513 3363 3513 2269 
C 3513 1169 2981 500 1869 500 
L 1063 500 
z
" transform="scale(0.015625)"/>
     </defs>
     <use xlink:href="#Pretendard-Regular-40"/>
     <use xlink:href="#Pretendard-Regular-1a0" transform="translate(56.734375 0)"/>
     <use xlink:href="#Pretendard-Regular-2b4" transform="translate(110.25 0)"/>
     <use xlink:href="#Pretendard-Regular-25d" transform="translate(145.21875 0)"/>
     <use xlink:href="#Pretendard-Regular-23a" transform="translate(167 0)"/>
     <use xlink:href="#Pretendard-Regular-1e9" transform="translate(188.78125 0)"/>
     <use xlink:href="#Pretendard-Regular-2b4" transform="translate(244.0625 0)"/>
     <use xlink:href="#Pretendard-Regular-2" transform="translate(279.03125 0)"/>
     <use xlink:href="#Pretendard-Regular-dd" transform="translate(304.125 0)"/>
     <use xlink:href="#Pretendard-Regular-33c4" transform="translate(364.96875 0)"/>
     <use xlink:href="#Pretendard-Regular-63" transform="translate(408.234375 0)"/>
     <use xlink:href="#Pretendard-Regular-40" transform="translate(479.140625 0)"/>
     <use xlink:href="#Pretendard-Regular-31" transform="translate(535.875 0)"/>
    </g>
   </g>
   <g id="PathCollection_6">
    <g>
     <use xlink:href="#m1cba9068d4" x="234.413673" y="241.377367" style="fill: #0072b2; stroke: #0072b2"/>
    </g>
   </g>
   <g id="text_29">
    <!-- Extended R-GED (recorded α=0.35) -->
    <g transform="translate(244.953673 243.162367) scale(0.068 -0.068)">
     <defs>
      <path id="Pretendard-Regular-337" d="M 838 3394 
L 219 3394 
L 1288 1700 
L 219 0 
L 838 0 
L 1638 1313 
L 2450 0 
L 3063 0 
L 1969 1700 
L 3063 3394 
L 2444 3394 
L 1638 2013 
L 838 3394 
z
" transform="scale(0.015625)"/>
      <path id="Pretendard-Regular-514" d="M 1681 -69 
C 2300 -75 2694 313 2919 850 
L 2925 850 
L 3131 0 
L 3631 0 
L 3200 1700 
L 3588 3394 
L 3088 3394 
L 2900 2513 
L 2894 2513 
C 2681 3056 2331 3438 1713 3438 
C 869 3438 269 2719 269 1700 
C 269 669 825 -63 1681 -69 
z
M 806 1688 
C 806 2438 1188 2956 1719 2956 
C 2388 2956 2631 2138 2719 1706 
L 2725 1700 
L 2719 1688 
C 2619 1244 2331 413 1681 413 
C 1156 413 806 956 806 1688 
z
" transform="scale(0.015625)"/>
      <path id="Pretendard-Regular-3610" d="M 644 2181 
L 3375 2181 
L 3375 2675 
L 644 2675 
L 644 2181 
z
M 644 869 
L 3375 869 
L 3375 1356 
L 644 1356 
L 644 869 
z
" transform="scale(0.015625)"/>
     </defs>
     <use xlink:href="#Pretendard-Regular-40"/>
     <use xlink:href="#Pretendard-Regular-337" transform="translate(56.734375 0)"/>
     <use xlink:href="#Pretendard-Regular-2d3" transform="translate(108 0)"/>
     <use xlink:href="#Pretendard-Regular-1e9" transform="translate(141.453125 0)"/>
     <use xlink:href="#Pretendard-Regular-276" transform="translate(196.734375 0)"/>
     <use xlink:href="#Pretendard-Regular-1d7" transform="translate(252.40625 0)"/>
     <use xlink:href="#Pretendard-Regular-1e9" transform="translate(311.484375 0)"/>
     <use xlink:href="#Pretendard-Regular-1d7" transform="translate(366.765625 0)"/>
     <use xlink:href="#Pretendard-Regular-2" transform="translate(425.84375 0)"/>
     <use xlink:href="#Pretendard-Regular-dd" transform="translate(450.9375 0)"/>
     <use xlink:href="#Pretendard-Regular-33c4" transform="translate(511.78125 0)"/>
     <use xlink:href="#Pretendard-Regular-63" transform="translate(555.046875 0)"/>
     <use xlink:href="#Pretendard-Regular-40" transform="translate(625.953125 0)"/>
     <use xlink:href="#Pretendard-Regular-31" transform="translate(682.6875 0)"/>
     <use xlink:href="#Pretendard-Regular-2" transform="translate(751.25 0)"/>
     <use xlink:href="#Pretendard-Regular-33d1" transform="translate(776.34375 0)"/>
     <use xlink:href="#Pretendard-Regular-2b4" transform="translate(810.421875 0)"/>
     <use xlink:href="#Pretendard-Regular-1e9" transform="translate(843.6875 0)"/>
     <use xlink:href="#Pretendard-Regular-1cd" transform="translate(898.96875 0)"/>
     <use xlink:href="#Pretendard-Regular-285" transform="translate(951.90625 0)"/>
     <use xlink:href="#Pretendard-Regular-2b4" transform="translate(1008.640625 0)"/>
     <use xlink:href="#Pretendard-Regular-1d7" transform="translate(1041.90625 0)"/>
     <use xlink:href="#Pretendard-Regular-1e9" transform="translate(1100.984375 0)"/>
     <use xlink:href="#Pretendard-Regular-1d7" transform="translate(1156.265625 0)"/>
     <use xlink:href="#Pretendard-Regular-2" transform="translate(1215.34375 0)"/>
     <use xlink:href="#Pretendard-Regular-514" transform="translate(1240.4375 0)"/>
     <use xlink:href="#Pretendard-Regular-3610" transform="translate(1301.375 0)"/>
     <use xlink:href="#Pretendard-Regular-32c9" transform="translate(1364.078125 0)"/>
     <use xlink:href="#Pretendard-Regular-3359" transform="translate(1421.171875 0)"/>
     <use xlink:href="#Pretendard-Regular-32cc" transform="translate(1443.921875 0)"/>
     <use xlink:href="#Pretendard-Regular-32ce" transform="translate(1505.640625 0)"/>
     <use xlink:href="#Pretendard-Regular-33d2" transform="translate(1565.3125 0)"/>
    </g>
   </g>
  </g>
 </g>
 <defs>
  <clipPath id="p4f33b2a035">
   <rect x="52.71168" y="24.716602" width="211.989533" height="158.472"/>
  </clipPath>
  <clipPath id="p0554fefebe">
   <rect x="294.379747" y="24.716602" width="211.989533" height="158.472"/>
  </clipPath>
 </defs>
</svg>
